<?xml version="1.0" encoding="utf-8"?>
<!-- Generator: Adobe Illustrator 27.8.0, SVG Export Plug-In . SVG Version: 6.00 Build 0)  -->
<svg version="1.1" id="Layer_1" xmlns="http://www.w3.org/2000/svg" xmlns:xlink="http://www.w3.org/1999/xlink" x="0px" y="0px"
	 viewBox="0 0 43.2837181 42.4746323" style="enable-background:new 0 0 43.2837181 42.4746323;" xml:space="preserve">
<style type="text/css">
	.st0{fill:#F4753E;}
	.st1{fill:#EA6C35;}
	.st2{fill:#F27434;}
	.st3{fill:#DA7027;}
	.st4{fill:#CB5730;}
	.st5{fill:#F3723A;}
	.st6{fill:#EF7237;}
	.st7{fill:#C4572B;}
	.st8{fill:#ED8A32;}
	.st9{fill:#E4643D;}
	.st10{fill:#D6692D;}
	.st11{fill:#F37C38;}
	.st12{fill:#D45B34;}
	.st13{fill:#D95C41;}
	.st14{fill:#BF512D;}
	.st15{fill:#CA5534;}
	.st16{fill:#E98326;}
	.st17{fill:#E27925;}
	.st18{fill:#793618;}
	.st19{fill:#F29547;}
	.st20{fill:#E77248;}
	.st21{fill:#E16D33;}
	.st22{fill:#C25E28;}
	.st23{fill:#D67727;}
	.st24{fill:#E3654A;}
	.st25{fill:#DD7548;}
	.st26{fill:#BD5427;}
	.st27{fill:#C05A37;}
	.st28{fill:#ED7B3A;}
	.st29{fill:#E57231;}
	.st30{fill:#DD7434;}
	.st31{fill:#F18D76;}
	.st32{fill:#F0826B;}
	.st33{fill:#E78265;}
	.st34{fill:#C96728;}
	.st35{fill:#C06031;}
	.st36{fill:#E86F56;}
	.st37{fill:#D6733A;}
	.st38{fill:#DF7B55;}
	.st39{fill:#BE5934;}
	.st40{fill:#EB7760;}
	.st41{fill:#E87533;}
	.st42{fill:#F19681;}
	.st43{fill:#7A4527;}
	.st44{fill:#D06A41;}
	.st45{fill:#F3754F;}
	.st46{fill:#E18151;}
	.st47{fill:#DC8027;}
	.st48{fill:#D98252;}
	.st49{fill:#F39D59;}
	.st50{fill:#BF5932;}
	.st51{fill:#AE8072;}
	.st52{fill:#AF6144;}
	.st53{fill:#9C7266;}
	.st54{fill:#DF814B;}
	.st55{fill:#956442;}
	.st56{fill:#A84424;}
	.st57{fill:#EEA491;}
	.st58{fill:#8B5631;}
	.st59{fill:#9B755E;}
	.st60{fill:#B56743;}
	.st61{fill:#C59880;}
	.st62{fill:#E2692A;}
	.st63{fill:#E56434;}
	.st64{fill:#EA6D2C;}
	.st65{fill:#DE5E37;}
	.st66{fill:#B45D27;}
	.st67{fill:#D06A28;}
	.st68{fill:#C86E28;}
	.st69{fill:#AC4925;}
	.st70{fill:#933F20;}
	.st71{fill:#F47731;}
	.st72{fill:#D8642B;}
	.st73{fill:#DD6D26;}
	.st74{fill:#C95D28;}
	.st75{fill:#F36F47;}
	.st76{fill:#DD6036;}
	.st77{fill:#ED6842;}
	.st78{fill:#DC5E39;}
	.st79{fill:#CC572B;}
	.st80{fill:#D86327;}
	.st81{fill:#CA5C28;}
	.st82{fill:#D7703D;}
	.st83{fill:#D16536;}
	.st84{fill:#B25E2A;}
	.st85{fill:#B24726;}
	.st86{fill:#E76045;}
	.st87{fill:#BA4D29;}
	.st88{fill:#A0462C;}
	.st89{fill:#D65635;}
	.st90{fill:#D35F27;}
	.st91{fill:#B84C26;}
	.st92{fill:#B55226;}
	.st93{fill:#BA5027;}
	.st94{fill:#B74D26;}
	.st95{fill:#BE5027;}
	.st96{fill:#A24D24;}
	.st97{fill:#8A3D1D;}
	.st98{fill:#AD4825;}
	.st99{fill:#A64724;}
	.st100{fill:#9A4722;}
	.st101{fill:#803D1B;}
	.st102{fill:#F07437;}
	.st103{fill:#F3754A;}
	.st104{fill:#D36528;}
	.st105{fill:#D26B28;}
	.st106{fill:#B75F4B;}
	.st107{fill:#9B4822;}
	.st108{fill:#F57F35;}
	.st109{fill:#F47A2E;}
	.st110{fill:#F47D30;}
	.st111{fill:#E9755B;}
	.st112{fill:#DB6A26;}
	.st113{fill:#CF662E;}
	.st114{fill:#DD684C;}
	.st115{fill:#DA7948;}
	.st116{fill:#E56D25;}
	.st117{fill:#E26B26;}
	.st118{fill:#E16132;}
	.st119{fill:#D2592D;}
	.st120{fill:#CF6228;}
	.st121{fill:#D0582A;}
	.st122{fill:#D96727;}
	.st123{fill:#DF6526;}
	.st124{fill:#B05226;}
	.st125{fill:#D96F27;}
	.st126{fill:#F27236;}
	.st127{fill:#E56830;}
	.st128{fill:#DE612C;}
	.st129{fill:#C85928;}
	.st130{fill:#BE5527;}
	.st131{fill:#ED6E35;}
	.st132{fill:#E6633D;}
	.st133{fill:#D45D2B;}
	.st134{fill:#BB5127;}
	.st135{fill:#D35C27;}
	.st136{fill:#C25828;}
	.st137{fill:#A44C24;}
	.st138{fill:#DD5F43;}
	.st139{fill:#CE5A2C;}
	.st140{fill:#CB5731;}
	.st141{fill:#D4593B;}
	.st142{fill:#AE4E26;}
	.st143{fill:#C0502A;}
	.st144{fill:#CC5330;}
	.st145{fill:#742F16;}
	.st146{fill:#983F21;}
	.st147{fill:#82391B;}
	.st148{fill:#D35E42;}
	.st149{fill:#B84B28;}
	.st150{fill:#CB5231;}
	.st151{fill:#C15E28;}
	.st152{fill:#B05026;}
	.st153{fill:#C4512C;}
	.st154{fill:#C75628;}
	.st155{fill:#9D4122;}
	.st156{fill:#712D14;}
	.st157{fill:#9F4322;}
	.st158{fill:#88381C;}
	.st159{fill:#CA5828;}
	.st160{fill:#924520;}
	.st161{fill:#B24F26;}
	.st162{fill:#CC6128;}
	.st163{fill:#DC602C;}
	.st164{fill:#CD532C;}
	.st165{fill:#F5832E;}
	.st166{fill:#E36B25;}
	.st167{fill:#AC4C25;}
	.st168{fill:#BD5828;}
	.st169{fill:#E57425;}
	.st170{fill:#C05728;}
	.st171{fill:#D45D29;}
	.st172{fill:#D65D2B;}
	.st173{fill:#963E21;}
	.st174{fill:#C3542A;}
	.st175{fill:#B94D26;}
	.st176{fill:#AE4325;}
</style>
<g>
	<path class="st0" d="M25.2986679,33.5749741c-0.4612293,2.600811-2.5814228,3.8360634-4.2801495,5.6139755
		c-0.9955902,0.5662537-0.4822006-1.5355988-1.3674927-1.5167503c-0.3573608-0.0365028-0.6470375-0.2196503-0.7483807-0.6041679
		c2.1711502-2.5009003,4.7736435-5.207613,7.3710766-6.8985863c0.536396,0.6936722,0.1472645,2.4099731-0.8392029,2.8093987
		C25.263895,33.0405998,25.091814,33.3178253,25.2986679,33.5749741z"/>
	<path class="st1" d="M27.6424313,25.3159981c-1.4825878-2.070919,0.0890751,3.1129913-1.2090473,2.3107147
		c-1.1787415,0.3597145-1.7301922,2.2439766-2.7541103,3.0732365c-3.0132294,2.7558613-0.9805965-1.7076359-0.3619461-2.8930168
		c1.8810349-1.751564,1.9709301-5.0313606,4.1058502-6.6982956c1.1803265-0.891655,2.1246777,0.8003349,1.7073555,1.8183002
		c-1.7014141,0.4109516-1.0924015,1.8655834-0.6178875,3.1114292
		C28.5010414,27.1410999,27.7959328,25.5957069,27.6424313,25.3159981z"/>
	<path class="st2" d="M22.1082001,31.5022316c1.7658386-0.8976727,1.0025311,1.8118134-0.0232849,2.3609352
		c-1.3027668,0.6669846-2.2808533,3.2569466-3.1819134,3.2053795c-0.8276558-0.8376656-1.0734558-1.0013351-1.8190346,0.024231
		c-1.0276985-0.6191406-2.0027781-1.7214928-3.4519892-1.1625519c-0.8013611-1.8477516,2.6730337-3.114418,3.7748194-1.9652519
		c0.5195827,0.9288445,0.8465157-0.57584,1.4670029-0.3734207c0.3543797,0.1198387,0.038517,0.5317688,0.2272091,0.7869682
		C20.5541954,33.6784401,20.6933136,32.110939,22.1082001,31.5022316z"/>
	<path class="st3" d="M10.3384333,32.0949249c-0.3685722-0.5226631-0.5486231-1.41646-1.3448429-1.7344475
		c-1.5882802-1.141407,3.3433228,0.1073647,4.0344448-0.791275c0.9077196-0.3408031,1.8299913-1.8183384,2.8746834-1.3706837
		c-0.7370501,2.2190857-2.1631765,4.5386181-2.9803534,6.8275051c-1.0808973-0.261219,0.5071964-1.9401779-0.4502087-2.354599
		C11.2820873,31.5260239,9.6465797,33.7551308,10.3384333,32.0949249z"/>
	<path class="st4" d="M32.2154007,8.6075668c0.6795082-0.3026543,1.3952484-0.4872189,2.1178856-0.6491628
		c-0.0808449,0.893292,1.5636177,0.1320243,1.1796074,2.0717731c-0.338871,0.9499712,0.9941635,0.2970791,1.0661392,1.0097628
		c-1.2212563,1.075675-5.2829742-0.2161274-3.6425667,2.1967754c-0.926815,0.1174536-1.8489437-0.5382719-2.4691868-1.1259079
		C27.8572903,9.827343,35.8309631,10.1928396,32.2154007,8.6075668z"/>
	<path class="st5" d="M22.902235,32.9319229c-0.7164822-0.9900703,3.2959042-6.7109241,3.8015728-5.330183
		c0.3840027-0.4721565,0.0467911-1.4112282,0.1711063-2.0387096c0.3275204-1.3615875,0.2342415,6.0708427-0.7633095,7.2284355
		c-1.31703,0.5364342-0.31633,0.5064659-1.067152,0.9400711c-0.4384251-0.8509827,1.0284176-0.9897957,1.0460529-1.7131195
		c-0.0598679-0.4385052,0.7457695-2.0759144-0.1906624-1.666769C24.9476109,31.2073441,24.3152828,32.8233223,22.902235,32.9319229z
		"/>
	<path class="st6" d="M28.1176949,26.2733631c0.8513927,0.4536686-1.8052483-4.0281258,1.0691566-3.2776318
		c0.3945179,1.2006817-0.0337868-0.3446712-0.0666924-0.8588123c0.04776-1.5063725,2.1354198,0.5727253,1.7392979,1.301403
		c-1.7677746,0.344099-2.2880478,2.8800945-0.7763309,3.8185482c0.7851887,0.3561821,0.7067528,1.5508003,1.6441231,1.4961128
		c0.8265533,2.9935398-2.2603226-0.6190948-2.4854679-1.7581139C28.4732342,27.5892849,28.4051094,26.9755039,28.1176949,26.2733631
		z"/>
	<path class="st7" d="M21.9986973,5.5962477c0.930584,0.1918087,0.6056042-1.5771089,1.5616188-0.9013925
		c0.5923157,0.6771512,1.3113384,0.1388946,1.9261665,0.4199848c0.5975056,0.8027601,1.1977558,1.9323492,1.4227524,3.037518
		c-1.7966728,1.0037088-2.5418968-1.3889856-3.9726772-1.866466c-0.1441536-0.6248536-0.5620937-0.2751417-0.8899784-0.2474685
		C20.9397087,5.9916978,20.7852077,4.7457943,21.9986973,5.5962477z"/>
	<path class="st8" d="M10.3267431,36.9126282c-1.3845768,0.0755692-0.5305119-1.6259041-0.6341639-2.3871765
		c2.3575344,1.640583,1.4039268,1.6495476,4.2799253,2.4463081c0.2431488,0.7125549,0.0695925,2.4933815-0.9995489,1.7176743
		C11.97367,37.9658508,10.2907763,38.4212112,10.3267431,36.9126282z"/>
	<path class="st9" d="M39.795063,12.4221001c0.245739,0.0671225,0.5207176,0.2601738,0.7430916,0.3232956
		c0.6689644,1.1358423-1.8167381-0.539937-1.6974144,0.7157211c0.0286064,0.5148649,0.6489105,0.3127279,0.9847832,0.4048166
		c1.1446724,0.4158192-0.5894356,0.9065552-1.0803719,0.6173954c-5.2925797,0.0521564-2.7491531-3.1665869,0.6846733-3.160676
		C40.2013779,11.4385748,38.9196434,12.3952475,39.795063,12.4221001z"/>
	<path class="st10" d="M13.5960035,7.1821694c1.640687,0.4124475,2.5317278,1.1098075,1.1989956-0.9209185
		c-0.0464659-0.0662003-0.072587-0.2061839-0.0469275-0.209156c0.7007151-0.081038,0.812295-0.7699275,1.2107153-1.1603894
		c4.061347,0.7053099-2.1562738,5.7253122-4.0545397,4.0239782c-0.1904411-0.9270453,1.4330788-0.4861488,1.1740856-1.6463208
		C13.0397997,7.0410628,13.4056635,7.1608696,13.5960035,7.1821694z"/>
	<path class="st11" d="M13.8644466,38.6570244c0.118041-1.3295746-0.9690828-3.767395,1.3951416-2.9367943
		C18.7505817,37.095047,15.8814783,38.1245956,13.8644466,38.6570244z"/>
	<path class="st12" d="M39.4297676,11.3229685c-1.129055,0.5197563-2.9807892-0.0069981-4.233799,0.9744616
		c-0.9048424,0.2261448-0.2403412,1.8559275-1.3288994,1.469738c-2.4209213-1.038867-2.2113113-2.4186945,0.6192284-2.3687601
		C36.2014809,11.16887,37.8556328,10.4171448,39.4297676,11.3229685z"/>
	<path class="st13" d="M9.2363949,18.7711372c-0.6658716-0.1706963-2.2576456,0.1724205-2.3632765-0.6282005
		c0.0741458-0.3421688-0.1308212-1.7479038,0.5988917-0.8992214c0.31041-0.0328083,1.4597068-0.6703491,1.4888186-1.0387936
		c-0.3893738-0.5720196-1.9772363-0.4010582-1.6801438-1.6347065c1.4500718,0.0639029,2.6890664,0.7219267,4.1383014,0.9529552
		c0.0673084,1.7000637-2.3847542,2.2424965-3.7679276,2.524971C8.2809534,18.2012596,9.1725483,17.9760571,9.2363949,18.7711372z"/>
	<path class="st14" d="M32.2154007,8.6075668c4.7574501,1.4615231-4.6719894,1.4745359-1.3725033,3.6778345
		C27.353857,11.6869822,29.7466202,8.8270464,32.2154007,8.6075668z"/>
	<path class="st15" d="M9.2451172,17.6859074c0.0266094-0.5317154,2.2536612-1.5916805,1.4474459-0.5916195
		c0.7677469-1.3049479,1.6060314,0.0795975,1.2889652,1.0554924c0.1444197,1.4521217,2.7137718,0.126358,3.3462667,1.2072563
		c-0.7348928,0.7503834-8.9194603-0.3560333-5.2331581-1.464325C10.0414276,17.8524094,9.4586773,18.0196114,9.2451172,17.6859074z"
		/>
	<path class="st16" d="M13.6924963,35.949646c-0.056304,0.33535,0.1081495,0.6342049,0.1572876,0.9520836
		c-0.5803347-0.3547935-1.3706369,0.2647514-1.8448038-0.2885056c-0.2087221-0.4774666-0.812089-0.0890388-0.923645-0.4612732
		c-0.0230331-1.2049942-2.4211178-1.3261986-1.3738575-2.7737999c1.3915386-0.4776802,2.980958,1.7126617,2.94736,2.90028
		C12.5628023,35.5124702,13.839323,34.8231239,13.6924963,35.949646z"/>
	<path class="st17" d="M12.5800934,35.7897186c-0.7355509-0.654438-1.4356489-2.6686096-2.604826-2.2551956
		c-0.196538,0.2081413-0.2371559,0.0002975-0.2680655-0.1562309c0.1327572-0.3897972,0.3297882-1.1013641,0.6417227-0.7229118
		c0.4729261-0.7352409,0.9629745-0.7320805,1.6413193-0.4063225c1.1184416,0.4103279,1.1367073,0.4251556,0.8784981,1.5772209
		C12.4479885,34.508873,13.2787046,35.4067764,12.5800934,35.7897186z"/>
	<path class="st18" d="M29.2509403,11.1803761c0.605835,0.4967222,0.48839,1.0425549-0.239912,0.4046097
		c0.0377464,0.4071903,0.2359486,0.8025732-0.0583515,1.1593513c-0.5517197,0.0334301-0.5033607-1.5339546-1.098526-0.3859262
		c-0.3856964,0.3228388-0.2745132,2.7948608-0.868494,1.4187717c-0.0079384-0.6043739-0.3717556-0.1622639-0.562561-0.2143087
		c-0.3506699-0.2491236,0.2239609-0.7427158-0.2553978-0.9571991c-0.9851208-0.5352974,1.1623287-0.9261303,0.513588-1.7446432
		c1.2561188-0.3563528-0.4640999-1.6988449,1.0534515-1.0443239c0.3924789,0.1269913,0.4109821-0.2946901,0.5697708-0.5462914
		c0.572464-0.5450525,0.2673531,0.4282427,0.232872,0.6958599C28.7086048,10.4028883,29.0487766,10.7635012,29.2509403,11.1803761z"
		/>
	<path class="st19" d="M10.3267431,36.9126282c0.34093,1.3451767,2.2260447,1.0197601,3.3670797,1.8973999
		C11.5713005,41.4749184,9.9918385,39.6790581,10.3267431,36.9126282z"/>
	<path class="st20" d="M40.370388,13.0814676c0.5421295-0.6927671,1.505188,0.6639109,2.3615341,1.036027
		c0.7472115,0.8949556-1.2042961,1.3081274-1.3678207,2.0916672c-0.6811371,0.6533604-1.9720955,0.6155643-2.8254242,1.1000652
		c-1.5869293,0.2618847,0.8300743,2.5039387,0.0654144,3.1235695c-3.4000397-4.1322746,1.2608414-3.106884,3.2222137-5.6025887
		C42.2924423,14.0811882,40.2801895,13.8650007,40.370388,13.0814676z"/>
	<path class="st21" d="M38.6235123,20.3866806c1.5956993,0.196394,1.9298782,3.5787449,2.0259514,5.1178837
		c0.4146271,0.7468433-1.7338409,1.2108173-1.6900215,0.5523205C41.59869,24.7747326,37.4106483,22.279026,38.6235123,20.3866806z"
		/>
	<path class="st22" d="M14.9269886,19.6398678c1.7217693,0.1712189-3.6427984,4.5869217-4.570363,5.2049618
		c-0.629755,0.4041042-0.1952629,1.7969265-1.1554766,1.8080158c-0.4518719-0.2555561,0.3896408-0.532793,0.0321989-0.8618336
		C7.4950304,25.0850258,14.6063137,21.4501171,14.9269886,19.6398678z"/>
	<path class="st23" d="M8.6098528,29.9179611c0.4330244,0.5220184,1.7178841,0.5991268,1.4330959,1.606575
		c-0.0766497,0.2153931,0.3239536,0.1250095,0.2982254,0.3534622c-0.5892315-0.1111679-1.1831303,0.0205421-1.7520876,0.1778297
		c-0.562007-0.1372795,0.0575848-1.0287991-1.1540055-1.1226425c-0.3566356-0.3331375,0.5994868-0.9392643,0.3881464-1.4941635
		C7.9573584,27.7352486,10.1972513,29.060112,8.6098528,29.9179611z"/>
	<path class="st24" d="M7.1781812,14.6824808c0.6565113,1.3791571,2.8737121,0.8689966,1.9571996,1.8326445
		c-0.7647963,0.2270966-1.713901,1.7520313-1.9364181,0.6127663c-0.2052002-0.0049992-0.1621904,0.2904873-0.3154926,0.3936501
		c0.1169343-0.5085945-1.0092363-0.4004135-0.2442183-0.8161335C7.827632,16.3399353,5.1516385,14.0936041,7.1781812,14.6824808z"/>
	<path class="st25" d="M14.1457682,4.9776311c-0.516367-2.4871705,0.6493368-0.2663245,1.3463211-1.7726076
		c0.6827574-0.0829825,1.4453497,0.7369323,1.3758574-0.5063899c1.4537258,0.6904919,2.1887817,2.2883387-0.2205524,1.9458179
		C15.7162724,4.2369361,15.024066,5.0502815,14.1457682,4.9776311z"/>
	<path class="st26" d="M27.5087872,9.7641258c-1.3131428,0.4793463-6.6625156-4.6618071-3.7272682-3.2008185
		C26.7185669,10.1628704,26.5025826,6.0013051,27.5087872,9.7641258z"/>
	<path class="st27" d="M25.4864063,5.115171c-1.9581356,0.8413568-1.9852505-1.1754956-2.7499104,0.0228906
		c0.2922058-0.5765381-0.3229828-2.6317074,0.6328011-2.1520267C24.3407898,3.4384732,25.1070976,4.0575204,25.4864063,5.115171z"/>
	<path class="st28" d="M38.8034897,32.1214409c0.0681686,2.933506-0.0086746,4.4490318-2.4975853,1.6170845
		c-0.554718,0.0409088-2.8115273-1.1933022-2.3013039-1.8459282c0.9884529,0.7553024,2.1651917,1.1267509,3.1724472,1.9051895
		C38.1087265,34.7689056,38.2080231,32.5037651,38.8034897,32.1214409z"/>
	<path class="st29" d="M34.0196037,31.9782887c-0.7031937,0.1649494-1.4407883-2.3482399-1.735939-0.7940292
		c-0.1021461,0.3726902-0.283905,0.4165459-0.5186958,0.112505c-0.2874317-0.3640347-1.7982979-2.3404064-0.8442745-2.0149364
		c1.5312328,1.3246708,0.4644337-0.545435,0.7497349-0.9434052c0.2347355-0.1090775,0.5082932,0.2108574,0.5680046,0.4146175
		C32.4019928,30.0612373,34.0502701,30.7525291,34.0196037,31.9782887z"/>
	<path class="st30" d="M13.5960035,7.1821694c-0.5315933-0.0561833,0.0461721,1.2719569-1.4929276,1.2931294
		C8.8228455,9.0131483,10.8730192,5.959197,13.5960035,7.1821694z"/>
	<path class="st31" d="M2.5593436,13.5051174c0.0688014-1.0624056,1.0815833-0.4805441,1.7604806-0.5710468
		c-0.5842221,0.8765469,0.0410366,2.6683531-1.5904157,2.8314266c-1.6107645-0.1887627,0.2016788-0.9543381-0.4655702-1.9680233
		C2.1727123,13.6506824,2.5240753,13.6750202,2.5593436,13.5051174z"/>
	<path class="st32" d="M2.8949547,15.773654c1.1092401-0.4655828,0.6079068-1.981164,1.2798996-2.5507832
		c1.3758516-0.6282568,0.6933126,1.3342657,0.9389257,2.0964251C4.9136376,16.5010967,3.6987388,15.7667618,2.8949547,15.773654z"/>
	<path class="st33" d="M4.7984567,14.0340767c0.7032337-1.5333586-1.475435-0.0964689-0.9761813-0.9453135
		c0.3152144,0.0154934,0.7814939-0.1716394,0.7018692-0.5845242c-0.4867148-1.124588,1.0609722-0.8672667,1.5096855-0.492918
		C6.4735436,12.8752842,5.8430352,14.5181818,4.7984567,14.0340767z"/>
	<path class="st34" d="M8.9274664,28.6437759c-1.383884,0.0549889-0.3150682,1.0796146-1.1040144,0.7953625
		c-1.492713-0.750103,0.8235426-2.2165146,1.2074184-3.1640148c0.1102247-0.1477871,0.2534409-0.2728786,0.2025194-0.4841576
		c0.5072441,0.2261829-0.3892469,0.7361755,0.1691332,0.7882519c0.0969124,0.2717342-0.1132708,0.4800224-0.3051023,0.6168118
		C9.7191658,27.3490429,8.9524183,28.2410946,8.9274664,28.6437759z"/>
	<path class="st35" d="M17.8208466,4.3476543c0.962635-0.1512985,3.976162,0.0172997,3.3347626,1.1107316
		C20.1648502,5.9037399,17.2201138,5.802073,17.8208466,4.3476543z"/>
	<path class="st36" d="M6.5444732,14.6750507c-0.2335124,0.7354908,0.7237854,0.8822136,0.7546625,1.4266224
		c-0.153933,1.0844822-1.4896035,1.1180782-2.1971946,0.4827747c0.2272148-0.5175304,1.0499034-0.2773209,0.545187-1.2153683
		C5.0770168,14.6646671,5.9870687,13.8928766,6.5444732,14.6750507z"/>
	<path class="st37" d="M17.6615772,4.5051732c-0.1591682,0.9398313-2.1299934-0.1756396-1.7448473,0.4756427
		c-0.2618761,1.460856-1.1428566,1.5690889-1.8066797,0.3395395C14.3080292,4.1308937,17.1062355,4.3611212,17.6615772,4.5051732z"
		/>
	<path class="st38" d="M5.9107647,11.9699516c-1.1524811,0.1756649-0.8333416-0.5247774,0.0406113-0.4817104
		c0.8119168-0.1917372-0.6162333-1.3202219,0.66329-1.1319885C8.5832367,10.5598392,7.5956841,13.5406199,5.9107647,11.9699516z"/>
	<path class="st39" d="M35.4473457,10.0625858c-0.2053719-1.583849-0.0188179-0.9606533-1.1438255-1.6015272
		c-0.5416832-0.9129057,2.3245811-0.8763518,2.7254333-0.4683723C36.0446472,7.8730583,35.4606628,10.74547,35.4473457,10.0625858z"
		/>
	<path class="st40" d="M5.5919294,14.5156822c0.0205317,0.5781384,1.0682979,2.1954403-0.2281504,1.9582291
		c-0.5594349,0.1980648-1.3431273-0.1500912-1.5225053-0.7697639c0.0182116-0.1334515,0.157337-0.0665474,0.2476215-0.0684299
		C5.5256357,16.9915028,4.2199354,13.1314373,5.5919294,14.5156822z"/>
	<path class="st41" d="M38.9426804,26.1039238c0.2979317,0.2958508,0.6846924,0.0897217,1.0191841,0.1802368
		c-2.2440987,0.001091,0.7745056,4.2719707-0.8668594,4.600214C38.8451653,30.0334263,37.8463249,26.3326092,38.9426804,26.1039238z
		"/>
	<path class="st42" d="M2.5593436,13.5051174c0.0879068,0.1341057-0.3947549,0.2494211-0.0123837,0.3944578
		c0.3820295,0.3932896-0.0305619,1.4278526-0.6392342,1.5860405C-0.1289785,14.8008509,1.1346854,13.8293877,2.5593436,13.5051174z"
		/>
	<path class="st43" d="M28.6436501,9.4916868C27.4900208,9.0186176,32.1488228,3.264755,31.82197,5.0128689
		C30.4708767,6.0905452,29.4512272,7.8030233,28.6436501,9.4916868z"/>
	<path class="st44" d="M20.5155411,4.5072536c-0.719759-0.09763-1.5909519,0.2144194-2.2192059-0.1617208
		c-0.0844231-0.3642716-1.2527676-0.950093-0.6282234-1.1285365C19.45438,4.918014,17.9473381,1.7000451,20.5155411,4.5072536z"/>
	<path class="st45" d="M40.5298538,24.6636982c-0.1187553-1.2506561-0.4914932-2.5409794-1.3980637-3.4501934
		C40.0102654,20.8140869,41.9798737,23.9690132,40.5298538,24.6636982z"/>
	<path class="st46" d="M15.7653723,3.2305911c-0.5067482-0.0084689,0.1650658,0.5227003-0.2606211,0.5792363
		C13.0184736,4.7144918,13.0646763,1.3731411,15.7653723,3.2305911z"/>
	<path class="st47" d="M7.321137,30.6934032c0.3814101,0.128727,1.8356404,0.5550385,1.1722255,1.1079273
		c-0.2405195,0.1695938,0.0773582,0.1630878,0.0957527,0.254528c-0.3097544,0.0886688-0.5860233,0.1471825-0.8514905-0.1610851
		C6.6458473,31.6759071,6.0760164,31.6423092,7.321137,30.6934032z"/>
	<path class="st48" d="M7.4468551,9.7866468c-0.2995925-0.3287783-0.7053952-0.792881-0.0871768-1.0082922
		c-0.2508268-0.8294935,3.0791645-0.5088291,2.8056593-0.2419367C7.4379439,8.5610018,9.1612949,9.8009014,7.4468551,9.7866468z"/>
	<path class="st49" d="M10.8143253,39.2430153c0.0278053,0.1255531,0.0556107,0.2511063,0.083416,0.3766251
		c0.6175508-0.1962929,0.8353405,0.7495384,1.5339746,0.3043404C11.0908136,41.7132874,10.5153351,41.3741074,10.8143253,39.2430153
		z"/>
	<path class="st50" d="M35.4473457,10.0625858c0.3539238,0.455739,3.4532433,0.526619,2.258564,1.1076546
		C37.0566292,10.7876863,34.6386337,11.2874355,35.4473457,10.0625858z"/>
	<path class="st51" d="M35.2626457,2.2616019c0.619072-0.5957249,4.2299995-1.6317725,2.9316673,0.051744
		C37.2148209,1.8323501,36.0986023,2.6979342,35.2626457,2.2616019z"/>
	<path class="st52" d="M24.4926796,3.5497897c-0.5612411,0.6002085-1.5580139-1.2665188-1.599474-0.1300347
		C22.0767326,1.4874172,24.0126228,2.4879107,24.4926796,3.5497897z"/>
	<path class="st53" d="M35.7698135,2.2862039c0.4994507-0.5423731,2.8771248-0.3699799,2.0651665,0.1398773
		C37.2163353,2.3604524,36.0451012,2.9381707,35.7698135,2.2862039z"/>
	<path class="st54" d="M10.1982517,8.4744186c0.0565014-0.3378344-0.0501957-0.6062284-0.2420206-0.8642921
		c-0.4108725-0.9056878,2.3982553-0.541008,0.7189808-0.3511791c0.6259575,0.302309,0.3619738,0.3571401-0.1598625,0.5824165
		C10.3786221,8.0368004,10.6837196,8.45368,10.1982517,8.4744186z"/>
	<path class="st55" d="M34.3353004,3.2214437c-0.4554291,0.2124403-0.9992943,0.7438226-1.4507446,0.305198
		c0.4723015-0.5264447,1.23106-0.5419433,1.7681389-0.940171c0.2668304,0.026176,0.6999702-0.5236542,0.7977028,0.1784065
		C35.0683899,2.8752148,34.7088661,3.035095,34.3353004,3.2214437z"/>
	<path class="st56" d="M29.0919018,11.0183659c-0.2276669-0.2238731-0.8615932-0.9050131-0.5267601-1.1006804
		C28.7592106,10.765707,30.6270466,8.9311085,29.0919018,11.0183659z"/>
	<path class="st57" d="M0.9651663,14.1731691c0.0892277,0.1781254,0.2366416,0.346839-0.0067366,0.5341444
		C0.8726878,15.5130596-0.2987714,14.0659647,0.9651663,14.1731691z"/>
	<path class="st58" d="M31.640873,4.6758685c-0.4434357,0.5118866-0.8636169,1.0481777-1.4634113,1.3962054
		C30.5368214,5.6043668,31.1207237,4.7154622,31.640873,4.6758685z"/>
	<path class="st59" d="M35.4560013,2.763417c-0.180275-0.4567719-0.5471611-0.0654514-0.8033524-0.1768374
		C35.1649857,1.8456129,37.1461563,2.6325688,35.4560013,2.763417z"/>
	<path class="st28" d="M38.9426804,30.7071075c-0.012764,0.1983833-0.2395782,0.8914661-0.1720695,1.4376678
		C38.1656075,31.9418831,38.2747421,30.4607983,38.9426804,30.7071075z"/>
	<path class="st60" d="M37.0290718,7.993012c-0.4123573-0.3172503-0.8993454-0.058054-1.3382797-0.1731057
		C36.0310936,7.5998073,37.9141579,7.745791,37.0290718,7.993012z"/>
	<path class="st48" d="M7.0086751,10.3624334c0.1848946-0.1624393,0.6668668-0.0987711,0.4382458-0.575819
		C8.2611017,9.7250729,7.4939876,10.9926271,7.0086751,10.3624334z"/>
	<path class="st32" d="M3.9805472,15.9506893c0.1653125,0.1496601,0.3306282,0.2993183,0.4959037,0.4489784
		C4.107388,16.4750252,3.9468639,16.3200836,3.9805472,15.9506893z"/>
	<path class="st55" d="M32.4261856,3.8657522c0.0922737-0.1431355,0.345932-0.4109647,0.4983482-0.2898991
		C32.9670486,3.8909183,32.6501083,4.0522895,32.4261856,3.8657522z"/>
	<path class="st47" d="M8.9287214,31.9731045c0.194541-0.2323818,0.4506626-0.1387959,0.6908741-0.1305065
		C9.4112215,32.0015373,9.1725292,32.0009079,8.9287214,31.9731045z"/>
	<path class="st0" d="M26.4133873,32.1863327c0.0035324-0.2377644-0.1040516-0.5005264,0.1533909-0.6811295
		C26.5731182,31.7452145,26.5788651,31.9850578,26.4133873,32.1863327z"/>
	<path class="st9" d="M39.4297676,11.3254118c-0.1832466,0.009016-0.3744469,0.0414114-0.4845467-0.1647501
		C39.124176,11.1642609,39.3074837,11.1551466,39.4297676,11.3254118z"/>
	<path class="st46" d="M14.0166483,4.0307341c0.1922922,0.1366487,0.1493626,0.3321767,0.1304407,0.5218272
		C14.0056887,4.4031987,13.9961414,4.2207146,14.0166483,4.0307341z"/>
	<path class="st53" d="M35.6113701,2.7414238c0.1328506-0.1781583,0.3218384-0.137408,0.5026398-0.1289542
		C35.9679146,2.7390461,35.795536,2.7632518,35.6113701,2.7414238z"/>
	<path class="st0" d="M25.4501114,33.1146049c0.1036625-0.2211227,0.3008709-0.1769371,0.4846764-0.1708946
		C25.8147812,33.1184998,25.6172066,33.0732613,25.4501114,33.1146049z"/>
	<path class="st42" d="M2.2492921,15.6302023c0.1752191-0.0083876,0.3567126-0.0391312,0.4803171,0.1353607
		C2.5508566,15.7865658,2.379303,15.7821074,2.2492921,15.6302023z"/>
	<path class="st0" d="M25.2935829,33.5800934c-0.0043583-0.1832085-0.0464306-0.3798943,0.1731052-0.4829597
		C25.4385529,33.2686882,25.4356804,33.4493561,25.2935829,33.5800934z"/>
	<path class="st43" d="M28.1191483,9.6778698c-0.0108089,0.2795506-0.5730171,0.3372889-0.4437542,0.0628338
		C27.8352833,9.8037205,27.9795609,9.7574224,28.1191483,9.6778698z"/>
	<path class="st59" d="M34.9836044,2.9389334c0.0977478-0.2131956,0.2842598-0.1883292,0.4668121-0.1740963
		C35.328495,2.9132085,35.1640091,2.9474201,34.9836044,2.9389334z"/>
	<path class="st57" d="M1.3019992,14.0259533c-0.0692489,0.1389275-0.1894851,0.1671619-0.3298321,0.1517401
		C1.047294,14.0514145,1.1699739,14.0285292,1.3019992,14.0259533z"/>
	<path class="st57" d="M0.9842865,14.9887009c0.1366155-0.0029383,0.2546391,0.028862,0.3152065,0.168417
		C1.1681906,15.1500835,1.0541959,15.1106215,0.9842865,14.9887009z"/>
	<path class="st42" d="M1.9214084,15.4820957c0.1410406-0.0177336,0.2647476,0.0027733,0.3307567,0.1502867
		C2.1173329,15.6363449,1.9937284,15.6156397,1.9214084,15.4820957z"/>
	<path class="st20" d="M40.545311,12.750843c-0.1402168,0.0132093-0.2612457-0.0146952-0.3302612-0.1540852
		C40.3506737,12.5934563,40.4718018,12.6211624,40.545311,12.750843z"/>
	<path class="st20" d="M40.2196045,12.5989704c-0.1324806,0.0087843-0.2498474-0.0167093-0.3230247-0.1423607
		C40.0292969,12.4472971,40.1419029,12.4835234,40.2196045,12.5989704z"/>
	<path class="st20" d="M39.795063,12.4221001c-0.1694717,0.0179319-0.3155594-0.0045233-0.3576355-0.2070532
		C39.5566063,12.2839661,39.6758537,12.3530502,39.795063,12.4221001z"/>
	<path class="st12" d="M38.0106087,10.8400097c-0.1361504,0.0185919-0.2574768-0.0020475-0.3387489-0.1283598
		C37.8056374,10.6992989,37.9279518,10.7173624,38.0106087,10.8400097z"/>
	<path class="st51" d="M37.8347626,2.4259236c0.0829887-0.1267745,0.2017708-0.1447392,0.3376274-0.1108577
		C38.0925713,2.4518795,37.9694633,2.4565687,37.8347626,2.4259236z"/>
	<path class="st59" d="M34.6416206,2.5922265c-0.0546532,0.1369789-0.164917,0.1705301-0.2984886,0.1604581
		C34.4095345,2.6374679,34.5095291,2.5849946,34.6416206,2.5922265z"/>
	<path class="st59" d="M34.3281021,2.7601476c-0.0612259,0.1306715-0.1718178,0.1627367-0.3036804,0.1521363
		C34.0965767,2.8033745,34.1979256,2.7529817,34.3281021,2.7601476z"/>
	<path class="st59" d="M34.6577682,3.0740628c0.0726852-0.134172,0.1897163-0.1623404,0.328907-0.1374741
		C34.9114151,3.0647173,34.7913132,3.0854886,34.6577682,3.0740628z"/>
	<path class="st6" d="M27.6424313,25.3159981c0.159235,0.0621815,0.1795444,0.1902122,0.1596642,0.3373604
		C27.6688862,25.5787945,27.6465588,25.4516888,27.6424313,25.3159981z"/>
	<path class="st59" d="M34.3353004,3.2214437c0.071064-0.1210618,0.1813622-0.1567264,0.3137817-0.1440787
		C34.571579,3.184458,34.4698029,3.2385495,34.3353004,3.2214437z"/>
	<path class="st6" d="M27.7909679,25.6397209c0.1696701,0.0525723,0.1890221,0.1821861,0.1697369,0.3316822
		C27.82934,25.8991146,27.795887,25.7767334,27.7909679,25.6397209z"/>
	<path class="st52" d="M24.705513,3.8517175c-0.1716537-0.0296876-0.2078457-0.1548772-0.2129326-0.3019938
		C24.6233177,3.6082401,24.6734791,3.7235889,24.705513,3.8517175z"/>
	<path class="st6" d="M27.9494762,25.9574661c0.1679211,0.0493031,0.1890888,0.1784554,0.1771355,0.325737
		C27.9935017,26.2149124,27.9547272,26.0953045,27.9494762,25.9574661z"/>
	<path class="st55" d="M33.2208786,3.8642662c-0.0685921,0.1228533-0.2611351,0.2904928-0.3522835,0.1129344
		C32.9011765,3.7976465,33.0926285,3.7551837,33.2208786,3.8642662z"/>
	<path class="st43" d="M28.5652542,9.9177475C28.5395393,9.9126186,28.487402,9.909234,28.461298,9.9111786
		C28.4753838,9.5432243,28.6923523,9.5396805,28.5652542,9.9177475z"/>
	<path class="st55" d="M31.7970009,4.3498011c0.0625534-0.1299763,0.2500687-0.2918873,0.3515892-0.1250205
		C32.1214523,4.4058676,31.9277763,4.4573355,31.7970009,4.3498011z"/>
	<path class="st55" d="M32.4275055,4.5002861c-0.0449104,0.1588345-0.3877754,0.3345671-0.365387,0.0626984
		C32.1361351,4.4181714,32.3121948,4.3893123,32.4275055,4.5002861z"/>
	<path class="st41" d="M40.0571022,26.2558289c0.0670662-0.1238365,0.18116-0.1507835,0.3087349-0.1497593
		C40.2892227,26.2103233,40.1878433,26.2633247,40.0571022,26.2558289z"/>
	<path class="st43" d="M28.3035851,9.2728777c0.0092087,0.1330166-0.0249043,0.2451944-0.150753,0.3132219
		C28.1361217,9.4494514,28.19771,9.3505144,28.3035851,9.2728777z"/>
	<path class="st6" d="M30.5282631,29.2796955c0.1231098,0.0646915,0.1531277,0.177763,0.1579189,0.3039093
		C30.572546,29.5139275,30.525692,29.4096737,30.5282631,29.2796955z"/>
	<path class="st27" d="M25.8082104,5.6022248c-0.1671944-0.0366225-0.2011757-0.1614819-0.2035198-0.3073106
		C25.7301769,5.3591766,25.78265,5.4717846,25.8082104,5.6022248z"/>
	<path class="st35" d="M21.9986973,5.5962477c-0.1539211,0.0157518-0.2937355,0.003005-0.3521843-0.1743937
		C21.7881107,5.4310675,21.9143562,5.4713883,21.9986973,5.5962477z"/>
	<path class="st17" d="M10.3384333,32.0949249c0.0174694,0.1477776,0.0026093,0.2819176-0.15098,0.3574715
		C10.1818724,32.3096085,10.2239761,32.1869926,10.3384333,32.0949249z"/>
	<path class="st0" d="M26.2445736,32.6249084c-0.0065041-0.1302414,0.0137386-0.2491226,0.1373749-0.3241501
		C26.3922863,32.4326172,26.3641548,32.5481644,26.2445736,32.6249084z"/>
	<path class="st37" d="M14.7923222,6.2566051c0.1381674,0.0595403,0.1705627,0.176507,0.1694069,0.3117356
		C14.8393135,6.500248,14.7952652,6.3896213,14.7923222,6.2566051z"/>
	<path class="st37" d="M15.2535191,7.0581355c0.1436815,0.0421371,0.1828136,0.1539197,0.1907396,0.2864733
		C15.3199978,7.2895265,15.2645483,7.1886086,15.2535191,7.0581355z"/>
	<path class="st60" d="M36.5777473,8.1923046c0.0499649-0.171586,0.1809654-0.194108,0.331749-0.1804037
		C36.8148918,8.1013603,36.712616,8.1767845,36.5777473,8.1923046z"/>
	<path class="st25" d="M17.8858013,3.3714993c-0.1048794-0.0058119-0.1782894-0.0560067-0.2175503-0.1544147
		C17.7691326,3.2285106,17.8397026,3.2827671,17.8858013,3.3714993z"/>
	<path class="st25" d="M18.1268349,3.5564933c-0.0472546-0.0400896-0.0944786-0.0802124-0.1417007-0.1202362
		C18.064291,3.4387999,18.1069889,3.4841733,18.1268349,3.5564933z"/>
	<path class="st25" d="M18.3110046,3.706285c-0.0587158-0.0481474-0.1174297-0.0962617-0.1761398-0.1444089
		C18.2264977,3.5699005,18.2841568,3.6192698,18.3110046,3.706285z"/>
	<path class="st55" d="M33.4020424,3.7307217c-0.0224533,0.0756481-0.1377373,0.1784809-0.2001572,0.1076393
		C33.1825066,3.7103908,33.3137932,3.6302593,33.4020424,3.7307217z"/>
	<path class="st55" d="M32.248291,4.0052075c0.0241127-0.0743713,0.1444435-0.1901033,0.2039566-0.106184
		C32.4451065,4.0176482,32.3430634,4.0963345,32.248291,4.0052075z"/>
	<path class="st55" d="M32.0666313,4.1415586c0.0717926-0.0300078,0.1608353-0.1849084,0.2204552-0.0970106
		C32.3198471,4.2003412,32.1545868,4.261888,32.0666313,4.1415586z"/>
	<path class="st55" d="M32.9434547,4.0654411c-0.1849098,0.2640085-0.3416557-0.0480952-0.0474892-0.0492716
		C32.8959656,4.0162373,32.9434547,4.0654411,32.9434547,4.0654411z"/>
	<path class="st55" d="M32.7682037,4.2082982c-0.0290985,0.1136322-0.1937981,0.2154069-0.2020226,0.0464487
		C32.6052895,4.1844907,32.7136765,4.1295238,32.7682037,4.2082982z"/>
	<path class="st55" d="M31.6248856,4.4949031c0.024601-0.0872464,0.0822601-0.1353273,0.1721478-0.145102
		C31.8717365,4.4596243,31.7254791,4.6018867,31.6248856,4.4949031z"/>
	<path class="st55" d="M32.5952339,4.3529048c-0.0192375,0.0700555-0.1258354,0.1915011-0.1875153,0.1211467
		C32.3963165,4.36233,32.5047188,4.2736497,32.5952339,4.3529048z"/>
	<path class="st55" d="M31.640873,4.6758685c-0.2035885,0.0234027-0.1966114-0.130497-0.0159607-0.1809926
		C31.7117405,4.5405912,31.7205715,4.6399102,31.640873,4.6758685z"/>
	<path class="st55" d="M31.9979115,4.8568006c-0.0335312-0.104897-0.0615692-0.3072386,0.1070232-0.2041812
		C32.218029,4.7265272,32.1083908,4.8533697,31.9979115,4.8568006z"/>
	<path class="st58" d="M31.8216362,5.0131965c0.0127125-0.0988703,0.0683899-0.1532259,0.1680202-0.1621089
		C31.9732094,4.9461932,31.9166756,4.9996572,31.8216362,5.0131965z"/>
	<path class="st58" d="M31.6510715,5.1567469c0.0232811-0.091176,0.0806751-0.1421304,0.1755505-0.1489658
		C31.8067093,5.1029859,31.7438335,5.1474676,31.6510715,5.1567469z"/>
	<path class="st27" d="M25.6062794,5.2973909c-0.085598-0.0372496-0.1334114-0.1009836-0.1373119-0.1957593
		C25.5630817,5.1329045,25.600563,5.2040358,25.6062794,5.2973909z"/>
	<path class="st58" d="M31.4898872,5.3113928c0.020277-0.0875764,0.0742683-0.1401157,0.1629028-0.1565614
		C31.6352215,5.2453141,31.5817909,5.2983818,31.4898872,5.3113928z"/>
	<path class="st35" d="M21.6641426,5.4359879c-0.0903511-0.0058451-0.1526947-0.0519118-0.1907406-0.1328177
		C21.5645123,5.3079252,21.6325054,5.3458686,21.6641426,5.4359879z"/>
	<path class="st58" d="M31.3321705,5.4714212c0.0183277-0.0873122,0.0709991-0.1408424,0.1580486-0.1604576
		C31.476778,5.4031634,31.4235458,5.4560657,31.3321705,5.4714212z"/>
	<path class="st58" d="M31.1767654,5.6353469c0.0154877-0.0895252,0.0679283-0.1440129,0.1560669-0.1646519
		C31.3198528,5.5626307,31.2685356,5.6181417,31.1767654,5.6353469z"/>
	<path class="st58" d="M31.0219879,5.7994041c0.0137043-0.0921006,0.0664406-0.1474137,0.1572552-0.1667652
		C31.167057,5.7262254,31.1137581,5.7809772,31.0219879,5.7994041z"/>
	<path class="st58" d="M30.8766212,5.9704957c0.0035-0.0979128,0.0546856-0.1552076,0.149395-0.1754174
		C31.014492,5.8861551,30.9686222,5.9480071,30.8766212,5.9704957z"/>
	<path class="st58" d="M30.713026,6.1503711c0.0085201-0.1049137,0.0634041-0.1679873,0.1680202-0.1862488
		C30.8653927,6.0626292,30.8063145,6.1219382,30.713026,6.1503711z"/>
	<path class="st58" d="M30.1846275,6.0650401c-0.0107002,0.0954356-0.0638332,0.153523-0.156065,0.177134
		C30.0380058,6.1455498,30.0870457,6.0839291,30.1846275,6.0650401z"/>
	<path class="st58" d="M30.3703804,6.5540752c0.0380421-0.0453076,0.076086-0.0906148,0.1140614-0.1358562
		C30.4888344,6.4991913,30.4468956,6.541163,30.3703804,6.5540752z"/>
	<path class="st37" d="M14.9627857,6.57019c0.0903873,0.0484118,0.1343079,0.1246285,0.1354923,0.2266359
		C15.0115938,6.7462349,14.9675083,6.6699853,14.9627857,6.57019z"/>
	<path class="st37" d="M15.1375751,6.8889594c0.0778017,0.0353017,0.1215572,0.0945115,0.1266432,0.1808333
		C15.1781607,7.0402369,15.1352968,6.9803996,15.1375751,6.8889594z"/>
	<path class="st61" d="M37.3355904,7.9578428c-0.0078278-0.0313058-0.006176-0.0621161,0.0048523-0.0923982
		C37.4646072,7.9117856,37.4617004,7.9224439,37.3355904,7.9578428z"/>
	<path class="st60" d="M36.415905,8.3595982c0.0174332-0.0999928,0.0746651-0.1617785,0.1751862-0.1819887
		C36.5691643,8.2733097,36.5055618,8.3289862,36.415905,8.3595982z"/>
	<path class="st57" d="M1.2936444,15.1519661c0.0561388,0.043788,0.1122776,0.0875435,0.1683503,0.1311998
		C1.375607,15.278245,1.3218459,15.2315178,1.2936444,15.1519661z"/>
	<path class="st40" d="M5.1019363,16.5845299c0.0554457,0.038372,0.1108909,0.0767441,0.1663032,0.1150513
		C5.1831069,16.704073,5.12852,16.6645775,5.1019363,16.5845299z"/>
	<path class="st34" d="M9.0178499,25.649231c0.1021395,0.0058784,0.1773663,0.0524406,0.221055,0.1464901
		C9.1434069,25.7798367,9.0655355,25.7372704,9.0178499,25.649231z"/>
	<path class="st47" d="M7.4845009,30.512373c-0.0164123,0.0963936-0.0712304,0.1591358-0.1649451,0.1877346
		C7.3366909,30.6043072,7.3936882,30.5434799,7.4845009,30.512373z"/>
	<path class="st28" d="M33.6712112,31.8310738c0.0934868,0.0206718,0.1533928,0.0767765,0.1787872,0.1694412
		C33.756443,31.9799061,33.6986847,31.9214573,33.6712112,31.8310738z"/>
	<path class="st0" d="M26.09799,32.8059731c0.0118179-0.0931587,0.0631027-0.1546478,0.1503162-0.1873703
		C26.2429237,32.7169762,26.1952705,32.7813721,26.09799,32.8059731z"/>
	<path class="st0" d="M25.9272614,32.9494247c0.029089-0.0901527,0.0895538-0.1437492,0.1841316-0.1577492
		C26.0903244,32.8912048,26.0258636,32.9402771,25.9272614,32.9494247z"/>
	<path class="st62" d="M24.4903355,25.9443226c0.2368565,2.4054909-4.8000488,4.6103191-3.6129742,7.02421
		c0.0608521,0.828495-0.8620243-0.4360504-1.31633-0.1759338c-0.6642132-0.6158562-0.8474407-2.0364017-1.2770233-2.9365349
		c0.009594-2.5249672,1.1967869,1.3975391,1.6461735,1.9831085c-1.9965801-2.8215199-0.1823521-2.96702,0.497963-5.6097298
		c0.3501892-0.9651814-0.6331863-1.3490124-1.1046009-1.98316c1.3408413-2.7336998,3.15028-1.0251427,4.5027409,0.5785408
		C23.1204529,21.7444992,25.5366726,24.0134525,24.4903355,25.9443226z"/>
	<path class="st63" d="M24.4903355,25.9443226c-0.0720596-1.6483746,0.233387-1.7490807-0.8099823-3.1505203
		c-0.0577049-2.2742863,4.2815094-5.4550743,5.1326008-2.2438469c0.0237141,0.2120609,0.1455364,0.4307728-0.0363541,0.6308899
		C26.0105991,20.5610924,26.2425976,24.7779903,24.4903355,25.9443226z"/>
	<path class="st64" d="M20.6789055,33.2498322c-0.9025497-2.0509949,1.2357616-3.4334526,2.5411968-4.9230194
		c-0.0845623,1.215395-1.0816116,2.2142525-1.3065987,3.4194603C20.4397659,32.2719879,21.4363575,34.2952614,20.6789055,33.2498322
		z"/>
	<path class="st63" d="M30.2058277,22.1344471c-1.8055801-1.1111603-0.389061,0.5630608-1.1100292,0.7926769
		C28.4330349,20.0232697,28.9062958,18.116024,30.2058277,22.1344471z"/>
	<path class="st65" d="M28.779705,20.3856564c0.4119339,0.6758404,0.1732178,2.3328667,0.1563931,1.2710667
		C28.7633972,21.3932667,28.4954147,20.6073017,28.779705,20.3856564z"/>
	<path class="st63" d="M28.7781525,21.4976006c0.0527039,0.0530357,0.1053753,0.1060696,0.1580467,0.1591034
		C28.8835278,21.6036701,28.8308239,21.5506363,28.7781525,21.4976006z"/>
	<path class="st64" d="M18.4556103,29.9145603c0.7973194,3.8101597,3.9744053,2.2671223,0.4604168,4.8488407
		c-0.1344318-1.7901649-0.2464542-0.7362823-1.3496227,0.0144043c-0.0293217-1.0395012-1.0854912-1.2316666-1.8924665-0.9938011
		c-4.6864319,2.1537437,0.5962896-1.9977798,1.8934069-3.6419716
		C17.7801991,29.8992367,18.0683193,29.6277237,18.4556103,29.9145603z"/>
	<path class="st64" d="M13.6917372,35.4716759c-0.3166323-0.0802803-0.8104315,0.4055748-0.7579622-0.1722412
		C13.092432,34.4478912,13.9087639,34.6267357,13.6917372,35.4716759z"/>
	<path class="st66" d="M12.8955231,34.9950905c-0.1111908-2.1179504,3.8385258-6.3656292,2.1922302-6.7721825
		c1.6012096-0.9573193,2.5438423-4.0520325,4.2003479-4.2339249c-0.2775192,0.9038353-1.1560326,1.6207256-1.3464184,2.6193886
		c-1.1017914,0.1657696-1.4121056,2.2014446-2.2366791,3.0463715
		C14.5122719,31.0054512,13.9740868,34.4935493,12.8955231,34.9950905z"/>
	<path class="st67" d="M14.0103741,28.964592c-0.2787657,1.6989155-6.3718948,1.3744888-3.8384762,0.5922699
		C11.5061913,29.7398453,12.7864952,28.8496304,14.0103741,28.964592z"/>
	<path class="st66" d="M14.0103741,28.964592c-1.5902138,0.5403423-4.0065527,1.2143135-5.3993826,0.7927284
		C9.5316076,29.5601959,15.2833519,27.9912834,14.0103741,28.964592z"/>
	<path class="st68" d="M12.8955231,34.9950905c0.4619713,0.447216-0.1575499,1.0474472-0.2240038,1.595768
		C12.4930201,36.1294098,12.6337557,35.1770401,12.8955231,34.9950905z"/>
	<path class="st66" d="M15.1211634,28.3272514c-0.067235,0.1306381-0.1865788,0.1566277-0.3180103,0.158411
		C14.7267542,28.2949848,14.9805183,28.1588421,15.1211634,28.3272514z"/>
	<path class="st66" d="M14.803153,28.4856625c-0.0661316,0.1318722-0.1904335,0.1553097-0.3174162,0.1588039
		C14.4836178,28.3769817,14.6202602,28.3828297,14.803153,28.4856625z"/>
	<path class="st67" d="M14.1655197,28.9602337c0.0538263-0.0519466,0.1076536-0.1039238,0.1614809-0.1558685
		C14.2731733,28.8563423,14.219346,28.908287,14.1655197,28.9602337z"/>
	<path class="st69" d="M32.907959,13.237071c1.318119,0.8291473-1.7745094,0.1328535-1.9657459-0.5413427
		C31.3391628,12.0746279,32.2717018,13.2704782,32.907959,13.237071z"/>
	<path class="st70" d="M29.5740681,11.8085365c0.3573418-0.3861418,0.7856083,0.5060034,1.2686214,0.4770441
		C30.7323856,12.8892441,29.6495609,12.3301983,29.5740681,11.8085365z"/>
	<path class="st70" d="M31.154211,12.451458c-0.0849438,0.1434498-0.3837948,0.2838154-0.3123512-0.0054808
		C30.941473,12.4353733,31.0510941,12.4526014,31.154211,12.451458z"/>
	<path class="st71" d="M33.5424232,31.1850147c-0.8550797-0.5745907-1.4181824-2.7550564-1.8677959-2.683733
		c-0.0491676,0.6520271-1.0136356,0.4664326-0.9770012-0.1684666c-0.0425549-0.3127747,0.0262032-0.6397018-0.4668293-0.6019554
		c-0.5158482-0.3436165-0.5955009-1.1812954-1.3196526-1.3853722c-0.4705029-0.5978279,0.8266544-3.6413326,1.9324417-2.9423771
		c0.5497398,0.1848412,2.4436722,2.8479671,2.3380127,3.4018536C31.1014175,27.4406776,34.3221169,29.9232311,33.5424232,31.1850147
		z"/>
	<path class="st72" d="M30.2058277,22.1344471c-0.3718166-0.8716755-0.9787045-1.7556782-1.27561-2.5741577
		c1.1186314,0.3811932,1.6630001,2.5285282,2.9355373,3.2712536c0.4520512,1.1160812-0.9812298-0.0322819-1.1209183-0.3345699
		C30.7995758,23.2317257,30.2926655,22.4334316,30.2058277,22.1344471z"/>
	<path class="st73" d="M30.5277023,22.767395c1.1529522,0.1956787,1.5761299,2.0787296,2.4118652,2.9143791
		C32.9677544,27.1465397,30.9581718,23.3852119,30.5277023,22.767395z"/>
	<path class="st1" d="M29.0957661,22.9269619c0.4123001-0.6768913,0.3280182,0.4174862,0.2218475,0.8066216
		C29.2436752,23.4647045,29.1697369,23.1958332,29.0957661,22.9269619z"/>
	<path class="st74" d="M19.0904408,5.6170521c0.7087631,0.1011896,1.4023685-0.5521607,2.0649166-0.1588259
		c0.6904602,0.4537425,2.7565002,0.9354801,0.6611519,1.4020209c0.4298801,0.6078286,2.0040321,1.1168261,1.2863503,2.0451636
		c-1.2416592,0.0680914-2.7747517-1.3810573-3.5591049-2.3258181C19.1293392,7.6010466,18.0847054,6.1413388,19.0904408,5.6170521z"
		/>
	<path class="st26" d="M22.5838604,6.2526755c0.0740204-0.4037614-1.0043716-0.2252703-0.0719433-0.5243206
		C23.2157593,5.218534,23.1326694,6.6326756,22.5838604,6.2526755z"/>
	<path class="st75" d="M39.5771484,16.5746231c-2.6187744,0.8144741-2.0370598,1.2935371-1.2700615,3.4934273
		c-0.3335075,1.605545-4.2835617-1.8166065-1.7078552-2.2944012c0.245182-4.8667212,5.8082695-2.6139431,1.9261017-4.1449623
		c-0.01548-1.3209763,1.3333893-0.9377804,2.0054207-0.3873873C41.1837845,14.6177635,39.3098793,15.315732,39.5771484,16.5746231z"
		/>
	<path class="st76" d="M36.717804,14.0342093c2.3361626,0.2543812-1.335289,0.4593983-1.9624825,1.0495825
		c-1.1014366,0.7206459-0.1135025,1.1281433-0.1194725,2.0136147c-1.1561356-0.0401649-3.0061951-1.0666733-2.475029-2.424612
		C33.1988373,13.062521,35.2653809,14.2564688,36.717804,14.0342093z"/>
	<path class="st77" d="M39.1017838,14.3542995c-1.1290703,0.8166523-2.4531708,1.9258404-2.3824577,3.4901123
		C33.4925957,17.1920929,36.7571869,13.3577795,39.1017838,14.3542995z"/>
	<path class="st78" d="M34.4965172,13.7141523c-0.7102165-1.8028173,2.4154015-2.6421595,3.6510391-2.2224855
		C33.7600594,13.3748322,37.7231216,14.8280678,34.4965172,13.7141523z"/>
	<path class="st79" d="M34.4965172,13.7141523c2.5131912,0.4029398,2.1770744,0.6458149-0.1609154,0.3191395
		C33.1157684,13.951231,33.5231552,13.3672209,34.4965172,13.7141523z"/>
	<path class="st79" d="M38.7787857,14.3495111c-0.6517944-0.1405163-1.3223343,0.2810049-1.8998451,0.0005093
		C37.4061432,14.0769005,38.2304878,14.0921841,38.7787857,14.3495111z"/>
	<path class="st20" d="M39.8947601,12.9220333c-0.1306-0.0027742-0.2489929-0.0302162-0.3179092-0.1575193
		C39.7079163,12.7664299,39.8263054,12.7938385,39.8947601,12.9220333z"/>
	<path class="st20" d="M40.2131348,13.0804768c-0.0534325-0.0524731-0.1068954-0.1049461-0.1603546-0.1573868
		C40.1062393,12.975563,40.1597023,13.0280037,40.2131348,13.0804768z"/>
	<path class="st80" d="M13.8501511,9.1104383c0.9345331-0.4603863,1.379694-1.288837,2.333025-1.6498222
		c0.5202427-0.0086832,0.799715-0.5636649,1.0003948-1.0493317c1.4666443,0.8897042,1.7663097,1.6316805,0.7323208,2.9826336
		C17.1567211,10.7068691,14.514514,9.9060049,13.8501511,9.1104383z"/>
	<path class="st81" d="M17.8191948,9.2692451c1.0857468-2.0352588,0.5533543-1.0835571-0.6358852-2.8580346
		c-0.5978298-2.2035246,1.4705753,0.3205585,2.0755844,0.8748045c1.1920795,0.6994028,0.2668343,1.6598992-0.7619019,1.6182742
		c0.8816185-0.6619711,5.0777473,1.244338,3.1081924,1.9613714C20.7869186,8.8277197,18.0928001,11.4032202,17.8191948,9.2692451z"
		/>
	<path class="st82" d="M10.1982517,8.4744186c0.2628946-0.1322565,0.0618181-0.4970264,0.3172169-0.6330476
		c-0.0498676,0.9943643,1.8393965,0.1088271,1.4293242,0.9521747c-0.4992695,0.3166285-0.6583071,1.013113-1.313612,1.1644573
		c0.1640329,0.7498102,0.2126675,1.4572134-0.9344454,1.4332666C7.734107,11.8042231,8.9499197,9.098587,9.9759684,8.7911825
		C8.9491434,9.217514,9.2795286,8.202632,10.1982517,8.4744186z"/>
	<path class="st83" d="M10.3556051,11.174366c0.8747187-0.7412605-0.8482037-1.2270775,0.4296761-1.4917707
		c0.6457777-0.1154175,0.4047394-1.0947104,1.1593161-0.8889313c2.3605156,0.1867905,2.2955084,1.2520065-0.0026979,0.666461
		c-0.0932617-0.0494757-0.1557779,0.0196743-0.050931,0.0049791c0.1048479-0.0146627,0.0457373,0.1238022,0.0430956,0.0212336
		c0.5099287,0.2543535-0.0994997,0.687458,0.3078508,0.9749975C13.261384,11.2580919,10.7815628,11.5641832,10.3556051,11.174366z"
		/>
	<path class="st84" d="M18.1375675,6.2527084c-0.8087044-0.3093367-1.279768-1.2789564-2.2209883-1.2717853
		C14.955514,4.1149058,18.5916405,5.2111459,18.1375675,6.2527084z"/>
	<path class="st69" d="M33.8547859,13.5599356c-0.0953789,0.155714-0.3383026,0.2119923-0.4956627,0.1738005
		C33.2355499,13.4454689,33.6952629,13.5913181,33.8547859,13.5599356z"/>
	<path class="st85" d="M10.8320255,16.8917408c-0.0552444-0.5010014,0.5-0.7924423,0.6338625-1.269207
		c0.0932016-0.3425713-0.5329447-0.5025673-0.2282104-0.8997326c2.4683266-0.2611084,5.0703917-0.7848625,7.6419878-1.0605688
		c2.6567326,0.9193068-2.163868,1.5206709-2.9986258,1.5960884C13.9675131,15.3366232,12.1222897,15.390708,10.8320255,16.8917408z"
		/>
	<path class="st86" d="M9.2451172,17.6859074c2.6867237,0.3544827-1.3247771,1.1653252-1.980001,0.4637814
		C7.5259228,17.4243832,8.6361217,17.7652683,9.2451172,17.6859074z"/>
	<path class="st87" d="M11.1486158,14.8349466c1.521122,1.1498737-0.8402033,0.5359259-1.5424662,0.6280594
		C7.4686556,14.9686708,10.2895393,14.1025429,11.1486158,14.8349466z"/>
	<path class="st88" d="M8.9398499,14.8209124c-0.4180565,0.0197926-2.5900311,0.0267258-1.8333883-0.4667234
		C8.3089085,14.0364628,12.8480501,14.5249081,8.9398499,14.8209124z"/>
	<path class="st56" d="M29.2509403,11.1803761c-0.0524731-0.0539265-0.1049423-0.1078529-0.1574211-0.161746
		C29.145998,11.0725565,29.1984673,11.126483,29.2509403,11.1803761z"/>
	<path class="st89" d="M11.3093376,16.4166737c1.4822693-2.1287527,4.7610569,0.4787426,5.4606781,2.0830002
		c-0.3140926,1.1750717-5.0417738,0.8538055-5.0711298,0.0055962c0.1446619-0.3824043,0.0823479-0.7773571,0.0819521-1.166069
		C12.0659256,16.5881805,10.80723,16.9685402,11.3093376,16.4166737z"/>
	<path class="st90" d="M15.2790489,19.2740078c1.457716-0.6196861,4.6830769-4.3631392,5.0265312-0.810545
		c-0.9570332,1.473299-1.8278637,3.1126671-3.8478508,3.5020809c-0.7446709-0.1044197-0.3281937-0.8083496,0.0022717-1.072958
		c0.194809-0.2471714,0.7552395-0.40205,0.5197525-0.7450237c-0.7668591-0.3954964-1.6005821,1.0091496-2.4946995,0.7148781
		C14.8214989,20.3817387,15.2974358,19.9142666,15.2790489,19.2740078z"/>
	<path class="st85" d="M10.8335772,16.8930283c-0.0446796,0.2722416-0.1268406,0.5223236-0.483223,0.789114
		C10.4651604,17.2748013,10.548049,17.0171146,10.8335772,16.8930283z"/>
	<path class="st91" d="M26.2397537,12.4480238c1.0037842,0.0548925-0.6318665,3.2448664-1.318922,3.3189564
		c0.7725201-3.018856,0.7495422-2.0580025-2.1396637-1.6529942c-1.510128,0.2520943-2.9830666,0.4392872-3.6584072,2.0236845
		c-0.414629,1.1443195-1.5716228,0.2896214-0.6635876-0.5022478C20.1254196,13.1733761,23.6027203,13.1851034,26.2397537,12.4480238
		z"/>
	<path class="st92" d="M23.0618343,8.1569376c-2.5606041-2.9662509,2.803833,0.7269793,3.4457302,1.457612
		c0.6874809,0.911644,0.4023705,1.7879887-0.8715115,1.3020315C25.1980419,9.6673765,23.822094,9.1808119,23.0618343,8.1569376z"/>
	<path class="st93" d="M26.3960171,11.9672108c-2.1532459,1.6217184-6.4646244,1.9268456-8.5844326,0.2964678
		c2.4093323-0.4137239,5.1433029,1.0276556,7.547226-0.3326254C23.2149448,10.3942833,27.9259243,10.5658703,26.3960171,11.9672108z
		"/>
	<path class="st94" d="M27.5088863,12.6061039c0.2755241-0.7408028,0.9777355-1.597414,1.2396812-0.3241177
		c-0.0342388,0.3675327,0.564333,0.705781,0.1504593,1.0172367c-1.0488834-0.305274-1.0415287-0.3617878-1.0370502,0.8993349
		C27.5666466,16.1741199,27.1846561,13.3509102,27.5088863,12.6061039z"/>
	<path class="st95" d="M30.8418808,12.4460087c0.4758148,0.4568863-0.2011013,0.7704983-0.5577297,0.510541
		c-0.5636654-0.3526764-0.7861309,0.3188562-1.2252464,0.2872896C28.517889,10.0302906,28.8304291,11.8691587,30.8418808,12.4460087
		z"/>
	<path class="st96" d="M26.3960171,11.9672108c0.7070103-1.6640463-4.1561813-0.6994572-4.1426277-2.877224
		c1.1382942,0.3254328,2.22188,1.1231642,3.3487282,1.6092043C26.5031452,10.9233217,27.8197441,11.0432692,26.3960171,11.9672108z"
		/>
	<path class="st97" d="M20.8380108,13.0832834c1.8343735,0.2413864,3.7940407-0.5547695,5.4016666-0.6357145
		C24.7010059,13.0464821,22.2415924,14.0105553,20.8380108,13.0832834z"/>
	<path class="st98" d="M26.3927803,13.5591097c0.7985725-1.0682735,0.7834148,0.313961,0.8799858,1.0430164
		C26.6215115,14.7049294,25.8809814,14.0562725,26.3927803,13.5591097z"/>
	<path class="st99" d="M26.8724365,10.8571482c-0.0059433-0.1757145,0.015789-0.3676434-0.1714211-0.4703436
		C25.3002129,8.419549,28.9214401,10.6691217,26.8724365,10.8571482z"/>
	<path class="st100" d="M27.1885319,14.6710548c0.1855583-1.737462,0.3385677-2.7402115,0.3212414-0.2615986
		C28.587368,16.5633011,27.1228523,16.9759197,27.1885319,14.6710548z"/>
	<path class="st101" d="M27.0342827,9.9017315c-0.6785297-0.2937651-1.2818336-0.7203331-1.9071598-1.109807
		C25.2089767,8.3831577,27.803915,9.7656813,27.0342827,9.9017315z"/>
	<path class="st101" d="M27.6515121,9.8053055c0.0544662,0.1838026-0.0709038,0.0112982-0.1427879-0.0413074
		C27.5603695,9.7639933,27.607954,9.7777309,27.6515121,9.8053055z"/>
	<path class="st101" d="M27.349556,10.060935c-0.0551205-0.0510206-0.1102352-0.1020079-0.1654167-0.1529951
		C27.2392216,9.9589605,27.2943707,10.0099478,27.349556,10.060935z"/>
	<path class="st102" d="M35.7649574,18.4803371c1.3857651,2.9136086,3.2964401,0.9284649,2.8586082,2.5413036
		c-0.2941551,0.5293579-0.14674,0.9862289,0.1701813,1.463707c0.5980301,0.8625565,1.6362686,4.0223751-0.1301117,3.5235596
		c-0.4295731-1.2940216-0.9719658-2.6018906-1.6526947-3.7259293
		C36.1999092,21.0605736,31.9825401,18.5295372,35.7649574,18.4803371z"/>
	<path class="st103" d="M39.5771484,16.5746231c-1.1465454-0.3970356,1.3919868-2.2426567,0.953125-3.3333206
		c0.8481216,0.646245,2.6468658,1.3966808,0.8773003,2.1731806C40.7252884,16.203167,40.6343956,16.3435497,39.5771484,16.5746231z"
		/>
	<path class="st75" d="M39.5771484,16.5746231c0.1143227-0.1874046,0.3022614-0.1533585,0.4771767-0.1584778
		C39.9396706,16.602726,39.7520676,16.5695705,39.5771484,16.5746231z"/>
	<path class="st41" d="M39.5771484,25.9443226c0.0607033-1.4886112-1.7728691-4.0620213-0.9544601-4.9224739
		C38.3152199,22.597908,41.2744141,24.6135159,39.5771484,25.9443226z"/>
	<path class="st41" d="M39.1006927,26.1027679c0.0684891-0.1282291,0.1871071-0.1554718,0.3180122-0.1580486
		C39.3501472,26.0727501,39.2316284,26.1001911,39.1006927,26.1027679z"/>
	<path class="st104" d="M14.4850111,20.8624725c0.6126795-0.2071724,3.4471445-1.9842453,2.6614389-0.3474445
		c-0.3076687,0.4072628-1.1371326,0.6909676-0.9150028,1.3002377c-0.3421631,0.6730309-1.3714046,0.4551582-2.0112038,0.7077122
		c0.1645441,0.0855465,4.3625145-1.3702602,2.2777786,0.1078987c-2.1317329,1.3583107-4.6442289,2.1184196-6.2380314,4.1609344
		c-0.29321,0.393465-0.8372526,1.1482182-1.1742096,0.4229183c0.0843077-0.6812859,1.0083237-0.9774628,0.7933245-1.7469368
		C10.9409161,23.6428375,13.2538452,22.6891956,14.4850111,20.8624725z"/>
	<path class="st34" d="M10.3563643,24.6746292c0.0157518,0.3695583-0.3646708,0.5007915-0.4771795,0.7931747
		C9.5347099,25.2020206,10.1307898,24.8162498,10.3563643,24.6746292z"/>
	<path class="st34" d="M9.8804064,25.6271057c0.2995176,0.3002777,0.1021395,0.4751663-0.1599627,0.633709
		C9.5109797,25.9832249,9.7979813,25.8309898,9.8804064,25.6271057z"/>
	<path class="st34" d="M11.4675169,23.7221832c-0.0525064,0.052309-0.1050453,0.1046505-0.1575518,0.1569576
		C11.362504,23.8268013,11.4150105,23.7744923,11.4675169,23.7221832z"/>
	<path class="st34" d="M10.6738129,24.3577747c-0.0526047,0.0524063-0.1051779,0.1047821-0.1577501,0.1571884
		C10.568635,24.4625568,10.6212406,24.410181,10.6738129,24.3577747z"/>
	<path class="st34" d="M10.5150728,24.5159531c-0.052639,0.0526066-0.1053104,0.1052113-0.1579485,0.1578178
		C10.4097624,24.6211643,10.4624338,24.5685596,10.5150728,24.5159531z"/>
	<path class="st34" d="M9.719985,26.2620029c-0.0525761,0.0525723-0.1051483,0.1051445-0.1577206,0.1576843
		C9.6148701,26.367115,9.6674089,26.3145752,9.719985,26.2620029z"/>
	<path class="st34" d="M9.5612411,26.4207115c-0.0526018,0.0526371-0.1052113,0.1053085-0.1578159,0.1579475
		C9.4560299,26.5260201,9.5086393,26.4733486,9.5612411,26.4207115z"/>
	<path class="st105" d="M14.0106716,28.6455917c-1.2276478,0.6202793-4.8271627,1.353199-5.1645403,0.9102726
		c0.602808-0.3501625-0.2457285-0.4740772,0.0812559-0.9120922C10.3372622,28.1950493,13.1791201,26.8480053,14.0106716,28.6455917z
		"/>
	<path class="st106" d="M7.0255828,14.5051479c-0.5914335,0.5192652-3.1933129-0.4528637-1.1836872-0.4665022
		C6.1561069,14.2294416,7.0868249,13.9747801,7.0255828,14.5051479z"/>
	<path class="st44" d="M17.6615772,4.5051732c-0.0210705-0.1449337,0.0147686-0.1797633,0.1593037-0.157516
		C17.767746,4.4001608,17.7146435,4.4526668,17.6615772,4.5051732z"/>
	<path class="st107" d="M25.288002,8.6265879c-0.771513,0.287077-1.6805592-1.2618442-2.3133125-1.7364683
		C23.5747776,6.7531452,24.5174179,8.2786121,25.288002,8.6265879z"/>
	<path class="st107" d="M22.7412472,6.2516851c0.2386799-0.0519476,0.3006496,0.2857032,0.3198299,0.4764428
		C22.8065929,6.9069171,22.5255299,6.4734421,22.7412472,6.2516851z"/>
	<path class="st108" d="M35.1304893,32.7731171c-2.3503227-1.5565453-2.6441307-8.1042919,0.3224068-2.3154945
		c0.868866,2.19524,1.8227234,0.5400124,2.9895248,1.0740528C38.6110649,35.4697609,37.467804,34.1738014,35.1304893,32.7731171z"/>
	<path class="st109" d="M38.3074532,33.4076805c-0.3355637-1.8330212,0.5229378-3.5212021-0.0582314-5.2324505
		c-0.3276253-2.0875149-2.1461296-3.3885212-2.5472031-5.2424469c0.1140022-2.4343491,3.4441338,2.0066814,3.0805855,3.1702461
		c-0.5537376,1.3530293,0.6502037,3.1985493,0.1600571,4.604105C38.1388283,31.2368279,39.1278687,32.6204376,38.3074532,33.4076805
		z"/>
	<path class="st110" d="M35.2892952,30.5497875c-1.4771118-2.8825722-2.5251503-3.2643299-1.2854767,0.3334961
		c1.656765,3.5679798-0.7911987-0.1998405-1.1021614-1.5267277c-0.689743-1.1592941-1.2086258-3.7474308,0.8153-2.3179169
		C34.3838654,27.6066284,37.6785088,32.6244736,35.2892952,30.5497875z"/>
	<path class="st110" d="M34.6548309,32.4554672c0.0526695,0.0526733,0.1053772,0.1053123,0.1580467,0.1579514
		C34.7602081,32.5607796,34.7075005,32.5081406,34.6548309,32.4554672z"/>
	<path class="st110" d="M34.8136368,32.6142769c0.0528679,0.0525055,0.1057434,0.1049767,0.1586075,0.157486
		C34.9193802,32.7192535,34.8665047,32.666748,34.8136368,32.6142769z"/>
	<path class="st110" d="M35.1304893,32.7731171c0.0529366,0.0529327,0.1058731,0.1058693,0.1588058,0.1588058
		C35.2363625,32.878952,35.1834259,32.8260498,35.1304893,32.7731171z"/>
	<path class="st111" d="M5.9080901,14.1944027c-0.4004459-0.180953-1.233017,0.460948-1.1096287-0.1601496
		c1.7390146,0.1209717,0.5630474-3.2537909,2.2217083-1.5883999C8.9351206,13.1695509,7.4722185,14.811779,5.9080901,14.1944027z"/>
	<path class="st112" d="M11.7856588,28.0084496c-6.2770143,2.4709072-0.4851828-3.432127,1.9054832-3.8109112
		C13.8454161,25.491724,12.6927881,27.0376968,11.7856588,28.0084496z"/>
	<path class="st112" d="M9.0857449,27.2148113c-0.0121193,0.0220585-0.028697,0.0644608-0.0355988,0.0629406
		C8.9964895,27.2659092,9.0108824,27.241436,9.0857449,27.2148113z"/>
	<path class="st113" d="M18.1412659,6.0866699c-0.5382042-0.692215-1.3641739-0.9832087-2.0676289-1.4219055
		C17.363802,3.9723074,20.7292633,6.6210084,18.1412659,6.0866699z"/>
	<path class="st114" d="M5.9080901,14.1944027c1.4501681,0.1632185,2.6470704-0.5936928,1.1120739-1.7486162
		c0.076087-0.4604702,0.77737-0.5355597,0.6367769-1.1126652c2.5319877-1.6184225,3.7738061,3.1038351,0.4612317,1.4683905
		C10.1725597,13.977911,6.9740038,14.9210529,5.9080901,14.1944027z"/>
	<path class="st115" d="M8.6098528,11.1747618c-1.1592731,0.2503872-0.8915143,0.045742-1.7396746-0.5271521
		c-0.0907807-0.004879,0.1348643-0.1414938,0.1609521-0.2493467c0.6799731-0.0684566,0.7066226-0.1048803,0.4812417-0.6575832
		c0.7042122-0.1987982,0.8824692-0.4855022,0.7000513-1.1960211c0.7608156-0.3009233,1.1853342,0.2503786,1.8953352,0.3287277
		C9.0477896,9.2784338,9.1036434,10.3659525,8.6098528,11.1747618z"/>
	<path class="st102" d="M38.6250648,26.2623329c0.0526733-0.0530663,0.1053429-0.1061344,0.1580162-0.1592026
		C38.7304077,26.1562309,38.6777382,26.2092991,38.6250648,26.2623329z"/>
	<path class="st58" d="M32.1049042,4.6526203c-1.20578,0.2212486,0.9589157-1.3414371,1.3263245-1.1558375
		C33.2033157,3.9823976,32.5101204,4.2782087,32.1049042,4.6526203z"/>
	<path class="st116" d="M13.6909809,34.8372421c-1.0458803-0.1048203,3.1112328-8.389677,4.3466225-7.6499844
		C20.1388493,30.6220074,14.5071421,31.8509636,13.6909809,34.8372421z"/>
	<path class="st117" d="M18.4532337,25.1480446c0.2096958-0.4010201,0.8000755-1.3401508,1.1530685-0.7218819
		c2.0581608,0.5132408,0.6621761,4.1632442-0.6747761,4.6945972C18.1279526,28.2689495,17.6663342,26.1567707,18.4532337,25.1480446
		z"/>
	<path class="st118" d="M23.6962681,24.8322792c-2.9889793-2.272974-1.3563652-2.3412457-4.0520382-1.2468243
		C22.8898277,19.0919838,23.9780197,18.9181557,23.6962681,24.8322792z"/>
	<path class="st119" d="M23.6962681,24.8322792c-0.2488003-0.8594151,0.137764-5.2105141-1.1551838-4.3197365
		c-0.5933552,0.4684277-3.1453896,3.9533043-2.4737377,2.2051945c0.8138142-0.8172913,4.078434-6.3674965,3.5199642-2.4830017
		c0.6667309-2.1564388,0.200201,2.0168419,0.2665443,2.5333042C23.6863594,23.392067,24.3142529,26.1687794,23.6962681,24.8322792z"
		/>
	<path class="st120" d="M18.4532337,25.1480446c-0.8476486,2.4261055,0.8679104,4.7734413,1.67313,7.0095596
		C19.0510445,30.1854458,16.8550816,27.0618057,18.4532337,25.1480446z"/>
	<path class="st119" d="M19.725668,23.5629807c0.05933,0.2843189-0.2199593,0.6136036-0.4783592,0.6322098
		C19.2112408,23.8244343,19.2700939,23.488306,19.725668,23.5629807z"/>
	<path class="st65" d="M23.8543148,22.7682209c-1.5237179-4.2524395,4.0148373-9.5040054,4.6057243-2.8580723
		c-0.6786995-0.037199-0.6646862-1.1252136-1.4426823-0.5915813C25.6051292,20.138464,23.8834724,20.9720497,23.8543148,22.7682209z
		"/>
	<path class="st121" d="M28.4597836,19.9099941c-0.529232-1.0309658-0.8172989-4.2354565-2.5759563-2.630167
		c-1.2236137,0.4133739-1.4836464,1.6006413-2.1813374,2.3126106c-0.3017979-1.8831062,1.1723518-3.1061382,1.9293442-4.6151104
		c0.8093338-2.0163794,1.8679924,0.0873861,2.0352173,1.2790451c0.3934479,0.4068184,0.5555248,0.9261341,0.6337223,1.4591236
		c0.1038055,0.7284317,1.2971592,0.9331989,0.7972393,1.8765583C28.4668961,19.5814285,28.9676208,21.1778507,28.4597836,19.9099941
		z"/>
	<path class="st65" d="M28.461298,20.0677128c0.0522423,0.0532322,0.1044521,0.1064644,0.1566925,0.1596985
		C28.5657501,20.1741772,28.5135403,20.120945,28.461298,20.0677128z"/>
	<path class="st65" d="M28.779705,19.9099941c-0.102438-0.208704-0.2186451-0.4149647-0.1213608-0.6654091
		C28.9137688,19.3988857,29.3075123,20.0589085,28.779705,19.9099941z"/>
	<path class="st122" d="M17.8207474,26.5791874c-1.2023468,2.0814342-3.4040537,5.5055485-4.525526,8.2586498
		C13.5649137,32.8483925,16.298151,27.1824417,17.8207474,26.5791874z"/>
	<path class="st122" d="M13.0582266,35.1547546c0.0003672-0.1310997,0.028532-0.2484627,0.1562977-0.3166237
		C13.213335,34.9688034,13.185071,35.086132,13.0582266,35.1547546z"/>
	<path class="st123" d="M11.7856588,28.0084496c1.1567469-1.4446392,1.4551573-3.6455059,2.8797312-4.6819134
		c2.2433605-1.1374054,0.9736853-0.5496769,2.8951244-0.2826557c2.3558273-0.9229164,2.1562405,0.7022648,0.581707,1.7908478
		c-0.154808,0.1271324-0.2041454,0.4563046-0.5218525,0.2735233C15.9669933,22.3085651,14.9210787,29.3187752,11.7856588,28.0084496
		z"/>
	<path class="st122" d="M17.6615772,25.1502895c1.0922966-0.5487652-3.048048,5.2752972-4.2874384,2.8584938
		c0.229229-0.2556019,0.601429-0.3331394,0.793622-0.635561C15.8248978,28.4810944,16.4381924,25.6099491,17.6615772,25.1502895z"/>
	<path class="st124" d="M19.0892868,23.8783817c0.469265-0.7347469,1.4944439-3.0956001,2.3805027-2.7015209
		C20.747942,21.9633961,19.9096889,23.8284359,19.0892868,23.8783817z"/>
	<path class="st120" d="M17.8185349,26.4220982c-0.5657139,0.543787-0.8703365,0.4170818-0.2647114-0.1820965
		C17.7543373,26.0452404,17.7821426,26.2793732,17.8185349,26.4220982z"/>
	<path class="st119" d="M19.2479935,24.1957321c-0.0527668,0.053133-0.1055412,0.1062336-0.1583118,0.1593666
		C19.1424522,24.3019657,19.1952267,24.2488651,19.2479935,24.1957321z"/>
	<path class="st119" d="M19.0896492,24.3550987c-0.052309,0.0531998-0.1045837,0.1064014-0.1568584,0.1595669
		C18.9850979,24.4615002,19.0373783,24.4082985,19.0896492,24.3550987z"/>
	<path class="st79" d="M29.2511044,13.2461195c-0.4499664-1.712225,6.5955372,1.01334,3.0964146,0.7360439
		c-0.5081215,0.0718527-2.6050816-1.0404167-1.9037628,0.1073561C31.1321087,15.496644,28.6637421,13.9492683,29.2511044,13.2461195
		z"/>
	<path class="st125" d="M36.0802917,31.1848164c-0.3820229-1.9831028-2.4197617-3.3113613-3.1715736-5.0874882
		C33.7879219,25.8672066,37.7835617,32.4047127,36.0802917,31.1848164z"/>
	<path class="st109" d="M33.067852,26.097681c-0.4723511-0.4816818-3.3908443-4.5646095-1.8179207-3.3172817
		c1.647747,1.4710617-1.1433411-1.6329956,1.2855949-1.4188728c1.5916481,1.3201408-0.3702507,0.088583,0.4601822-0.7778225
		c1.433857-0.3129997,2.8737068,1.7973213,2.9297295,3.1356201c-0.4972076,0.23493-0.8714256-0.0432339-1.1899338-0.3576164
		c-0.3814964-0.684576-1.561161-0.0743465-1.1770401,0.6587238c0.1173592,0.4842072-0.4594994,0.4023743-0.6167488,0.1350842
		C34.2867584,25.1727886,33.3331833,24.757349,33.067852,26.097681z"/>
	<path class="st126" d="M35.1248093,21.8153133c-1.5198326-0.9433632-2.8261375-2.3876133-1.6917419,0.7487431
		c-0.7418938-1.4406586-2.216486-1.4273872-1.6383762,0.3643913c-3.8931389-2.3688736-0.5384426-5.3257885,0.7783909-2.3987579
		C31.5225334,17.9214077,35.2377892,20.8143559,35.1248093,21.8153133z"/>
	<path class="st127" d="M34.8085823,21.1812744c-0.9629745-0.3917446-2.8075867-3.1986103-2.1091652-0.3163109
		c-0.5493584-1.525095-2.3206139-2.0080395-2.8110485-0.0016022c-2.2902565-2.885088,0.7144547-4.4642754,1.9903126-2.054388
		C31.0124912,16.4840889,35.1582947,20.421751,34.8085823,21.1812744z"/>
	<path class="st128" d="M31.6367073,18.4803371c-0.6942825-0.2555008-1.1599541-1.0102482-1.9778652-0.5067368
		c-0.9635677,0.1387558-0.0721226,1.3881283-0.5606194,1.6185493
		C26.8443813,15.0643959,30.2516136,14.6625137,31.6367073,18.4803371z"/>
	<path class="st129" d="M25.6019878,10.6994972c-2.3133125,0.0399857-8.5984344-5.7489152-3.1609821-2.0090656
		c0.456461,0.4328604,0.8566532-0.0312548,0.6206779-0.5335274C23.8819065,8.8559666,25.5406609,9.617115,25.6019878,10.6994972z"/>
	<path class="st130" d="M20.2032776,7.2044597c0.3636608,0.2967324,0.0751591,0.6790767,0.4054718,0.8024077
		c1.0753536,0.6915741-0.425848,1.0925245-1.0447102,0.6213245c0.1287384-0.8381052,0.1138783-0.8162112-0.5922813-1.2953396
		c-0.4128914-0.1848688-0.7192783-0.598176-0.5156765-1.0820494c0.3364773,0.0858383,0.5347404,0.5544686,0.9523544,0.6356964
		C19.4002132,6.128572,19.900526,6.8720689,20.2032776,7.2044597z"/>
	<path class="st7" d="M22.7412472,6.2516851c1.3282585,1.8744974-2.669735,0.6903315-0.7052898,0.4213266
		C22.5295334,6.7878618,22.3978386,6.217864,22.7412472,6.2516851z"/>
	<path class="st7" d="M22.1082001,5.9344678c0.1742287,0.006043,0.3624592-0.0296545,0.4749012,0.1598964
		C22.409071,6.0876603,22.221468,6.1214757,22.1082001,5.9344678z"/>
	<path class="st129" d="M19.4094753,6.7278743c0.0836182,0.0449772,0.1583767,0.094511,0.1077862,0.2087703
		C19.3988686,6.9119401,19.3988914,6.8333688,19.4094753,6.7278743z"/>
	<path class="st129" d="M19.5669937,6.568737c-0.0525723,0.0006275-0.1051769,0.0011559-0.1577492,0.0015521
		C19.4607601,6.4613471,19.5133324,6.46029,19.5669937,6.568737z"/>
	<path class="st129" d="M20.2027531,7.2042618c-0.0526409-0.0528035-0.1053123-0.1056404-0.1579838-0.1584768
		C20.0974407,7.0986214,20.1501122,7.1514583,20.2027531,7.2042618z"/>
	<path class="st131" d="M35.7649574,18.4803371c-4.4827423,0.041914,3.8088036,4.6787643,0.6659088,3.4684582
		C28.4909801,16.3695202,37.6713219,17.1969738,35.7649574,18.4803371z"/>
	<path class="st127" d="M36.2421379,18.0059319c-0.8783722,0.1028061-3.1274757-0.9014435-2.9388657,0.6481667
		c0.2335205,1.1123924-1.5610161-0.7994022-1.6742764-1.4007034C31.1578598,15.3385878,38.7698593,18.5558701,36.2421379,18.0059319
		z"/>
	<path class="st77" d="M36.8783875,18.0022335c-0.0530014-0.0525074-0.1060333-0.1050129-0.1590347-0.1575203
		C36.7723846,17.8972206,36.825386,17.9497261,36.8783875,18.0022335z"/>
	<path class="st132" d="M36.8789558,14.3497753c2.3030624-0.0710001-2.8522224,0.8239193-0.9525032,3.1753292
		C32.7539978,17.2013702,34.0372009,13.8435431,36.8789558,14.3497753z"/>
	<path class="st133" d="M30.5235081,14.6709881c-1.578537-2.2338009,0.6452885-1.0468054,1.9500103-0.8463631
		c0.670063,0.0760603,1.2932587-0.2306013,1.8621788,0.2087412c-1.5782509-0.1906767-2.7058105,0.8056622-1.5839653,2.2155256
		C31.9146957,16.044735,30.8161488,15.4150276,30.5235081,14.6709881z"/>
	<path class="st134" d="M30.6807632,14.8315783c1.3422089,1.1173983,2.9739113,1.7249346,4.4524307,2.5385866
		C33.7495384,17.0655193,30.6288204,16.2560806,30.6807632,14.8315783z"/>
	<path class="st135" d="M13.850544,9.4284487c0.9000034-0.5623322,3.044281,1.3524446,3.9685993-0.1595192
		c0.5840778,1.320261,2.2033882,0.2213144,3.3443432,0.6871233c0.3774815,0.0199146,0.5204372,0.3994789,0.4682941,0.9014921
		c0.1877823,1.0824404-1.6661034,0.1460457-2.2142258,0.9397469C17.3019791,11.7935228,15.4488134,10.6773472,13.850544,9.4284487z"
		/>
	<path class="st136" d="M19.4089794,11.6519747c0.6436844-1.0575857,2.0541286,0.0980225,2.2229786-0.7940588
		c1.2796478-1.200573-1.2156029-0.8910189-1.4301758-1.9039288c1.8589211-0.8552504,3.0813179,1.761632,4.920517,1.9078608
		c-0.2593346,0.4721174-0.2585411,0.4703007,0.1490269,0.6480961
		C28.1681824,13.7936316,11.0230255,12.0850163,19.4089794,11.6519747z"/>
	<path class="st137" d="M20.5254498,8.9472399c-0.8275604,0.0478344-1.6596699-0.1264782-2.4723225,0.1666212
		C18.4683151,8.3593674,23.1070499,8.4443979,20.5254498,8.9472399z"/>
	<path class="st84" d="M18.456007,6.2508593c0.0607147,0.2586784-0.2308197,0.1625562-0.318428,0.0014191
		C18.2430782,6.1527886,18.3534164,6.16886,18.456007,6.2508593z"/>
	<path class="st138" d="M9.0849562,13.0792551c1.429575-0.350996,0.6923809-0.6998529,0.636302-1.9038715
		C14.0837078,11.2892361,11.4793253,15.1392937,9.0849562,13.0792551z"/>
	<path class="st139" d="M19.4089794,11.6519747c-1.515543,1.7786036-10.9651279-2.8446531-5.558567-2.2235003
		C15.7139263,10.2714195,17.2678432,11.6052523,19.4089794,11.6519747z"/>
	<path class="st140" d="M12.4200935,11.0163517c-1.7186699-2.3758516,1.6059399-0.1574068,2.6240988,0.3481846
		c1.0861845,0.3501558-0.5931292,1.1479511-0.8656893,1.6566353c-0.300106,1.0580969-4.418642,1.1977329-2.9792948,0.3935194
		c0.727253,0.0221109,1.1432772-0.0589666,1.3426933-0.9012308C13.9135141,11.7579536,12.5232925,11.7787113,12.4200935,11.0163517z
		"/>
	<path class="st141" d="M12.4200935,11.0163517c0.1192455,0.2075157,0.2637863,0.4780712,0.5123167,0.4146013
		c0.6369352-0.213748,0.6279278,0.7855396,0.1881237,0.9626226c-0.2459154,0.1348972-0.8176289,0.2508411-0.5762005,0.6499872
		c0.4564705,0.6939373-0.692462,0.4740162-1.050787,0.5155954c-0.5397635-0.0484343-1.5337105,0.6918983-1.7799187-0.1563892
		C15.1414042,13.4215832,8.2023525,10.6724482,12.4200935,11.0163517z"/>
	<path class="st142" d="M12.4218435,9.9050341c-0.2790012,0.0527725-0.3855495-0.0683804-0.478096-0.3186741
		C12.1725912,9.5883121,12.3327522,9.6933575,12.4218435,9.9050341z"/>
	<path class="st139" d="M11.7829218,9.4276886c-0.0664988,0.0084877-0.2581196-0.0452003-0.1479244-0.1291046
		C11.8392105,9.1751633,12.0776663,9.5788002,11.7829218,9.4276886z"/>
	<path class="st142" d="M11.7829218,9.4276886c0.1432781-0.0192661,0.18326,0.0152349,0.1621361,0.1601629
		C11.8910351,9.5344515,11.8369761,9.4810543,11.7829218,9.4276886z"/>
	<path class="st130" d="M18.4566345,6.2516851c-0.1647396-0.0130177-0.3772068,0.0740647-0.3153687-0.1649632
		C18.270649,6.0953217,18.3888721,6.1252737,18.4566345,6.2516851z"/>
	<path class="st143" d="M17.3456478,17.8458042c-0.1296024,0.1815624-0.5890141,1.0959625-0.6366215,0.4757652
		c-0.1321716-0.5843716,1.0273228-1.2887001,0.1956959-1.6217728c-0.7888222-0.367527-1.6153641-0.354517-2.3273039-0.8517666
		c-0.8587389-0.2895975-1.8505297,0.0965128-2.6303301-0.2247734c2.1301146-0.3738651,5.0013199-1.056839,6.9840164-0.7973356
		C18.2838192,15.7783546,18.2420731,17.1014481,17.3456478,17.8458042z"/>
	<path class="st144" d="M11.9471407,15.6229048c1.0027952,0.1183147,2.3142681-0.2441502,3.1888666,0.1478376
		c0.1711731,0.4988155,0.4996881,0.397501,0.8609877,0.3374004c1.6069651,0.3349342,1.8637075,0.9515209,0.711688,2.2134914
		c-1.2358904-0.8256836-2.3703308-2.6463232-3.9693584-2.5411148
		C12.4717054,16.0501404,11.2146578,16.0800228,11.9471407,15.6229048z"/>
	<path class="st145" d="M18.9282341,13.8717365c-0.7724571,0.0757389-9.4777699,1.4263039-7.0883665,0.5689754
		c0.1023521-0.0141258,0.0287447-0.1596899,0.0066528-0.0561638c-0.2154131,0.1175709-0.0634413-0.3590117,0.1741905-0.316802
		C14.0881014,14.6981096,17.550972,12.683898,18.9282341,13.8717365z"/>
	<path class="st146" d="M18.9282341,13.8717365c0.0711613-0.4971075,0.7840862-0.4004478,1.085762-0.1237917
		c0.2259712,0.4721832-0.2407742,0.5411015-0.4454174,0.762949c-0.6745491,0.6152534-1.0669003,1.5372152-1.5892944,2.2226019
		C17.3126202,15.9661655,20.66506,13.8334522,18.9282341,13.8717365z"/>
	<path class="st147" d="M11.3106956,14.5168381c2.3225603,0.6380215-1.3872309,0.1956644-2.3709431,0.304285
		c0.4559278-0.4077377,1.1193943,0.0993147,1.5798759-0.3052092C10.7835808,14.2842913,11.0473013,14.2797337,11.3106956,14.5168381
		z"/>
	<path class="st143" d="M11.9447336,15.6240273c-0.0526094,0.0521765-0.1051817,0.104352-0.1577539,0.1565285
		C11.8395519,15.7283792,11.8921576,15.6762037,11.9447336,15.6240273z"/>
	<path class="st15" d="M11.3093748,16.4166737c-0.0513544,0.0528049-0.1027012,0.105608-0.1540232,0.1584454
		C11.2067356,16.5222816,11.2580204,16.4694786,11.3093748,16.4166737z"/>
	<path class="st148" d="M9.0849562,13.0792551c2.642602,1.5077763-1.6088262,1.760705-1.9879017,1.2739449
		c1.6143913,0.1759052,1.9589663-1.2601776,0.4076018-1.8594103C8.1837673,12.5879793,8.5504732,12.9697113,9.0849562,13.0792551z"
		/>
	<path class="st149" d="M9.3996267,14.5080538c0.3230448-0.225276,0.4977779-1.3027096,0.9616461-0.801815
		C13.1749554,14.6282282,10.879755,14.5530691,9.3996267,14.5080538z"/>
	<path class="st15" d="M12.5798578,15.9386358c0.0530348-0.0525389,0.1061029-0.1051111,0.1591702-0.1576509
		C12.6859608,15.8335247,12.6328926,15.886097,12.5798578,15.9386358z"/>
	<path class="st150" d="M18.7732239,20.6975574c0.3559608-0.5469074,0.1230354-1.4948788,0.8666496-1.6901779
		c0.9578266-0.3248138,0.3913536-2.0731258-0.5381603-1.8688507c-0.1702747,0.0470333-0.5723705,0.0864487-0.445055-0.1972771
		c1.7223206-1.43923,2.3789997,0.0029449,3.5861607-0.6024113C27.6758804,13.7859077,21.0917587,21.0851841,18.7732239,20.6975574z"
		/>
	<path class="st151" d="M16.5524712,21.9785461c-0.8757648,0.4416466-2.3305855,0.7609444-2.9494333,0.5603313
		C14.5471258,22.5033073,15.8130455,21.7171574,16.5524712,21.9785461z"/>
	<path class="st152" d="M16.5524712,21.9785461c-0.0968342-0.4352379,1.7000961-0.870018,2.2234974-1.2694626
		C19.2932377,21.4303379,17.1951351,21.9951992,16.5524712,21.9785461z"/>
	<path class="st150" d="M17.3456478,17.8458042c0.2401848-0.3155994,1.0771694-1.9281006,1.2695923-0.7956161
		C18.1881199,17.3091259,17.8727169,17.7465363,17.3456478,17.8458042z"/>
	<path class="st153" d="M18.6151772,17.0502834c-0.0862236-0.558382-0.4327602-0.0677624-0.6352272-0.15765
		c-0.0155697-0.5358086,0.6352501-0.1499805,0.8525944-0.6572628c0.8938522-2.0756254,3.7018013-3.0796814,5.1491737-1.1975851
		c1.0874348,0.9711218-1.0699234,0.8078318-1.4738445,1.333581c-0.7465172,1.2918873-1.5495071-0.6436958-2.3685741,0.234005
		C19.687849,16.854208,19.0622807,16.6460781,18.6151772,17.0502834z"/>
	<path class="st154" d="M24.1727219,15.7805891c0.0445194-0.8577662-0.9488659-0.6110859-1.1773643-1.2523527
		c-0.7233181-0.960393,2.1011467-1.1061687,2.8498096-1.1696672C25.9563084,13.786129,24.7680817,16.5400219,24.1727219,15.7805891z
		"/>
	<path class="st155" d="M18.9320354,20.8620758c2.1134338-1.4755497,5.293602-3.0688515,6.6731033-6.0323362
		c-0.0115376,1.4896574-1.9702377,2.9572535-1.9025898,4.7623758c-0.1154881,1.3940296-0.1834984-0.1076088-0.1454182-0.8401909
		c-0.9448471,0.5858574-1.5352097,2.3156414-2.2420387,2.2700672c0.1615047-0.8473206,0.9578495-1.4956398,1.4232273-2.0313892
		C21.5119305,19.5646496,20.3013477,20.7577,18.9320354,20.8620758z"/>
	<path class="st153" d="M24.9654675,15.7794333c-0.5592289,1.1707945-1.2244244,2.435029-2.5397224,2.8577204
		C23.0623379,18.2037506,24.8058205,14.9134235,24.9654675,15.7794333z"/>
	<path class="st85" d="M19.5685787,14.5108938c0.3971596-0.3242702,0.4253616-1.1247768,0.9878368-1.106513
		C23.7555122,13.0544281,21.1543617,14.04986,19.5685787,14.5108938z"/>
	<path class="st18" d="M25.7570248,14.9831533c-0.2892208-0.2623577,0.1824322-0.8966608,0.4811745-1.1123762
		C26.2700977,14.2898445,25.8976078,14.5951939,25.7570248,14.9831533z"/>
	<path class="st18" d="M26.3969746,13.5529346c-0.0034676,0.1337757-0.0325928,0.2546387-0.1630993,0.3246469
		C26.237936,13.7441034,26.2652798,13.622282,26.3969746,13.5529346z"/>
	<path class="st85" d="M19.4102669,14.6694031c0.052475-0.0526714,0.1049805-0.1053429,0.1574574-0.1579809
		C19.5152473,14.5640936,19.4627743,14.6167316,19.4102669,14.6694031z"/>
	<path class="st85" d="M19.2532768,14.8280125c0.0518799-0.0524406,0.1037617-0.1048479,0.1556377-0.1572552
		C19.3570385,14.7231979,19.3051567,14.7756052,19.2532768,14.8280125z"/>
	<path class="st156" d="M22.1015949,13.3935328c-1.0435772,0.1871033-5.0397472,0.6777534-2.0914841-0.2469511
		C20.2579994,12.9048471,21.7342453,13.2428808,22.1015949,13.3935328z"/>
	<path class="st157" d="M15.9142723,11.6511822c0.8750038,0.3052702,1.7508335,0.5503836,2.5446014,0.9492397
		C18.3335896,13.331584,15.1638937,11.9037828,15.9142723,11.6511822z"/>
	<path class="st158" d="M18.2990494,12.7608814c0.5324497-0.3412724,1.4491577,0.1692514,2.0701332,0.3117943
		C19.7462502,13.411521,18.8070469,13.3200369,18.2990494,12.7608814z"/>
	<path class="st159" d="M27.8272591,16.2570095c-0.1299839-1.1700191-0.7888546-4.7687216,1.1167526-3.0218201
		c0.2678795,0.0071135,1.4213047,2.0649576,1.2808666,2.5757523c-0.8711243,0.1525049-1.2143078-0.9435406-1.8688927-1.4129009
		C27.9110718,14.9334126,28.5537872,16.1645679,27.8272591,16.2570095z"/>
	<path class="st18" d="M29.098114,13.2445345c-0.2702179,0.0514774-0.1217175-0.3117495-0.1631374-0.4856319
		C29.1191788,12.8771877,29.086586,13.0682583,29.098114,13.2445345z"/>
	<path class="st18" d="M29.2584362,13.5624447c-0.1376724-0.0662107-0.1604252-0.1916313-0.1675587-0.3251429
		C29.3218479,13.1935959,29.2415524,13.4019051,29.2584362,13.5624447z"/>
	<path class="st160" d="M20.5254498,8.9472399c1.3979149-0.3494968-0.0593548-0.6865768-0.6006203-1.2879891
		c0.2527237-0.1691766,0.4184647,0.0628748,0.5949059,0.0229836C21.8447361,8.9811277,23.0737553,9.3157206,20.5254498,8.9472399z"
		/>
	<path class="st161" d="M27.8272591,16.2570095c0.6920338,0.2450085,0.5475597,1.4658871,0.7938251,2.0636272
		C28.2109146,18.9441528,27.5382729,16.0942554,27.8272591,16.2570095z"/>
	<path class="st162" d="M36.5575714,21.817955c0.357563,0.337471,1.4302101,0.8961048,1.1152229,1.4243011
		C37.3641243,22.9053555,35.8501282,22.3263969,36.5575714,21.817955z"/>
	<path class="st163" d="M20.994009,21.3358555c-0.6546459,0.7658176-1.1079178,1.7675743-1.9025707,2.3849716
		c0.9631844-2.0526314-3.3182812,0.9018059-2.701107-1.2688351C17.3564682,22.2151718,22.4498405,18.4098206,20.994009,21.3358555z"
		/>
	<path class="st164" d="M20.994009,21.3358555c0.9021969-2.5386925-2.7818279,0.8695889-3.9668922,0.7977982
		C17.9807262,21.2753963,25.9362545,16.3223648,20.994009,21.3358555z"/>
	<path class="st92" d="M23.0580692,6.8880348c-0.0516777-0.053431-0.1033955-0.1068287-0.1550388-0.1602597
		C23.0485916,6.7079682,23.0811481,6.743525,23.0580692,6.8880348z"/>
	<path class="st165" d="M33.3843765,24.3549671c-0.0305939-1.0066147-0.8735008-0.9709358,1.0444069-1.5686321
		c1.2157974,1.0876389,2.8222237,1.6274395,3.3396149,3.4328079c1.9940262,2.4915047,0.3119125,8.5424042-2.4796677,4.3309174
		c3.206192,2.4596672-1.9827805-3.817152-2.2283859-4.7612209c-0.386898-1.1203041,0.9114609-0.6289845,0.7868309-0.893589
		C33.7376862,24.6755524,33.3121223,24.7277622,33.3843765,24.3549671z"/>
	<path class="st102" d="M36.4001846,21.9749126c0.863266,0.7032948,1.8041687,1.886734,0.1079636,0.6764755
		c-1.3600006-0.9693356-0.1637154,0.6432343-0.5826302,1.0681629C35.3841019,22.3443279,33.94841,19.2331142,36.4001846,21.9749126z
		"/>
	<path class="st138" d="M8.9284277,13.0758209c-0.0533686-0.0512514-0.1067657-0.1025028-0.1601315-0.1537876
		C8.8216619,12.9732847,8.8750591,13.0245695,8.9284277,13.0758209z"/>
	<path class="st119" d="M19.7268581,23.5614948c0.0521431-0.0527706,0.1042862-0.1055737,0.1564293-0.1583118
		C19.8311443,23.4559536,19.7790012,23.5087242,19.7268581,23.5614948z"/>
	<path class="st166" d="M17.502737,25.3090954c-0.7117367,0.9698105-1.3571434,2.0472603-2.4944878,2.5626526
		c-1.8697195,0.2841187,0.3681164-2.715065,1.0849304-3.2640915C16.862484,23.800415,18.3525505,24.2112293,17.502737,25.3090954z"
		/>
	<path class="st123" d="M17.502737,25.3090954c0.052969-0.0529346,0.1059036-0.1058712,0.1588402-0.1588058
		C17.6086407,25.2032242,17.555706,25.2561607,17.502737,25.3090954z"/>
	<path class="st167" d="M30.2099934,15.7790365c-0.4168301-0.8187313-1.1504402-2.1515255,0.3137207-1.1080894
		c0.3665924,0.2560272-0.4488659,0.4408684,0.0371075,0.7305212C31.3146744,16.1680698,30.5460873,16.9922428,30.2099934,15.7790365
		z"/>
	<path class="st18" d="M29.7340965,14.1907043c-0.2039642,0.3278608-0.3045406-0.0930681-0.3241577-0.3212624
		C29.5594063,13.9347448,29.6633625,14.0459652,29.7340965,14.1907043z"/>
	<path class="st18" d="M29.4174461,13.8801575c-0.1372471-0.0681257-0.1605625-0.1938105-0.1660099-0.328577
		C29.3815784,13.6232729,29.409317,13.7467451,29.4174461,13.8801575z"/>
	<path class="st168" d="M36.4001846,21.9749126c-1.9449234-1.4606438-1.0685196-1.235796-1.1055717,0.3046818
		c-0.0554466-0.345459-0.2492599-0.6868076-0.4769211-0.946804c-0.1283302-0.8712978-0.9856186-1.3720856-1.4352531-2.0612125
		C34.3421021,19.911972,36.2115631,21.0943031,36.4001846,21.9749126z"/>
	<path class="st169" d="M33.3843765,24.3549671c0.5707169,0.3733101,1.6153564,1.6184063,0.3154221,0.6367874
		C32.9645081,24.4818211,31.8455563,23.1032162,33.3843765,24.3549671z"/>
	<path class="st72" d="M31.9535618,23.2451687c0.0224552,0.0121193,0.065649,0.0290604,0.0641308,0.0355988
		C32.0029907,23.3404865,31.9812298,23.3120937,31.9535618,23.2451687z"/>
	<path class="st127" d="M34.8176308,21.3328171c0.0506592,0.0547523,0.1013489,0.1095371,0.1520042,0.1642876
		C34.9189453,21.4423199,34.8682899,21.3875694,34.8176308,21.3328171z"/>
	<path class="st170" d="M30.6850548,16.414032c0.5601559-0.4993172,0.8500652,0.6482811,1.1096687,0.9551868
		c0.2995758,0.6112213,2.4090767,2.5691433,0.9508133,1.5028095c-0.6468658-0.6010723-0.946888-1.0648632-0.7895622,0.0832424
		C31.6306114,18.084837,30.6999168,17.4203968,30.6850548,16.414032z"/>
	<path class="st170" d="M31.9529018,18.9577484c0.069479,0.0338478,0.1490002,0.1418667,0.1150188,0.1551094
		C31.8839397,19.1873741,32.0040359,18.9950562,31.9529018,18.9577484z"/>
	<path class="st171" d="M30.6850548,16.414032c1.8204155,3.7396317-2.6645088-3.6829491-2.0665627,1.4311352
		c-0.7124939-0.5465355-0.966114-2.9528017-0.3617115-3.7430382c0.6551609,0.2041664,0.9669132,1.1580963,1.5933075,1.5461035
		C30.2495766,15.800189,30.5522137,15.9703007,30.6850548,16.414032z"/>
	<path class="st121" d="M28.461298,17.8448467c0.2327862-0.0552692,0.1415482,0.1610394,0.1565247,0.319418
		C28.4910507,18.0943336,28.4631138,17.9759789,28.461298,17.8448467z"/>
	<path class="st172" d="M31.7947598,17.3692837c-0.7788086-0.6729507-1.2945004-1.6301947-1.7215385-2.5695286
		c1.2837753,0.6474533,2.3895283,1.7153778,3.7869205,2.2506981C33.1033325,17.3354816,31.777729,16.0252209,31.7947598,17.3692837z
		"/>
	<path class="st134" d="M35.1277809,17.3671055c0.2852211-0.048048,0.5202103,0.1466541,0.7918587,0.1639252
		C35.5766602,17.8576927,35.3675003,17.5386906,35.1277809,17.3671055z"/>
	<path class="st93" d="M17.661478,12.2791119c-0.1310349,0.0029392-0.2478333-0.0239086-0.3167553-0.1511126
		C17.4733143,12.1301126,17.5903473,12.1564646,17.661478,12.2791119z"/>
	<path class="st173" d="M10.0324106,13.5630398c-0.1882067,0.2965002-0.5153351,0.2283831-0.6305265-0.03864
		C9.3886576,13.1926489,9.8600645,13.5702019,10.0324106,13.5630398z"/>
	<path class="st142" d="M15.9142723,11.6511822c-0.8960028,0.2729301-2.1989079-1.0200348-3.1697226-1.4209871
		C12.1170416,9.3962708,15.2153397,11.3609219,15.9142723,11.6511822z"/>
	<path class="st174" d="M15.4353094,11.6545506c5.5409994,1.9954824-3.2668724,3.2862759-4.7615576,2.0620356
		C12.9965191,14.1769953,13.8063173,12.8559017,15.4353094,11.6545506z"/>
	<path class="st173" d="M10.6737804,13.7164965c0.2885466,0.3515177,1.2171173,0.0646963,1.2718992,0.4742079
		C11.7510395,14.5749874,9.6243267,13.686492,10.6737804,13.7164965z"/>
	<path class="st85" d="M18.9310741,14.8271208c-0.0520439,0.0537939-0.1040878,0.1075554-0.1561317,0.1613493
		C18.8270226,14.9347086,18.8790627,14.8809147,18.9310741,14.8271208z"/>
	<path class="st175" d="M11.9455881,14.1907701c-0.3436956-0.7971811,5.5560522,0.1906538,5.028266-1.2360888
		c-0.4071465-1.280201,1.2637539-0.0752439,1.7974739-0.0299177C17.9572544,14.4818182,13.6031427,14.2995787,11.9455881,14.1907701
		z"/>
	<path class="st176" d="M17.9794216,13.7077789c0.6479645-0.7367544,1.1365528-0.838295,2.0620499-0.4651718
		C19.4495659,13.6952419,18.6641254,13.5386686,17.9794216,13.7077789z"/>
	<path class="st173" d="M11.7798138,14.5023737c-0.0350609-0.1767101,0.1086578-0.1544981,0.1869516-0.0948181
		C11.9679117,14.5413408,11.8533554,14.4879761,11.7798138,14.5023737z"/>
	<path class="st173" d="M12.259305,14.1983986c0.131299-0.0061417,0.2476387,0.0223236,0.3253412,0.1403475
		C12.4517622,14.3485537,12.3346968,14.3218384,12.259305,14.1983986z"/>
	<path class="st164" d="M22.7444172,18.9580784c0.0117245-0.0222893,0.0281372-0.0650883,0.0344486-0.0636349
		C22.8411312,18.9099178,22.8038559,18.929884,22.7444172,18.9580784z"/>
	<path class="st176" d="M18.6179504,12.9191933c-0.0542564-0.0499306-0.1085129-0.0998278-0.1627655-0.1496925
		C18.5094376,12.8194313,18.563694,12.8693285,18.6179504,12.9191933z"/>
	<path class="st175" d="M11.6269512,14.0254583c-0.131464,0.0038967-0.2486286-0.0234137-0.3214769-0.1473808
		C11.4356833,13.8768559,11.5536737,13.9023495,11.6269512,14.0254583z"/>
</g>
</svg>
