<?xml version="1.0" encoding="utf-8"?>
<!-- Generator: Adobe Illustrator 27.8.0, SVG Export Plug-In . SVG Version: 6.00 Build 0)  -->
<svg version="1.1" id="Layer_1" xmlns="http://www.w3.org/2000/svg" xmlns:xlink="http://www.w3.org/1999/xlink" x="0px" y="0px"
	 viewBox="0 0 43.1737137 36.1861954" style="enable-background:new 0 0 43.1737137 36.1861954;" xml:space="preserve">
<style type="text/css">
	.st0{display:none;}
	.st1{display:inline;fill:#C85C29;}
	.st2{display:inline;fill:#DD6C26;}
	.st3{display:inline;fill:#EA7424;}
	.st4{display:inline;fill:#F18821;}
	.st5{display:inline;fill:#E97D24;}
	.st6{display:inline;fill:#D36229;}
	.st7{display:inline;fill:#ED8A22;}
	.st8{display:inline;fill:#F08721;}
	.st9{display:inline;fill:#F8991D;}
	.st10{display:inline;fill:#F8961D;}
	.st11{display:inline;fill:#F6921E;}
	.st12{display:inline;fill:#F28B21;}
	.st13{display:inline;fill:#DB7F27;}
	.st14{display:inline;fill:#B06227;}
	.st15{display:inline;fill:#BF6528;}
	.st16{display:inline;fill:#F47B20;}
	.st17{display:inline;fill:#E57C25;}
	.st18{display:inline;fill:#D96E27;}
	.st19{display:inline;fill:#A85425;}
	.st20{display:inline;fill:#F58D1F;}
	.st21{display:inline;fill:#F7901E;}
	.st22{display:inline;fill:#DC7627;}
	.st23{display:inline;fill:#F78E1E;}
	.st24{display:inline;fill:#D16728;}
	.st25{display:inline;fill:#EB9023;}
	.st26{display:inline;fill:#DF7426;}
	.st27{display:inline;fill:#E78025;}
	.st28{display:inline;fill:#D35C2C;}
	.st29{display:inline;fill:#D16930;}
	.st30{display:inline;fill:#DB6327;}
	.st31{display:inline;fill:#E07326;}
	.st32{display:inline;fill:#D1683C;}
	.st33{display:inline;fill:#F6851F;}
	.st34{display:inline;fill:#D65B2C;}
	.st35{display:inline;fill:#D36A38;}
	.st36{fill:#E56727;}
	.st37{fill:#DF6426;}
	.st38{fill:#F47522;}
	.st39{fill:#F68C1F;}
	.st40{fill:#F5802E;}
	.st41{fill:#F9A01B;}
	.st42{fill:#F99C1C;}
	.st43{fill:#E98024;}
	.st44{fill:#DB8027;}
	.st45{fill:#F8991D;}
	.st46{fill:#B06828;}
	.st47{fill:#BC6728;}
	.st48{fill:#B75927;}
	.st49{fill:#F18221;}
	.st50{fill:#ED7323;}
	.st51{fill:#D77B27;}
	.st52{fill:#F8961D;}
	.st53{fill:#E89024;}
	.st54{fill:#E57625;}
	.st55{fill:#D06628;}
	.st56{fill:#E57C24;}
	.st57{fill:#BB6528;}
	.st58{fill:#D97227;}
	.st59{fill:#DA7A27;}
	.st60{fill:#E27C26;}
	.st61{fill:#E67625;}
	.st62{fill:#CA7629;}
	.st63{fill:#F47526;}
	.st64{fill:#E36E25;}
	.st65{fill:#F8971D;}
	.st66{fill:#ED6627;}
	.st67{fill:#F8951D;}
	.st68{fill:#F58220;}
	.st69{fill:#F36F2D;}
	.st70{fill:#F57F20;}
	.st71{fill:#E97434;}
	.st72{fill:#ED7534;}
	.st73{fill:#E96324;}
	.st74{fill:#E46B25;}
	.st75{fill:#E1742B;}
	.st76{fill:#F36D2B;}
	.st77{fill:#F57E24;}
	.st78{fill:#F89A20;}
	.st79{fill:#EF7E22;}
	.st80{fill:#F6881F;}
	.st81{fill:#F47621;}
	.st82{fill:#F58120;}
	.st83{fill:#EE6623;}
	.st84{fill:#F26A25;}
	.st85{fill:#F7901E;}
	.st86{fill:#E66A25;}
	.st87{fill:#EB7324;}
	.st88{fill:#EC8523;}
	.st89{fill:#E76F24;}
	.st90{fill:#F2692E;}
	.st91{fill:#F4773B;}
	.st92{fill:#EE7A41;}
	.st93{fill:#ED6A23;}
	.st94{fill:#EC6428;}
	.st95{fill:#E47536;}
	.st96{fill:#F26530;}
	.st97{fill:#ED854E;}
	.st98{fill:#F47625;}
	.st99{fill:#F47C34;}
</style>
<g class="st0">
	<path class="st1" d="M26.5034904,10.9965658c0.0195007,0.1052113,0.0814247,0.1708717,0.1846294,0.1979876
		c0.3519726,0.6513186,1.0193443,1.0294027,1.4197617,1.6387663c0.0430794,0.1035261,0.1044884,0.1884804,0.2206097,0.2181225
		l-0.0089359-0.0183706c0.0351696,0.0862379,0.0544224,0.1760063,0.0598774,0.2689829
		c-0.0313663,0.0899687-0.0874825,0.160243-0.1678638,0.2111034c-0.0899296,0.0234251-0.1810207,0.0265532-0.2726326,0.011632
		c-0.8084335-0.2727938-1.4518108-0.8175783-2.0831947-1.3520947c-0.6401291-0.5418568-0.8016949-1.5287027-0.4475174-2.2936563
		c0.1738815-0.3755569,0.3246574-0.7654343,0.5529289-1.1074991c-1.0759735-0.2973413-1.9443321-0.9643841-2.8337479-1.5921583
		c-0.1069355-0.1174045-0.1261902-0.2794919-0.2057686-0.410574c-0.0419559-0.0559549-0.0818672-0.114316-0.1239834-0.1703105
		c-0.0468903-0.0507402-0.0913715-0.1040072-0.1371784-0.1559911c-0.0245876-0.0243473-0.0472908-0.0504994-0.0718784-0.075007
		c-0.0514622-0.0475717-0.0997162-0.097991-0.1484833-0.1484504c-0.0256386-0.0247884-0.0492229-0.0508604-0.0748539-0.0757694
		c-0.0515423-0.0506597-0.09795-0.1052103-0.1425934-0.1619272c-0.0457268-0.0570774-0.0861912-0.117404-0.1254673-0.1786933
		c-0.0997162-0.1545472-0.2148342-0.2955766-0.3562641-0.4146657c-0.0638561-0.0425978-0.1271915-0.0839119-0.194891-0.1188483
		c-0.1196175-0.038466-0.2417946-0.0526252-0.3671818-0.0581203c-0.4163494-0.0487752-0.9133224,0.0991135-1.1180477-0.4601111
		c0.1577148-0.7373972,0.6218777-0.9424837,1.3115025-0.7556877c0.0546703,0.0038507,0.1094227,0.0071397,0.1642132,0.0098672
		c0.6009407,0.7454596,1.3001518,1.3973804,1.9771023,2.0701184c0.2009144,0.1996717,0.3881512,0.4312716,0.7029896,0.4626784
		c0.0879955,0.1449203,0.2262573,0.190125,0.3852959,0.1939759c0.0946617,0.1425538,0.2360191,0.1824636,0.3964634,0.1803379
		c0.2668495,0.2386594,0.5874138,0.3589115,0.9331303,0.4239311c0.0975094,0.1346121,0.2383785,0.1750035,0.3947296,0.1817822
		c0.0938587,0.1386228,0.2340069,0.1801777,0.3910007,0.1863546c0.0815849,0.1340504,0.2141914,0.183547,0.357275,0.2156758
		c0.059515,0.3452735,0.0475235,0.7256045,0.4443378,0.9053006c0.0662727,0.1678238,0.2056885,0.2105818,0.3675365,0.2148333
		c0.0896473,0.1393852,0.2238979,0.1918907,0.3827362,0.1967039c0.2097397,0.1980267,0.3769627,0.4060812,0.1658192,0.7033825
		c-0.1993103,0.0329714-0.4079666,0.0406322-0.5581818,0.2064505c-0.2128677,0.0045328-0.4161091,0.0345755-0.5634365,0.2127075
		c-0.1605644-0.0039711-0.3035183,0.0330114-0.4025917,0.1725569c-0.1592407,0.003931-0.3037205,0.0397902-0.3979797,0.1841087
		C26.3140144,10.803031,26.3339024,10.8973322,26.5034904,10.9965658z"/>
	<path class="st2" d="M28.6582031,21.3777237c0.0080624,0.1142349,0.0161247,0.2285099,0.0241451,0.3427467
		c0.0553131,0.06534,0.0996838,0.1374588,0.1331291,0.2162762c0.0587616,0.0363407,0.0828285,0.0886459,0.0721188,0.1569138
		c0.0807438,0.4737091-0.1350536,0.8252792-0.5939217,0.7501125c-0.9290848-0.1521797-1.5878258,0.3457947-2.2930126,0.7747002
		c-0.7650337,0.1203728-1.3009548-0.1685467-1.6377239-0.8729324c-0.3030777-0.6338711-0.8728924-1.0138798-1.4315948-1.3932476
		c-0.292448-0.1985493-0.6535664-0.3457966-0.4505253-0.8132477c-0.0584412-0.1498928-0.060688-0.3003483-0.0042515-0.4513664
		c-0.068428-0.1682243-0.0623322-0.3559437-0.136898-0.5224838c-0.1888008-0.9613743-0.5675278-1.8817577-0.5550938-2.8886585
		c0.0066185-0.5393696-0.1649361-1.0369043-0.4663601-1.5222054c-0.4863911-0.7828827-0.6155891-1.7184267-0.9181366-2.58113
		c-0.2363796-0.2657337-0.3843498-0.5929976-0.6135025-0.8636656c-0.8787079-1.0379076-0.8240681-1.6984119,0.2174816-2.6786795
		c0.1039658-0.0763712,0.2067699-0.1537447,0.3121414-0.2267466c0.3278255-0.2272282,0.5716991-0.7426519,1.0409565-0.5436621
		c0.5483952,0.232563,0.3929653,0.8151722,0.4245319,1.2814999c0.0258312,0.3824968-0.0421162,0.7720127,0.0914536,1.1446018
		c0.1204109,0.2547045,0.1118279,0.4963713-0.0778561,0.7162991c-0.0874405,0.1401873-0.0725594,0.2814178,0.0040112,0.4237709
		c0.6574955,0.9652662,0.6635132,2.1266747,0.9764576,3.1949854c0.4585533,1.5656052,0.745779,3.1616135,0.9857235,4.7750301
		c0.1335678,0.8980007,0.5272961,1.3275471,1.7592583,1.3857079c0.3885136,0.0183315,0.7501926,0.0187321,1.0772648,0.2433529
		c0.0843048,0.0001602,0.1682568,0.0049343,0.2520485,0.0078621c0.2987041,0.0227032,0.5732231-0.0506611,0.8263626-0.2087364
		c0.2300358-0.1178055,0.3854237-0.3384552,0.619751-0.4492416c0.0512218,0.0150414,0.1028442,0.0283184,0.1549568,0.0398693
		C28.4657917,21.0229034,28.481554,21.2299538,28.6582031,21.3777237z"/>
	<path class="st3" d="M22.4808178,20.5390453c0.0164852,0.2470837,0.1450806,0.4060822,0.3670139,0.5144615
		c0.8151321,0.3983002,1.504364,0.937912,1.8424492,1.8128071c0.2415485,0.6250477,0.8091965,0.5103703,1.2817822,0.6225605
		c0.1592789,0.1208134,0.2852669,0.2655334,0.3362484,0.465004c0.0693913,0.527338-0.1348534,0.9490623-0.5063591,1.3053665
		c-0.8349857-0.1763268-1.2952576-0.8487034-1.8561668-1.3931274c-0.1692677-0.1643353-0.303278-0.4925613-0.6012611-0.3670139
		c-0.2990265,0.1260281-0.3144283,0.4582253-0.3010311,0.7450581c0.0221405,0.4744301,0.1172428,0.9458122,0.0604858,1.4235325
		c-0.0343342,0.2893982-0.0784168,0.6118088-0.3988209,0.6979675c-0.4957695,0.1332874-0.1421928-0.4822121-0.4396954-0.5504799
		c-0.2579117-0.119772-0.0869198-0.4734287-0.3284264-0.6021442c-0.1565533-0.5704556,0.0400696-1.14007,0.0042114-1.7102051
		c0.2144318-0.4238911,0.1910477-0.8846836,0.2075729-1.3392181C22.4298782,21.6569347,22.2275982,21.0514622,22.4808178,20.5390453
		z"/>
	<path class="st4" d="M18.6432571,14.4333c0.0291214-0.0677471,0.0582008-0.1354542,0.0873222-0.2031612
		c0.0954227-0.0157642,0.1817017,0.0067787,0.2608395,0.0607672c1.424736,1.1093044,2.1455269,2.6265764,2.5291462,4.3447218
		c0.1090221,0.4883099-0.0031281,0.9448509-0.1257877,1.4062443c-0.0254688,0.1463242-0.1083393,0.3054447,0.0896492,0.4019508
		c0.0137577,0.1889629-0.0050545,0.3708649-0.163332,0.4997406c-0.3159122,0.2572708-0.3806515,0.6092033-0.3858261,0.986124
		c-0.1651764,0.1620483-0.1845894,0.3703823-0.1855927,0.5845757c-0.2847061,0.3515301-0.0219803,0.8229122-0.2593155,1.1848316
		c-0.0111923,0.0760098-0.0465622,0.1373806-0.1099033,0.1818638c-0.0075817,0.1162796-0.0651817,0.1976242-0.1712341,0.2451973
		c-0.3163929-0.2742786-0.2387791-0.6299-0.2128277-0.9815521c0.1034851-1.4017525,0.2673378-2.798811,0.3263016-4.2014065
		c0.004612-0.0954227,0.0213394-0.1915684,0.0447636-0.2841454c0.039629-0.1647739,0.0990734-0.3295898,0.0478115-0.5052357
		c-0.0368538-0.0762501-0.071476-0.1522598-0.1109867-0.227066c-0.4777908-1.1483326-1.0678215-2.2268715-1.9188995-3.146492
		c0.0448036-0.059886,0.0896072-0.119771,0.1344109-0.179656C18.5347576,14.5255146,18.5746689,14.4688377,18.6432571,14.4333z"/>
	<path class="st5" d="M21.3947773,20.041872c-0.2243385-0.1479282-0.0626526-0.3395367-0.0616894-0.5151825
		c0.0054951-0.9872074-0.2990665-1.8785896-0.7058296-2.7777538c-0.409893-0.9061022-1.0193367-1.6024256-1.7323456-2.2483301
		c-0.0590439-0.0535078-0.0528259-0.1790142-0.0769329-0.2710686c-0.0477715-0.0480528-0.0623322-0.0946617-0.0438004-0.1399069
		c0.0182095-0.0444832,0.035738-0.0667439,0.0526657-0.0667439c0.0095863-0.3106985,0.0192127-0.621397,0.0287991-0.9320955
		c0.0460873-0.0169668,0.0926952-0.0320482,0.139986-0.0452042c0.0425987,0.0143595,0.0851154,0.0287189,0.1279144,0.0424366
		c0.6965313,0.4023514,1.2084579,0.9412804,1.3279076,1.7771893c0.0180168,0.1260681,0.059164,0.2798529,0.1573143,0.3441105
		c1.2387028,0.8110399,1.0231457,2.2218981,1.381937,3.3871565c0.1070957,0.3478012,0.1313629,0.6822052,0.5073624,0.8420467
		c-0.0071392,0.216156-0.0142803,0.4322739-0.021452,0.6487923C22.1514683,19.5016193,22.1514683,19.5016193,21.3947773,20.041872z"
		/>
	<path class="st6" d="M28.2961617,20.7755795c-0.0268745,0.3659306-0.2098198,0.5766335-0.5889854,0.5921955
		c-0.5966892,0.1005974-1.0091476-0.2592754-1.4391766-0.5750275c-0.0003204-0.0908909,0.0535889-0.157074,0.1060123-0.2238998
		c-0.0515747,0.0081024-0.0640564,0.0751286-0.1192493,0.0788994c-0.1887608-0.0315285-0.3146286-0.1327667-0.3619995-0.3230133
		c-0.002367-0.2810555,0.0678272-0.5343151,0.2808628-0.7328644c1.2352448-0.1511364,1.591629-0.8310146,1.0532627-2.0076656
		c-0.1067352-0.2333241-0.2309895-0.4610729-0.3076019-0.7052288c-0.0935459-0.2981434-0.1661873-0.6270924,0.3473587-0.5038719
		c0.6810818,0.1634121,0.7260056-0.1562309,0.3900299-0.5811644c-0.423048-0.5349979-0.4583855-0.7905846,0.2705078-1.0806656
		c0.4628792-0.1842289,0.7390423-0.7086773,0.4854279-1.298708c-0.0101547-0.0992737,0.0286312-0.1688261,0.1232128-0.2046051
		c0.0954647,0.0345755,0.1909676,0.069191,0.2864323,0.1037664c0.0274754,0.1044092,0.095583,0.1632519,0.2015572,0.1795368
		c0.0300026,0.1035652,0.0998344,0.1621275,0.2047653,0.1809397c0.027195,0.1046486,0.0951424,0.1651363,0.2005138,0.185071
		c0.0249081,0.10501,0.0909786,0.1674223,0.1960201,0.1894436c0.0206985,0.1037264,0.0797806,0.1727972,0.1827049,0.2023182
		c0.0125561,0.1030455,0.0623322,0.1788549,0.1603241,0.2194462c0.0127544,0.2368946,0.0255089,0.4737892,0.0382652,0.7106438
		c-0.119009,0.0691109-0.136898,0.1458826-0.0176888,0.2330437c-0.0114727,0.1646147,0.0367489,0.302515,0.1782513,0.3986607
		c0.0590839,0.2468014,0.1925335,0.4357243,0.4258175,0.5468712c0.0183296,0.1044884,0.0766106,0.1739597,0.1792545,0.204525
		c0.0602875,0.3037586,0.0734425,0.5820484-0.3534565,0.5913544c-0.2198067,0.0048122-0.4398956,0.0002003-0.6597824-0.0042534
		c-0.4173927-0.0083828-0.3214474,0.2797337-0.3047218,0.5228443c0.1163216,0.1090622,0.0383148,0.329792,0.2279491,0.3966961
		l-0.0109901-0.020977c0.3013935,0.4499226-0.3504066,0.4324741-0.3515224,0.7087173
		c-0.0014515,0.3617992-0.3928127,0.6145382-0.1958694,1.0562382c0.1201725,0.2695847-0.0470905,0.5871811-0.4805679,0.4202003
		l0.0202961,0.0107098c-0.1759644-0.1698303-0.356945-0.241066-0.5523643-0.028038
		c0.0181694,0.0538692,0.0158825,0.1068153-0.0068188,0.1588783c0.1003571,0.1190491,0.0523434,0.3092155,0.1954193,0.4078083
		L28.2961617,20.7755795z"/>
	<path class="st6" d="M28.3284912,13.0514421c-0.1207333-0.0249491-0.1930122-0.0988731-0.2206097-0.2180824
		C28.222559,12.8644457,28.3013363,12.9318323,28.3284912,13.0514421z"/>
	<path class="st6" d="M28.2868156,13.2654333c0.0108299-0.0773335,0.0216599-0.154707,0.0326118-0.2322016
		c0.1075363,0.0156431,0.1782913,0.076211,0.2163563,0.1767683c0.0000401-0.0000401-0.0640965,0.0663834-0.0640965,0.0663834
		C28.4055042,13.349225,28.3440952,13.3420048,28.2868156,13.2654333z"/>
	<path class="st7" d="M23.609745,38.1063728c-0.0998764,0.0395889-0.1497421,0.115921-0.1617355,0.2200089
		c-0.2740364,0.1867943-0.4591808,0.4483986-0.6170235,0.7329865c-0.2738361,0.1338882-0.5182724,0.3917198-0.8679981,0.2061272
		c0.0014439-0.2320404,0.0028076-0.4640427,0.0042515-0.6960411c0.1617661-0.1687469,0.1786938-0.3788872,0.1703911-0.5962067
		c0.2436733-0.4165115,0.3647671-0.8683586,0.3887215-1.3482475c0.225174-0.3575478,0.210453-0.7562065,0.1977787-1.1545067
		c0.2064495-1.1099854,0.3175564-2.220295,0.0118732-3.3321266c-0.0025673-0.2724304-0.0057373-0.5446625-0.2003536-0.7668781
		c-0.0013237-0.2142715-0.0181236-0.423769-0.181181-0.5882244c-0.0108299-0.210701-0.0322819-0.4178734-0.1927242-0.5787182
		c-0.0208588-0.2335644-0.0417156-0.4670906-0.0625744-0.7006149c-0.1611729-0.2451172-0.0156097-0.5366421-0.1195774-0.7903843
		c0.0016518-0.1404667,0.0032902-0.2809353,0.0049343-0.4214039c0.0673466-0.1886005-0.0026474-0.4032345,0.1105442-0.5831299
		l-0.0118713,0.0036888c0.2895584-0.1689053,0.5048332-0.045845,0.6955605,0.1754456
		c0.2929287,0.6937561,0.5616722,1.3960972,0.6659603,2.1489353c0.2976227,1.3717098,0.8964367,2.6696548,0.9578457,4.1040573
		c0.0192928,0.4517288,0.3407402,0.6756248,0.8265228,0.4326363c0.3468857-0.1735611,0.7106915-0.3918419,0.978302,0.1202126
		c-0.0229836,0.1153564-0.0459671,0.2307549-0.0689507,0.3461151c-0.3068867,0.2781677-0.590189,0.5763931-0.7988052,0.9381905
		c-0.1024437,0.0272369-0.1630516,0.0936584-0.184309,0.1968651c-0.1014004,0.0316887-0.1615276,0.1001549-0.1817436,0.2041245
		c-0.1028824,0.0324898-0.1601143,0.1035233-0.1766071,0.2089767c-0.1042404,0.0311241-0.1621685,0.1016006-0.1772099,0.2084961
		c-0.219326,0.1192894-0.352293,0.3073273-0.4297066,0.5396118c-0.1006374,0.0377007-0.1523323,0.1125488-0.1647682,0.2171173
		C23.8081646,37.6787529,23.6810932,37.8716469,23.609745,38.1063728z"/>
	<path class="st8" d="M30.9407082,28.2754974c-0.1456833,0.1523399-0.1417923,0.3041992,0.0014839,0.4555779
		c-0.0004826,0.2146339,0.0215797,0.4218063,0.191288,0.5802841c0.0074196,0.1574745,0.0513821,0.2968998,0.1916885,0.388834
		c0.0190945,0.1538239,0.0693932,0.2890377,0.2182446,0.3653278c0.0609684,0.1780128,0.1219368,0.3560238,0.1829052,0.5340366
		c-0.1747227,0.0001602-0.3493652,0.0003204-0.5240879,0.0004807c-0.6303024-0.3437099-1.1950226-0.7665977-1.6795597-1.3036404
		c-0.1374207-0.1523018-0.2821388-0.0663433-0.2892799,0.1556282c-0.0465279,0.0114727-0.0934582,0.0210991-0.140749,0.0288811
		c-0.2435932,0.1746426-0.4497223,0.0743256-0.5438614-0.1504955c-0.3053246-0.7291355-0.952713-0.9852428-1.6182308-1.2090607
		c-0.4139023-0.139185-0.7480984-0.3387356-0.8946304-0.7735367c-0.0940609-0.3535767-0.0088654-0.6676044,0.2092171-0.9517899
		c0.0662231-0.0666237,0.1458435-0.1137142,0.2342873-0.1448402c0.7682018,0.0201759,1.5758018,0.2861118,2.2429161-0.3524132
		c0.0745659-0.0593643,0.1532631-0.1099434,0.2359314-0.1567116c0.4739571-0.1829472,0.9450912-0.3009129,1.394413,0.0608864
		c0.1491718,0.4551373,0.1228981,0.9618587,0.4052391,1.3778477C30.8188591,27.545681,30.8797798,27.9106083,30.9407082,28.2754974z
		"/>
	<path class="st9" d="M17.272953,25.0119228c-0.103487,0.0158424-0.1762486,0.0701122-0.2123871,0.1700687
		c-0.3069611,0.2104607-0.6138554,0.4209232-0.920784,0.6313839c-0.6000576,0.0938587-1.1767235-0.0371017-1.7518797-0.1826248
		c-0.0630064-0.0041714-0.1240225-0.0176086-0.1829853-0.0402699c-0.6694489-0.5804844-0.7040243-1.2255058-0.2583132-1.9703636
		c0.5585022-0.9334183,1.0613317-1.877306,1.3048038-2.9755802c0.2312393-1.042841,0.9607334-1.7253246,2.1159649-1.7918701
		c0.0963459-0.0055351,0.2039642-0.0012016,0.2834225-0.0470886c0.8200264-0.4736691,1.4211674-0.193655,1.8988857,0.5354385
		c0.0795403,0.0527058,0.1321259,0.1258678,0.1634922,0.2149944c-0.1002369,0.622839-0.0608482,1.2282715-0.0012836,1.8651123
		c0.089447,0.9560795-0.2605591,1.9025345-1.0656643,2.5588284c-0.272913,0.2224541-0.5362415,0.4507236-0.7856903,0.6972046
		C17.5799599,24.6400547,17.4016285,24.7824078,17.272953,25.0119228z"/>
	<path class="st10" d="M17.8605347,24.6771564c-0.1143551-0.2682209-0.1095428-0.4891911,0.2105827-0.6154594
		c1.1335316-0.4470348,1.2113857-1.5326748,1.4956112-2.4916019c0.0172081-0.0582409,0.0311337-0.1510582-0.0000401-0.185112
		c-0.6079597-0.6644363-0.1487312-1.3015156,0.0420761-1.9451332l-0.0039711-0.0040112
		c-0.6144581,0.1285553-0.6144581,0.1285553-0.788538-0.7718525c-0.6523552,0.2044449-1.3020763,0.3878708-1.9813938,0.4975739
		c-0.7199478,0.1163216-1.3055658,0.7944355-1.3898392,1.5556583c-0.1212549,1.0950642-0.6601439,1.9744949-1.2073345,2.8496323
		c-0.378727,0.6057129-0.5400124,1.1329689-0.0938196,1.745863c0.0511007,0.0702324,0.0421562,0.1841068,0.0610485,0.2777672
		c-0.1374598,0.1245842-0.2748795,0.2492085-0.4123392,0.3737926c-0.2421083,0.0523834-0.4381704,0.1770077-0.5875425,0.374794
		c-0.1021223,0.0202961-0.2041969,0.0406322-0.3062859,0.0609684c-0.8217106,0.182024-0.8051844-0.4415398-0.7935123-0.9162102
		c0.0175285-0.710001,0.3485632-1.342268,0.7792797-1.8945141c0.2165985-0.2776871,0.3717394-0.5808849,0.548027-0.8767815
		c0.001564-0.0616112,0.0034094-0.1231804,0.0055027-0.1847496c0.2827806-0.1807804,0.4843702-0.4299088,0.619544-0.7350712
		c0.1161604-0.0775738,0.2322817-0.1551495,0.348402-0.2327232c-0.6886625-1.1622505-0.6911821-1.4770393-0.0173683-2.1551132
		c0.0058565-0.0496578,0.0127954-0.0991535,0.0207376-0.1484909c0.2490082-0.0363388,0.4467144-0.1601219,0.6033068-0.3539772
		c0.1525011-0.0204163,0.2856693-0.0734425,0.3657703-0.2162781c0.2483664-0.0414734,0.442502-0.1703091,0.5938072-0.3682556
		c0.1546993-0.0198956,0.2850609-0.0780163,0.3570995-0.2275887c0.1058521-0.0074215,0.1836681-0.0555534,0.2256641-0.1555901
		c0.2403431-0.063015,0.4340458-0.1892433,0.5571861-0.4110966c0.1067276-0.017889,0.1759987-0.0774536,0.2039547-0.1830654
		c0.1100655-0.0908108,0.220129-0.1815815,0.3301525-0.2723923c0.1601219,0.0048141,0.3332405,0.0444832,0.4782887-0.0028076
		c0.838028-0.2733154,1.4928761-0.0790176,1.9796619,0.6811218c0.0957432,0.1495323,0.3233318,0.199791,0.4613934,0.3366489
		l0.0096664,0.011673c0.1054916,0.1270714,0.1019306,0.2530193-0.0037289,0.377964l-0.001524,0.0019245
		c-0.2062912,1.2160797-0.4103336,2.431076-0.5186729,3.6627178c-0.0955048,1.0853996-0.2391415,2.173605-1.3616829,2.7721386
		c-0.3655281,0.1948986-0.3321972,0.6816025-0.63764,0.9279232C17.7100391,25.4966202,17.8720074,25.0725689,17.8605347,24.6771564z
		"/>
	<path class="st11" d="M18.0520649,25.8374424c-0.0240669-0.5990543,0.0583611-1.022625,0.7501106-1.3403435
		c0.9125214-0.419157,0.8888168-1.4616375,0.9858437-2.3266659c0.1414318-1.2607231,0.266016-2.5174751,0.7820415-3.6958103
		c0.0184097,1.6731834-0.1560726,3.331604-0.3709049,4.9876175c-0.0281982,0.2171612,0.0051823,0.4423027,0.010067,0.6638355
		c-0.0265446,0.0926952-0.0531464,0.1853104-0.0797405,0.2779675c-0.1005974,0.0312462-0.1579552,0.1002369-0.1768475,0.2027187
		c-0.1007996,0.028841-0.1640129,0.094101-0.189764,0.1956615c-0.101841,0.0261917-0.1670151,0.0895271-0.1942577,0.1914082
		c-0.1022816,0.0279179-0.1650963,0.0937786-0.1894836,0.1966629c-0.1021214,0.028801-0.1636505,0.0957451-0.1869164,0.1987095
		c-0.1030045,0.0265141-0.1660175,0.0920143-0.1904449,0.195179c-0.1049709,0.0200958-0.1715546,0.0809841-0.1972256,0.1853523
		C18.5530491,25.784977,18.3356075,26.1785851,18.0520649,25.8374424z"/>
	<path class="st12" d="M15.1822968,10.192625c0.1043682-0.0128355,0.1793356-0.0644579,0.2175684-0.1646147
		c0.2352428-0.0687094,0.4302616-0.1929731,0.5609827-0.4060812c0.1041279-0.0128355,0.1775303-0.0655012,0.2143116-0.1655378
		c0.0537968,0.0000801,0.1075783,0.0001602,0.1613255,0.0002813c0.8428879,0.6169834,1.0078239,1.659584,1.548357,2.4664125
		c-0.0152817,0.0525856-0.0283184,0.105732-0.0390682,0.159441c-0.1542645,0.0110302-0.2904015,0.0570374-0.3780441,0.1963015
		c-0.1567516,0.0040512-0.299427,0.041194-0.4027519,0.1709528c-0.6230812,0.139946-1.2478065,0.0189323-1.8717709,0.0115919
		c-0.1743612-0.1529427-0.4093704-0.0804224-0.6028652-0.1622086c-0.2668171-0.2864714-0.2772856-0.6350336-0.2411461-0.9949083
		C14.8190937,11.0777102,14.8032904,10.4872389,15.1822968,10.192625z"/>
	<path class="st13" d="M14.3491955,11.3042555c0.3775234,0.2595978,0.1977863,0.6542883,0.2411461,0.9949083
		c-0.4479494,0.0176897-0.895834,0.0387878-1.3439522,0.0519037c-0.2907629,0.008544-0.4949274-0.1103048-0.5550137-0.4156284
		c0.0591717-0.0657816,0.1182871-0.1316032,0.1774502-0.1973848c0.1515388-0.016325,0.2937717-0.0522242,0.3901987-0.1848707
		c0.2120256-0.0060968,0.4186363-0.0277166,0.5730228-0.1994705C14.0044432,11.3372269,14.1768398,11.3207417,14.3491955,11.3042555
		z"/>
	<path class="st14" d="M17.8267612,0.0040403c0.0344563,0.1024029,0.1076584,0.1559508,0.2130299,0.1687461
		c0.0302505,0.1058524,0.1016483,0.1622482,0.2095776,0.1750034c0.0045338,0.0529864,0.0102291,0.1058524,0.0170879,0.1585981
		c0.0534267,0.0895273,0.1114273,0.17376,0.2238178,0.1959012L18.472826,0.6852421
		c0.030365,0.1129119,0.0973969,0.1867559,0.2175617,0.2037228l-0.0179291-0.017368
		c0.0168056,0.1195703,0.0914516,0.1859537,0.2019176,0.219366l-0.0164852-0.0168465
		c0.0247478,0.1061331,0.1009178,0.1692675,0.1871967,0.2239386L19.0389099,1.288709
		c0.1378613,0.4099324,0.353817,0.8602966-0.4147053,0.8010126l0.0052147,0.0070195
		c-0.1077785-0.1082591-0.0414352-0.3220898-0.230999-0.3807719l0.0206985,0.0212587
		c-0.0128765-0.1131124-0.0934181-0.1738001-0.1788139-0.2307173l0.0081425,0.0084634
		c-0.0490971-0.0842727-0.1166019-0.1503754-0.1989098-0.2019579l0.0068989,0.0068991
		c-0.0510616-0.0819865-0.1176052-0.1485704-0.1996307-0.1996716l0.0068188,0.0066986
		c-0.052145-0.0840322-0.1262703-0.1451209-0.207695-0.1985084c-0.2364845-0.146966-0.4729862-0.2939319-0.7094803-0.440938
		c-0.3925629-0.3749157-0.8840008-0.562554-1.3853054-0.7315809c-0.0833502-0.1470061-0.2175217-0.1993908-0.377924-0.2028002
		c-0.0899687-0.1425939-0.2267065-0.1907268-0.3868694-0.1915692c-0.0912514-0.1391845-0.2265453-0.1901252-0.3859863-0.1926121
		c-0.0918531-0.1434363-0.230958-0.1873174-0.3916016-0.1860339c-0.2620039-0.2398626-0.5829697-0.3531756-0.9211845-0.4294263
		c-0.0084629-0.0498176-0.0215797-0.0983918-0.0393085-0.1457225c0.240344-0.2232968-0.0053749-0.5891875,0.2380581-0.811602
		c0.2346077,0.084353,0.4692154,0.1687062,0.703824,0.2530992c0.0849943,0.144479,0.220088,0.195099,0.3785257,0.2017975
		c0.0881634,0.1446395,0.2261925,0.1901252,0.3852644,0.1937351c0.0894871,0.1398664,0.2261038,0.1876384,0.3828573,0.1961018
		c0.0874815,0.1450406,0.2287521,0.183908,0.384181,0.1947379c0.0805826,0.1464044,0.2176809,0.1928126,0.3713856,0.2096591
		c0.1599226,0.1854724,0.3399,0.3381341,0.5966082,0.3657303c0.2268677,0.1865152,0.4926414,0.2962584,0.7673206,0.3884731
		C17.402998-0.196273,17.5974483-0.0719295,17.8267612,0.0040403z"/>
	<path class="st15" d="M18.3984203,1.7159693c0.20998,0.0462077,0.2400246,0.2015969,0.231039,0.3807318
		c-0.0568771-0.0068991-0.1131935-0.0169268-0.1689472-0.0300431C18.4398155,1.949735,18.4191189,1.8328923,18.3984203,1.7159693z"
		/>
	<path class="st15" d="M18.2403049,1.5065107c0.1103439,0.0373833,0.1720352,0.1125509,0.178854,0.2305168
		C18.3051243,1.7024921,18.2571106,1.6165748,18.2403049,1.5065107z"/>
	<path class="st15" d="M18.0495377,1.3130162c0.1041279,0.030043,0.1705513,0.0971885,0.1989098,0.2019178
		C18.1380615,1.4910681,18.0712452,1.4242836,18.0495377,1.3130162z"/>
	<path class="st15" d="M17.8568058,1.1202437c0.1035652,0.0295216,0.170229,0.0959852,0.1996307,0.1996716
		C17.9451694,1.298095,17.8790665,1.2310698,17.8568058,1.1202437z"/>
	<path class="st15" d="M17.6559296,0.9284338c0.1063347,0.0273556,0.1756458,0.0934181,0.2077351,0.1984683
		C17.7521954,1.1049213,17.684288,1.0373749,17.6559296,0.9284338z"/>
	<path class="st16" d="M26.5507412,26.3818264c-0.0646191,0.0003204-0.1291981,0.0006008-0.1938076,0.0009232
		c-0.2591648,0.0955429-0.4055691-0.1352139-0.6067238-0.2080956c-0.6185093-0.2241802-1.1623306-0.159441-1.6629543,0.3272228
		c-0.4768772,0.4636021-0.7388,1.1375828-1.394043,1.4235725c-0.203289-0.0708752-0.4065704-0.1417503-0.6099319-0.2126675
		c0.0181694-0.3092136,0.0364609-0.6183872,0.0547504-0.9275608c0.2104626-0.3012733,0.2080555-0.6305428,0.1274319-0.9700813
		c0.2316799,0.0393105,0.1805801,0.3247375,0.4115372,0.4434261c0.3782444-0.5497589,0.2639294-1.1619301,0.1211739-1.7080784
		c-0.1312809-0.5021877,0.0483742-0.8794689,0.2379856-1.2716331c0.1261406-0.2608414,0.4330292-0.3957729,0.6268044-0.1324463
		c0.5961266,0.8101978,1.3964977,1.3999481,2.1152821,2.0776196C26.2544823,25.4640102,26.7766857,25.6733093,26.5507412,26.3818264
		z"/>
	<path class="st16" d="M21.9795933,28.7135468c0.2113438,0.2374573,0.1139145,0.5216808,0.1196098,0.7903442
		c-0.0482922-0.0231838-0.0976295-0.0438423-0.1480083-0.0619717C21.9606609,29.1991291,21.9701271,28.956337,21.9795933,28.7135468
		z"/>
	<path class="st16" d="M22.0950718,27.709013c0.0142403,0.2040825,0.0592842,0.4140224-0.1105843,0.5831299
		C21.9411354,28.0825233,21.9252434,27.8782005,22.0950718,27.709013z"/>
	<path class="st17" d="M26.5507412,26.3818264c-0.0105896-0.5506821-0.598526-0.7160988-0.7724953-1.1577587
		c0.0265541-0.4779606,0.4644833-0.8377132,0.3867092-1.3456764c0.3166351-0.0768929,0.3332806,0.2157955,0.4551373,0.3741131
		c0.1503353,0.1953392,0.4285831,0.3638439,0.5490837,0.1660976c0.5118866-0.8401203,1.412735-0.526413,2.1115856-0.7906227
		c0.1176853-0.0445232,0.2296829-0.1041279,0.3537369-0.1316032c0.052145,0.0122337,0.1047306,0.0223007,0.1577568,0.0301228
		c0.0165253,0.1522598,0.066864,0.2850266,0.2098198,0.3644466c0.0085506,0.1561909,0.0552731,0.2934914,0.1911678,0.3866673
		c0.0102272,0.2110634,0.0290394,0.4196396,0.1737194,0.5911942c-0.0047722,0.3114204-0.0095062,0.6228008-0.0142784,0.9341393
		c-0.5005836,0.0275574-1.0210209-0.097147-1.4871883,0.1940174v-0.000843
		c-0.4637146,0.4635601-0.9525127,0.8066292-1.6588631,0.4875469C27.0122967,26.3958645,26.770668,26.4128723,26.5507412,26.3818264
		z"/>
	<path class="st18" d="M29.6820297,18.0708675c-0.2057667-0.0575981-0.2320805-0.2183628-0.2279491-0.396656
		c0.0550728,0.0152435,0.1102657,0.0300045,0.1655369,0.044363C29.6404037,17.8360195,29.6612129,17.9534245,29.6820297,18.0708675z
		"/>
	<path class="st19" d="M13.2963276-2.4038513c0.0265532,0.0860376,0.0308447,0.1899648,0.08323,0.2553053
		c0.3773222,0.4710612,0.1224575,0.5657629-0.3212881,0.5562967l-0.0076609-0.0030082
		c-0.0825481-0.0797403-0.1660919-0.1577157-0.2915258-0.1586382l-0.060647,0.0087843l-0.0388269-0.0473709
		c-0.0805025-0.0780156-0.1622086-0.1537447-0.2848997-0.1531831c-0.2786179-0.0870405-0.5572271-0.174121-0.8358364-0.2612015
		c-0.1295986-0.1479287-0.268261-0.2923276-0.2016773-0.5168278c0.330513-0.8036199,0.8354683-0.2191253,1.2744007-0.1601624
		c0.0096664,0.0503793,0.0262718,0.0983918,0.049777,0.1439979c0.1004772,0.1159604,0.2864714,0.0621717,0.3801298,0.1916091
		l0.0044127,0.0019655c0.0742455,0.062613,0.1302795,0.1544666,0.2448759,0.1521804L13.2963276-2.4038513z"/>
	<path class="st14" d="M12.7590828-1.7538958c0.1242313,0.0031687,0.2233047,0.052505,0.2915258,0.1586382
		C12.9229355-1.5920888,12.8257875-1.644995,12.7590828-1.7538958z"/>
	<path class="st14" d="M12.3747091-1.9456655c0.1213675,0.0019252,0.2186766,0.0486945,0.2848997,0.1532232
		C12.535305-1.7889928,12.4400415-1.8395324,12.3747091-1.9456655z"/>
	<path class="st20" d="M13.4325438,22.7125301c0.0004005,0.2228966,0.02178,0.4617558-0.1596813,0.6264896
		c-0.5789595,0.5256138-0.6881809,1.2725964-0.916131,1.9557228c-0.1846695,0.5535698-0.0612488,0.739603,0.5419779,1.1052933
		c-0.0915737,0.1076584-0.1831865,0.2153549-0.2747593,0.3229733c-0.151659,0.0261917-0.2808561,0.0857162-0.3500071,0.234808
		c-0.1056118,0.009346-0.1816139,0.059845-0.2220936,0.1597214c-0.2383385,0.0639763-0.4315119,0.1910477-0.563797,0.4032745
		c-0.1040077,0.0126743-0.1790876,0.0643768-0.2198477,0.162529c-0.0587149,0.0225811-0.1198912,0.0403919-0.1756849,0.0687084
		c-0.2181625,0.1108665-0.4421415,0.3378544-0.685895,0.1481304c-0.252738-0.196703-0.017087-0.467411-0.0090647-0.7056694
		c0.1340904-0.0904503,0.1786928-0.2285519,0.2013559-0.3782845c0.1859541-0.1662598,0.3122225-0.3650494,0.3375721-0.6188698
		c0.1439581-0.0840721,0.1947384-0.2188854,0.2049665-0.3758392c0.1413908-0.0835915,0.1924515-0.2180023,0.2092257-0.371706
		c0.1916819-0.1574345,0.316186-0.3549004,0.3589039-0.601181c0.1440849-0.0709553,0.2047653-0.1991501,0.2377768-0.3463573
		c0.0518227-0.074646,0.1036062-0.1493721,0.1554289-0.2240582c0.2144728-0.1300392,0.3411026-0.3235741,0.4060421-0.5617123
		c0.0998755-0.0389881,0.1511374-0.114275,0.163291-0.2187634c0.2149935-0.125267,0.3458357-0.3151112,0.4206018-0.5479946
		c0.1024427-0.0339737,0.154747-0.107336,0.1667404-0.212347C13.3172655,22.729538,13.3749447,22.7212334,13.4325438,22.7125301z"/>
	<path class="st21" d="M20.5656471,18.0831013c-0.3985405,0.0345764-0.7408867-0.0105076-0.9111156-0.4610329
		c-0.1984692-0.5254116-0.5777569-0.5667248-1.0703564-0.3873501c-0.3148308,0.1146374-0.7188663,0.3971367-0.9378719-0.1665401
		c0.0200958-0.1022415,0.0401917-0.2044449,0.0603352-0.3066463c0.2051983-0.1642151,0.1777229-0.2923279-0.0620594-0.3828182
		c-0.330513-0.1247044-0.7501125-0.1106663-0.8685112-0.5624743c0.0569096-0.0634546,0.1138268-0.1269102,0.1707439-0.1903257
		c0.149292-0.0253496,0.2821789-0.0774136,0.3595524-0.2201681c0.2509327-0.0354576,0.4540939-0.1513777,0.6033878-0.3581085
		c0.1585979-0.0890865,0.3171558-0.1782131,0.4756737-0.2673788c0.7627945,0.5393295,1.4997425,1.0974312,1.6307926,2.1232643
		C20.0737286,17.3539276,20.5413399,17.6157303,20.5656471,18.0831013z"/>
	<path class="st22" d="M19.9932671,9.2160473c-0.1443596,0.3891153-0.5697746,0.5687313-0.5594254,1.1358576
		c0.009346,0.5150633,0.0179691,0.8634253,0.4689751,1.1392269c0.3707447,0.2267065,0.3790073,0.7117662,0.6682053,1.0027304
		c-0.4459915,0.3547401-0.7725735,1.0138407-1.5213223,0.5967283c0,0-0.0540295-0.0449638-0.0540695-0.0450039
		c0.017971-0.2409859,0.0359001-0.4819717,0.0538692-0.7229176c0.0858364-0.244154,0.1713943-0.4881487-0.2505322-0.448719
		c-0.1702709,0.0644579-0.34058,0.1289558-0.5108509,0.1934137c-0.0072594-0.0499382-0.0183716-0.0989933-0.0332527-0.1472063
		c-0.783083-0.417634-0.4573822-0.944088-0.1455612-1.4692183c0.0568771-0.0506201,0.1232204-0.0577202,0.1948586-0.0358992
		c-0.082468-0.1085005-0.2074528,0.0245876-0.29702-0.0517035c-0.6332302-0.4309101-1.2099838-0.9219065-1.6733036-1.5363235
		c-0.0522232-0.0133171-0.1046886-0.0257511-0.1573143-0.0372629c0.0235863-0.0420361,0.0227032-0.0835114-0.0026875-0.124464
		c0.2481251-0.2625656,0.4962502-0.5251303,0.7443771-0.7876959c0.1065407-0.0188923,0.1738396-0.0803418,0.2009544-0.1853118
		c0.1048088-0.0207777,0.1727982-0.0813046,0.2002735-0.1855526c0.1051292-0.0237055,0.169508-0.0880432,0.1929321-0.193294
		c0.1051311-0.0290403,0.1639328-0.0988731,0.1810608-0.2054076c0.1150379-0.0845132,0.2300358-0.1690269,0.3450336-0.25354
		c0.2736359,0.1225786,0.4569817,0.3966956,0.8408413,0.3402195c0.3540192-0.0520234,0.5398521,0.1580768,0.3312359,0.5336742
		c-0.0292015,0.0759301-0.1551094,0.0370626-0.1678162,0.136858c0.0785694,0.0072203,0.0854359-0.1117082,0.1709843-0.0965066
		c0.6021042,0.1835876,0.6524906,0.7671995,0.8878136,1.2162399C20.0953083,9.0755396,20.0575638,9.1520309,19.9932671,9.2160473z"
		/>
	<path class="st15" d="M18.6242046,2.0897217c0.5261745-0.0661826,0.3665733-0.487306,0.4146652-0.8009725
		c0.0592842,0.0057759,0.118288,0.0132365,0.1771374,0.0223016c0.014473,0.1063337,0.0705948,0.1779716,0.1746349,0.2097394
		c0.0135574,0.1055315,0.0681477,0.1779716,0.1706314,0.211785c0.134058,0.306567,0.3400593,0.5518847,0.6230087,0.7317014
		c0.0153141,0.1084595,0.0743179,0.1778913,0.1820545,0.2038431c0.1949387,0.1904459,0.3899574,0.380892,0.5848961,0.5713782
		c0.0033684,0.1079783,0.0501385,0.1870368,0.1525021,0.2291529c0.0894871,0.175525,0.1790543,0.3510499,0.2685814,0.5265746
		c-0.4662876,0.1537046-1.0162468,0.1804185-1.1870804,0.7823615c-0.2105808,0.2945733-0.46031,0.5794005-0.8543987,0.4303889
		c-0.304121-0.1149979-0.2360935-0.3980598-0.1176853-0.6435781c-0.0129166-0.4546156,0.2275085-0.9388335-0.1577168-1.3499291
		c-0.0008411-0.1590393-0.0378647-0.3020344-0.1772079-0.3996639c-0.0096264-0.1561513-0.050581-0.2966194-0.1931343-0.3863072
		C18.6647968,2.3155856,18.6445007,2.2026336,18.6242046,2.0897217z"/>
	<path class="st15" d="M19.0450878,1.2980549c-0.1092625-0.0352975-0.1730385-0.1087404-0.1872368-0.2237782
		C18.9739704,1.1038785,19.0314102,1.1826962,19.0450878,1.2980549z"/>
	<path class="st15" d="M18.8743763,1.0909629c-0.1208134-0.0236654-0.1887627-0.0960253-0.2019577-0.2191655
		C18.7905846,0.8979496,18.8567677,0.9721145,18.8743763,1.0909629z"/>
	<path class="st15" d="M18.6903877,0.8889648c-0.123373-0.013397-0.1953392-0.081826-0.2176018-0.2035623
		C18.5904312,0.7049766,18.6647167,0.770999,18.6903877,0.8889648z"/>
	<path class="st15" d="M18.4902744,0.7022892c-0.1175251-0.016285-0.1909275-0.0829893-0.2238178-0.1959012
		C18.3809738,0.5261225,18.4605923,0.585687,18.4902744,0.7022892z"/>
	<path class="st23" d="M26.1649551,27.3462906c0.2279892,0.2418671,0.4230156,0.465004,0.8100853,0.5462685
		c0.376873,0.0791397,0.7801876,0.2217731,1.1195259,0.4811287c0.2799721,0.2140312,0.5869408,0.3650494,0.5968151,0.7840462
		c0.0054874,0.2341671,0.2020702,0.2955761,0.4012604,0.3231735c-0.0180492,0.2483654-0.0360985,0.4967308-0.0541897,0.7450581
		c-0.2086163,0.2863102-0.1888409,0.6230011-0.2098198,0.9507065c-0.1580753,0.3489227-0.369091,0.6457024-0.7565289,0.769043
		c-0.169508-0.0206966-0.316555,0.0135574-0.4138641,0.1693478c-0.1037655,0.0341339-0.1623669,0.1061325-0.1789341,0.2133904
		c-0.2484055,0.1947365-0.3547001,0.4638824-0.4002247,0.7647514c-0.134613,0.1004791-0.1713543,0.2434349-0.1741219,0.4011078
		c-0.1371384,0.0947838-0.1818619,0.233448-0.1861935,0.3913612c-0.1704712,0.2694244-0.3409424,0.5388489-0.5114136,0.8082733
		c-0.3078499-0.1859512-0.5449848-0.1491699-0.852314,0.0905724c-0.6212769,0.4846992-0.8851643,0.3478813-1.1785278-0.3819771
		c-0.2464085-0.6127739-0.0652275-1.2625656-0.2711163-1.8887367c-0.1370983-0.4169121-0.1868763-0.8688812-0.4200802-1.2565918
		c-0.2281437-0.3793278-0.2254238-0.7921085-0.2137909-1.2099419
		C23.7135429,28.5266304,24.8406563,27.4744854,26.1649551,27.3462906z"/>
	<path class="st24" d="M19.2131519,4.5643978c0.020256,0.3648882,0.0089035,0.7637095,0.549839,0.366693
		c0.1158791-0.0850348,0.2802143-0.1040473,0.422245-0.1535039c0.4068851,0.3653288,0.9015713,0.120894,1.3504906,0.1944571
		c0.0578403,0.069993,0.1284351,0.1271911,0.1917305,0.1917295l0.0009232,0.0010028
		c0.1699886,0.2740769,0.4003849,0.5028291,0.5786781,0.770649v0.0004811
		c0.0627327,0.0657015,0.1268711,0.1300392,0.1928921,0.1924114v0.0004816
		c0.0627346,0.0657415,0.1268711,0.1300392,0.192894,0.1924515V6.321692
		c0.0647392,0.0637364,0.1219769,0.1350131,0.1928997,0.1925721V6.514585
		c0.0506535,0.0503793,0.0690231,0.1022024,0.0551853,0.1554294c-0.013998,0.0539088-0.0289192,0.0808635-0.0441628,0.0807428
		c-0.080862,0.0436807-0.1676636,0.0657821-0.2559071,0.0641775c-0.5775547,0.0835109-0.9345016,0.4683337-1.2346897,0.9269605
		c-0.3596745,0.549438-0.7139721,1.1036086-1.4119415,1.2790532c-0.1224575-0.3327589-0.542057-0.482172-0.5197544-0.9262381
		c0.0092659-0.1839085-0.2592697-0.2187648-0.4466343-0.2307978v0.000802
		c0.0538692-0.2252221,0.4368877-0.6185489-0.2349682-0.4792838c-0.4513283,0.0935383-0.6163826-0.1930938-0.7544041-0.5309467
		c0.0129147-0.110024,0.0258713-0.220048,0.0387936-0.3300719c0.1403408-0.2465611,0.2806473-0.4931622,0.4209156-0.7397232
		c0.3366508-0.3175573,0.5013847-0.7181039,0.5638771-1.1679869C19.1136761,4.6029844,19.1640568,4.585536,19.2131519,4.5643978z"/>
	<path class="st10" d="M14.3879023,25.6307507c0.0721674-0.059885,0.1661396-0.1853104,0.2131491-0.1696682
		c0.5024281,0.1671829,1.0768948,0.0199356,1.5387306,0.352293c-0.0059757,0.0572376-0.0119534,0.1145172-0.0179214,0.1717548
		c-0.1045761,0.0180492-0.1743298,0.0759697-0.2050142,0.1787739c-0.1034861,0.0190125-0.1741209,0.0766525-0.2083759,0.1771297
		c-0.1038065,0.0189323-0.1717138,0.0782967-0.2023592,0.179615c-0.2787218,0.1123505-0.5194349,0.3887138-0.8677168,0.2010765
		c-0.0520239-0.2522564-0.0247879-0.5286617-0.2242994-0.7359943
		C14.4053907,25.8674049,14.3966465,25.7490788,14.3879023,25.6307507z"/>
	<path class="st18" d="M28.6430798,20.2350464c0.395092-0.0070992,0.3726311-0.3440704,0.3042812-0.5315895
		c-0.1279125-0.3507671-0.2081356-0.6229992,0.2200069-0.7919865c-0.2778072-0.4369678,0.1245842-0.4102535,0.3433895-0.5366821
		c0.0868397-0.0501385,0.1085796-0.2130699,0.1601295-0.3247375c0.1143494,0.0795803,0.2285843,0.1593189,0.3427792,0.2390995
		c0.0166149,0.105732,0.0732021,0.17729,0.1776104,0.2080555c0.018652,0.1061325,0.0791397,0.1743221,0.183588,0.2026806
		c0.0237045,0.1039658,0.0867996,0.169548,0.1904049,0.1956596c0.0265942,0.1037273,0.0935001,0.1653366,0.1971054,0.1886005
		c0.0237465,0.1027241,0.0853157,0.169548,0.1876793,0.1977463c0.0162849,0.1043282,0.0732422,0.1740417,0.1751232,0.2054482
		c0.0323696,0.1480885,0.0934982,0.2757626,0.2419071,0.3416634c0.0090256,0.1074581,0.0602074,0.1838284,0.1636524,0.221653
		c0.0166054,0.104208,0.0742455,0.1739998,0.1745224,0.2079334c0.123621,0.2665367,0.3152294,0.4640026,0.5879841,0.5791206
		c0.0351791,0.1005573,0.1071854,0.1553097,0.2113838,0.1700287c0.0338554,0.1039276,0.1070976,0.1587601,0.2139931,0.1715946
		c0.0801392,0.1657372,0.2136765,0.3164349,0.1470032,0.523365c-0.1651344,0.002367-0.3302307,0.004734-0.495327,0.0071011
		c-0.1581154-0.1656189-0.365448-0.1857529-0.5764332-0.1950188c-0.2948933-0.208456-0.6201916-0.3349266-0.9816704-0.3635654
		c-0.150095-0.1764069-0.3490047-0.2201672-0.5680904-0.2090969c-0.3850231-0.128355-0.7700863-0.2567101-1.1551094-0.3850231
		C28.9403419,20.4497185,28.7916908,20.3423824,28.6430798,20.2350464z"/>
	<path class="st18" d="M28.1110115,20.2177181c0.0957432-0.2799339,0.2198467-0.2736759,0.5523643,0.0278778
		C28.479269,20.2364101,28.2951603,20.2270641,28.1110115,20.2177181z"/>
	<path class="st2" d="M28.299612,20.7844048c-0.1784935-0.0816269-0.2020378-0.2374573-0.1954193-0.4078083
		C28.2416515,20.4778366,28.298008,20.6180248,28.299612,20.7844048z"/>
	<path class="st14" d="M13.041503-2.5482502c-0.1568727-0.0040913-0.2976217-0.0400305-0.3801298-0.1916091
		c0.1139946,0.0141189,0.2279902,0.0282381,0.3419847,0.042357C13.0115404-2.6466017,13.0242558-2.5968645,13.041503-2.5482502z"/>
	<path class="st14" d="M13.2907915-2.3941042c-0.1131124-0.0000803-0.1929321-0.0536282-0.2448759-0.1521804
		C13.1602716-2.5482502,13.2479935-2.507297,13.2907915-2.3941042z"/>
	<path class="st11" d="M20.3804569,23.8809586c0.0366611-0.060648,0.0733223-0.1212959,0.1099434-0.1819038
		c0.0212994,0.0470905,0.037302,0.0959053,0.0479717,0.1464443C20.4852657,23.8554478,20.4326401,23.867239,20.3804569,23.8809586z"
		/>
	<path class="st25" d="M14.3886242,19.4048729c-0.4293051,0.5970898-0.307168,1.1941395,0.0323696,1.7686062
		c0.0956316,0.1617661,0.130641,0.2618427-0.0150414,0.386507c-0.2498903-0.3664112-0.6209154-0.2092571-0.9530325-0.2204895
		c-0.2257032-0.1581955-0.501586-0.1340504-0.7508345-0.2067299c-0.1249847-0.2360535-0.1172438-0.4779606-0.0320482-0.7233181
		c0.1032047-0.0230236,0.17027-0.083952,0.1968307-0.187439c0.1021547-0.0148811,0.1783657-0.0646172,0.2186766-0.1626492
		c0.1486511-0.0291595,0.2763634-0.0901279,0.3520126-0.2306366c0.248848-0.0386677,0.44876-0.1587181,0.6000175-0.3599949
		C14.1545782,19.4474297,14.2716217,19.4261322,14.3886242,19.4048729z"/>
	<path class="st21" d="M18.6432571,14.4333c-0.0412331,0.0557938-0.082468,0.1116276-0.1235733,0.1673822
		c-0.0111179-0.0462484-0.0208588-0.0927362-0.029089-0.1395454C18.542017,14.4546785,18.5928783,14.4453726,18.6432571,14.4333z"/>
	<path class="st21" d="M18.8268452,14.0228863c-0.0027676,0.0689096-0.0055752,0.1377802-0.008625,0.2066507
		c-0.0002403,0-0.0877609,0.0006418-0.0877209,0.0006018c-0.0167675-0.0530672-0.0330925-0.1062536-0.0488148-0.1596012
		C18.7310677,14.0574617,18.7793941,14.0415773,18.8268452,14.0228863z"/>
	<path class="st26" d="M29.6344986,23.496376c-0.0036488,0.2683811-0.1820621,0.465847-0.4023914,0.4400558
		c-0.3893948-0.0455265-0.741888,0.2025585-1.1108685,0.1046486c-0.2893982-0.0768127-0.3777637,0.0251083-0.4635124,0.2781277
		c-0.151186,0.4459915-0.5680962,0.4804077-0.9370766,0.4498024c-0.3734703-0.0309658-0.3290291-0.3994236-0.3913212-0.6698494
		c-0.0188522-0.0819073-0.1076164-0.1476879-0.1643734-0.2208099c-0.1537457-0.085516-0.189724-0.2293949-0.1928921-0.3894768
		c0.3962936-0.5845737,1.3978615-1.0993156,2.0092697-0.8862877c0.5880241,0.2049255,0.7291336-0.120573,0.9062634-0.5088863
		c0.1165218,0.147007,0.2330437,0.2940922,0.3495655,0.4411392c-0.0010033,0.1613655,0.044651,0.2994671,0.1929722,0.3862267
		C29.4982433,23.1128349,29.566391,23.3046055,29.6344986,23.496376z"/>
	<path class="st26" d="M28.8154774,21.9367466c-0.044363-0.0720787-0.0887661-0.1441574-0.1331291-0.2162361
		c0.0538692,0.019453,0.1086216,0.0359383,0.1642952,0.0494957C28.8375778,21.82584,28.8271885,21.8814335,28.8154774,21.9367466z"
		/>
	<path class="st27" d="M16.3338375,8.827013c0.6840496,0.461154,1.3528576,0.9413605,1.92243,1.5449877
		c-0.0889645,0.1656179-0.0320873,0.4289846-0.1135921,0.5134182c-0.4023914,0.4169922-0.0843945,0.7103624,0.1121883,1.0347385
		c-0.1233006,0.0009623-0.2466412,0.0019255-0.3699818,0.0028877c-0.3780441,0.0228233-0.5457878-0.1335688-0.6272125-0.528861
		c-0.1169624-0.5675678-0.1700287-1.2044468-0.9063435-1.4265404c-0.2287121-0.0690308,0.0037308-0.3356476-0.014801-0.5110121
		C16.5133419,9.2460508,16.4616318,9.0363913,16.3338375,8.827013z"/>
	<path class="st28" d="M22.6928444,6.7069964c0.0642967-0.0001602,0.1285954-0.0003209,0.1928997-0.0004811
		c0.103487,0.0256305,0.1680641,0.0899682,0.1928864,0.1938553c0.8799496,0.5017462,1.6454239,1.1881618,2.6060448,1.5684528
		c0.2248135,0.0890055,0.4905567,0.0957842,0.6066685,0.1917295c-0.311018,0.8805923-1.1681461,1.5085669-0.737196,2.6171494
		c0.1498547,0.3854647,0.3262691,0.6952009,0.6379623,0.9160109c0.620882,0.4398146,1.2664585,0.8447733,1.9018135,1.2641315
		l0.0003605,0.0009632c0.0641785-0.0644579,0.128355-0.1289167,0.1925316-0.1933746
		c0.0618114,0.000802,0.1234627,0.0044527,0.1848717,0.01091c0.1561108,0.200675,0.3121815,0.4013491,0.531147,0.682766
		c-0.6969662,0.1786938-0.4452705,1.4865065-1.5873451,1.0818291c0.1157608,0.3427868,0.3310757,0.5012245,0.5214806,0.6611462
		c0.3650894,0.3066874,0.2616425,0.6503172,0.0496178,0.9312525c-0.274519,0.3636837-0.5534821,0.1335697-0.8000908-0.1017208
		c-0.0301552-0.0287991-0.1056919-0.0100689-0.2635994-0.0195351c0.4024239,0.4846592,0.4368057,1.0874443,0.8196964,1.5259762
		c0.020937,0.0239868,0.0450039,0.0494976,0.0543175,0.078537c0.0286713,0.0894871,0.0839443,0.2551842,0.0707874,0.2610817
		c-0.5656033,0.2523365-0.0871601,0.8359089-0.3745537,1.1667423c-0.305645,0.3518524-0.6638756,0.3230934-1.0470524,0.1404285
		c-0.0834713-0.0397911-0.1875191-0.0364208-0.2820606-0.0529461c-0.0486946-0.0111523-0.0973892-0.0223026-0.1460838-0.0327301
		c-0.0900478-0.0446033-0.1670208-0.1061745-0.2320004-0.1827049c-0.3833389-0.8947926-0.3305931-1.8982849-0.6947193-2.7983303
		c-0.0167656-0.0926571-0.0196133-0.1867962-0.0145988-0.2805347c0.04035-1.1414337,0.3303509-2.2914104-0.108942-3.4165983
		c-0.038065-0.066103-0.0804138-0.1319647-0.1239414-0.1939764c-0.105051,0.0044527,0.0206165-0.1881199-0.1270313-0.1505356
		c0.0751667,0.0745258,0.133255,0.1612453,0.1896439,0.2500105c0.0713978,0.1281538,0.1628494,0.2474842,0.1650963,0.4033546
		c-0.1014004,0.1581163,0.0208168,0.2850266,0.0600929,0.4246931c0.1020737,0.2559471,0.0977421,0.5027885-0.0543175,0.7391214
		c-1.1802197-0.3832989-1.4092922-1.0067406-0.8394794-2.2764883c0.2013569-0.3286686,0.0220623-0.6211958-0.0911312-0.920784
		c-0.0216599-0.0856361-0.0261116-0.1712732-0.0133972-0.2585545c0.3705444-0.445631,0.4895935,0.0076218,0.7181034,0.1701107
		c-1.4779224-0.8357487-1.5090885-2.4918842-2.180624-3.7852569C22.5707874,7.1302056,22.4932117,6.9047828,22.6928444,6.7069964z"
		/>
	<path class="st29" d="M22.3070583,5.9354253c-0.3089657-0.1697493-0.5637569-0.3801303-0.5786781-0.770649
		C22.0379543,5.334044,22.2919369,5.5450268,22.3070583,5.9354253z"/>
	<path class="st29" d="M23.0786304,6.9003706c-0.0642586-0.0646186-0.1285553-0.1292367-0.1928864-0.1938553
		c0-0.0639768,0-0.1279535,0-0.1919303C23.0064774,6.6149421,23.3150826,6.6213999,23.0786304,6.9003706z"/>
	<path class="st29" d="M22.8857441,6.5142641c-0.0643044-0.0642176-0.128603-0.1283946-0.1928997-0.1925721
		C22.7571411,6.3858695,22.8214397,6.4500866,22.8857441,6.5142641z"/>
	<path class="st29" d="M22.6928444,6.3212509c-0.0642986-0.064137-0.1285954-0.1283145-0.192894-0.1924515
		C22.564249,6.1929364,22.6285458,6.2571139,22.6928444,6.3212509z"/>
	<path class="st29" d="M22.4999504,6.1283178c-0.0643368-0.064137-0.1285954-0.128274-0.1928921-0.1924114
		C22.3713551,6.0000439,22.4356537,6.0641809,22.4999504,6.1283178z"/>
	<path class="st29" d="M21.727457,5.1637735c-0.0639362-0.0639367-0.1278324-0.1278334-0.1917305-0.1917295
		C21.5996647,5.0359402,21.6635208,5.0998769,21.727457,5.1637735z"/>
	<path class="st30" d="M26.3588104,20.5959625c0.0132771,0.0615311,0.0281582,0.1771297,0.039629,0.1768093
		c0.5353603-0.0157642,0.8574486,0.4329567,1.3087368,0.5950031c-0.2699871,0.3197632-0.5794411,0.4411392-0.9625797,0.1912079
		l-0.0018845,0.0014038c-0.0751286,0.0542698-0.1440792,0.141592-0.2264271,0.1568737
		c-0.3155117,0.0585213-0.4331551-0.5767136-0.9185371-0.2038422c-0.2118969,0.1627693-0.640007-0.244236-1.0590858-0.1858749
		c-0.3718662,0.0517445-1.0193348-1.0317287-1.0799026-1.5051975c-0.1583576-1.2378197-0.1489716-2.5088902-0.6730995-3.6814499
		c-0.2154751-0.482091-0.302227-1.0229044-0.3658905-1.5196772c-0.132164-1.0309677-0.4478359-1.9766197-0.8842831-2.8998909
		c-0.1126709-0.1283941-0.1067753-0.2565079,0.0009308-0.3843813c0.119442-0.1014004,0.428978-0.1084194,0.1919632-0.3867083
		c-0.136097-1.0379877-0.0071411-2.0704393,0.0887241-3.1007257c0.0249901-0.2686219,0.1274719-0.5915141,0.4809284-0.6282954
		c0.3539791-0.0368619,0.479887,0.2601986,0.6040688,0.5149822c0.2921276,0.5993357,0.4851398,1.2385817,0.7285004,1.8564482
		c0.107008,0.5165071-0.2239056,0.9103947-0.3799362,1.3524561c-0.0243073,0.3341236,0.0987587,0.6743031-0.0312881,1.0006046
		c-0.2607594,0.2725525,0.1985893,0.0994339,0.157074,0.2406645c0.4745922,1.4109373,0.6434975,2.8620663,0.5938892,4.3429966
		c-0.0009308,0.0284786-0.0263615,0.0553932-0.0036106,0.0801411c0.3860588-0.2411461,0.4097252,0.1160412,0.4679661,0.3117428
		c0.2516212,0.8456955,0.8096752,1.5760326,0.9230289,2.4728298c0.0115128,0.0911312,0.0756092,0.1704311,0.1875172,0.1825848
		c0.3544598,0.149332,0.4137039,0.4207211,0.3360901,0.7641106c-0.0277176,0.1226597-0.0334053-0.0383053-0.0032501,0.083992
		c0.0239067,0.0967865,0.0826683,0.0827484,0.0977497-0.0227032c0.1270313,0.0641384,0.2540627,0.1282749,0.3811016,0.1924114
		L26.3588104,20.5959625z"/>
	<path class="st31" d="M19.0496998,13.0905905c0.3147907-0.0250292,0.6422939,0.0136375,0.8365116-0.3440704
		c0.14147-0.2606001,0.4233284-0.2559872,0.6848106-0.2526579c0.1509781,0.0648994,0.3231335,0.1571541,0.2871208,0.3329201
		c-0.1672287,0.8168163,0.4497147,1.4149084,0.5756226,2.147171c0.0102291,0.0596046,0.0436401,0.1367378,0.0907707,0.1652164
		c0.7109241,0.429306,0.4079266,1.1924133,0.5204372,1.7872562c0.0695133,0.3674164-0.0230637,0.8039818,0.1740017,1.1594028
		c0.2390995,0.4312325,0.1017609,0.920784,0.2791309,1.3526974c-0.4726257-0.0028076-0.7377586-0.0983925-0.7402782-0.7129288
		c-0.0022926-0.5655632-0.0869675-1.1752071-0.3710232-1.7141762c-0.1021709-0.1938553-0.240633-0.4287033-0.2098274-0.6203537
		c0.0685883-0.4273005-0.0055676-0.6262493-0.4801674-0.6934757c-0.2982235-0.0422363-0.4344006-0.4068432-0.4651241-0.6754255
		c-0.0823479-0.7205505-0.3818951-1.2625675-1.0375061-1.5976133
		C19.0718422,13.3620205,19.0517464,13.2223148,19.0496998,13.0905905z"/>
	<path class="st29" d="M23.4644146,9.792841c-0.1115875-0.8019753-0.4615135-1.5148649-0.833662-2.218689
		c-0.0612488-0.1157198-0.1632519-0.2074132-0.2998276-0.1989899c-0.1550694,0.0095463-0.1829052,0.1440783-0.2136707,0.2712293
		c-0.0523853,0.2164378-0.173399,0.4333568-0.1628819,0.6449819c0.0446358,0.8987226-0.2073002,1.768405-0.2259922,2.658865
		c-0.2113438-0.1579161-0.1922512-0.3885536-0.1926117-0.6125326c-0.0006428-0.3849831,0.0073795-0.7701674-0.0028896-1.1549101
		c-0.0074596-0.2790909,0.1004791-0.644701-0.2175198-0.7789516c-0.2806549-0.1184874-0.417593,0.2256231-0.6009808,0.384181
		c-0.2168312,0.187438-0.3926449,0.4325552-0.7211113,0.4279823c0.0002804-0.0649796,0.0006008-0.1300392,0.0009212-0.1950588
		c0.4255772-0.2366934,0.8703728-0.5797215,1.0115623-0.9717245c0.2171936-0.6031055,0.4996128-0.9776602,1.0967026-1.2105036
		c0.2640095-0.1029243-0.2476044-0.3247771-0.0773735-0.5705361c0.2940121,0.0251899,0.3983402,0.367455,0.6677647,0.4388123
		c0.6906757,1.7079577,1.0793495,3.5751157,2.6724224,4.7934813c-0.3320389,0.2619638-0.4352436,0.0336933-0.5424595-0.0775738
		c-0.1293964-0.1343718-0.1895638-0.341423-0.3287888-0.4589481c-0.2236176-0.1888018-0.2306767,0.0320082-0.2579918,0.1800976
		C23.4186497,11.0135326,23.7375298,10.2341805,23.4644146,9.792841z"/>
	<path class="st29" d="M21.536417,11.3369465c-0.000288,0.1281137-0.0006084,0.2562675-0.0009308,0.3843813
		C21.3372993,11.5927324,21.3385029,11.4645786,21.536417,11.3369465z"/>
	<path class="st21" d="M20.5715847,18.4727383c0.0012035-0.1260281,0.0024471-0.2520561,0.0037289-0.3780441
		C20.7760696,18.2227669,20.7627525,18.3486347,20.5715847,18.4727383z"/>
	<path class="st32" d="M25.975832,20.4020672c-0.0111504,0.1215763-0.0223007,0.2431526-0.0334911,0.364687
		c-0.2372074-0.3633633-0.0067387-0.927681-0.5489578-1.1357765c-0.1202106-1.0260754-0.7374363-2.0210629-0.1932125-3.0886917
		c0.4098511,0.5954037,0.4946461,1.2900028,0.5691395,1.9777431c0.0345669,0.3190002,0.0372543,0.6339512,0.2051182,0.9186974
		c0.0677471,0.0600452,0.1183681,0.1369781,0.1901264,0.1930943c0,0-0.0005226,0.0000401-0.0005226,0.0000801
		C26.1950779,19.9115524,26.1023827,20.1609612,25.975832,20.4020672z"/>
	<path class="st30" d="M26.3569336,20.5944786c0.0150738-0.0266724,0.03545-0.0779743,0.0444355-0.0760498
		c0.0648575,0.013958,0.0496559,0.0445232-0.0425587,0.0775337L26.3569336,20.5944786z"/>
	<path class="st33" d="M26.1649551,27.3462906c-0.4151459,0.476717-1.1285973,0.4190769-1.5605106,0.9273605
		c-0.3877106,0.4562607-0.8820362,0.8120041-1.001688,1.4522133c-0.0300426,0.1607628-0.1835384,0.2518559-0.331234,0.3214073
		c-0.1693478-0.7136517-0.6186295-1.3510132-0.5783577-2.1218224c0.345314-0.7276096,1.0222645-1.2008762,1.4384212-1.8750191
		c0.1084919-0.175766,0.2821712-0.2501297,0.4897842-0.2186031c0.0934582,0.0141983,0.2112236,0.0935383,0.2725544,0.0601254
		c0.6715336-0.366291,1.0377064,0.1455631,1.4630089,0.490797C26.3398781,26.7132626,26.1069145,27.0007763,26.1649551,27.3462906z"
		/>
	<path class="st9" d="M19.6047935,19.4358387c0.0154819-0.0264339,0.0362206-0.0773335,0.0456142-0.0753288
		c0.0648117,0.0139198,0.0498886,0.0452061-0.0416431,0.0792999C19.6087646,19.4398499,19.6047935,19.4358387,19.6047935,19.4358387
		z"/>
	<path class="st8" d="M28.8654957,25.9961205c-0.0268745-0.0147209-0.0786171-0.0352573-0.0767326-0.0433197
		c0.0149288-0.0643368,0.0449238-0.0486145,0.0767326,0.0441628V25.9961205z"/>
	<path class="st24" d="M19.0278397,7.8639126c-0.0146408,0.0269141-0.0346146,0.0786171-0.0431995,0.0767717
		c-0.0650196-0.0137978-0.0496159-0.0437207,0.0431995-0.0759697V7.8639126z"/>
	<polygon class="st27" points="18.2562675,10.3720007 18.3005905,10.2914181 18.3368912,10.3276787 	"/>
	<path class="st34" d="M25.2001705,16.5422859c-0.014473,1.0344963,0.3147087,2.0474949,0.1932125,3.0886917
		c-0.3392487,0.0235043-0.4068432-0.3891945-0.4043159-0.4682941c0.0321293-1.0075436-0.8573284-1.6698933-0.9450111-2.6185131
		c-0.2371349-1.6916323-0.4851398-3.382102-0.7043858-5.0755806c-0.0467682-0.3612375-0.3065262-0.346838-0.4531231-0.517911
		c0.214344-0.3750753,0.5571384-0.6860952,0.5778675-1.1578379c0.4642429,0.3321972,0.3069763,1.0192556,0.7716122,1.3512125
		v-0.0008821c0.0713177,0.3202438,0.3858662,0.5918341,0.1928921,0.9649048
		c-0.0709953,0.4032745-0.4267788,0.748107-0.4294262,1.1005201c-0.0028877,0.3914013,0.6553707,0.471262,0.777668,0.91926
		c0.0303249,0.1109858,0.1511784,0.1973047,0.2304459,0.2949343c0.4637127,0.6025848,0.3096066,1.2670202,0.1928844,1.9276848
		C25.2005711,16.4144115,25.200491,16.4783497,25.2001705,16.5422859z"/>
	<path class="st32" d="M25.200491,16.3504753c0.0020046-0.6491928,0.0451241-1.3025179-0.1928844-1.9276848
		c-0.0006504-0.3216887-0.0012913-0.6433773-0.001894-0.965106c-0.046608-0.0422764-0.062252-0.0847139-0.0470104-0.1272717
		c0.0152111-0.0426779,0.0305653-0.0639763,0.0460472-0.0639763c-0.0633259-0.1932545-0.1267014-0.3864679-0.1900444-0.5796814
		c0.4288654,0.4599905,0.7147751,0.9539547,0.6043491,1.6339531c-0.0703545,0.433157-0.0186501,0.8857269-0.027235,1.3294725
		C25.3870544,15.8983469,25.4418373,16.1657658,25.200491,16.3504753z"/>
	<path class="st29" d="M24.4289188,12.1080761c-0.0179291-0.3309135-0.2512932-0.6187487-0.1928921-0.9649048
		C24.4443626,11.4359798,24.8363323,11.6921272,24.4289188,12.1080761z"/>
	<path class="st29" d="M24.6218128,12.4933805c0.0646172-0.1317635,0.1289158-0.1312017,0.1928921,0.0004816
		C24.750248,12.5533466,24.6859493,12.5532265,24.6218128,12.4933805z"/>
	<path class="st34" d="M24.6218128,12.4933805c0.0642967,0.0001602,0.1285954,0.0003214,0.1928921,0.0004816
		c0,0.0642977,0,0.1285954,0,0.192893C24.7504082,12.6222973,24.6861095,12.5578384,24.6218128,12.4933805z"/>
	<path class="st34" d="M25.0047493,13.2664366c0.0014858,0.063736,0.0018463,0.127512,0.0010033,0.191288
		c-0.0756092-0.0265532-0.1052094-0.0742455-0.0742054-0.1356945C24.9439831,13.2974415,24.979681,13.284606,25.0047493,13.2664366z
		"/>
	<path class="st6" d="M28.0942841,13.4588079c-0.0149612,0.0267935-0.0355778,0.0784159-0.0440006,0.0764914
		c-0.064579-0.0147209-0.049015-0.045085,0.0436401-0.0774546L28.0942841,13.4588079z"/>
	<path class="st30" d="M26.1645546,19.6318207c-0.0634155-0.0643787-0.126791-0.1287556-0.1901665-0.1931343
		C26.0378036,19.5030651,26.1011791,19.5674419,26.1645546,19.6318207z"/>
	<path class="st35" d="M22.8865471,10.9506788c0.2397346-0.0379047,0.4843693,0.263689,0.7527905-0.0836706
		c-0.3658104,0.8913822,0.0122337,1.6837311,0.0962677,2.4764004c0.1130314,1.0660648,0.3658504,2.1172895,0.3084507,3.2007618
		c0,0.3094959,0,0.6189899,0,0.9285259c-0.0678673,0.0032883-0.1357746,0.0066185-0.2036419,0.0099468
		c0.0849152-0.9280834-0.0410328-1.8349886-0.196703-2.7321472c-0.1537056-0.8858471-0.0149612-1.8406448-0.5650806-2.6424198
		C23.0830421,11.7108994,23.1150494,11.3091898,22.8865471,10.9506788z"/>
	<path class="st2" d="M26.742712,21.5603867c-0.0830708-0.0431576-0.1822243-0.1727161-0.1382961-0.1910477
		c0.2194786-0.0916519,0.0887184,0.1243038,0.1401806,0.1896439L26.742712,21.5603867z"/>
	<path class="st35" d="M23.0740566,12.1978045c-0.0222206,0.0537481-0.041153,0.150816-0.0675468,0.1528625
		c-0.0745258,0.0058956-0.1043682-0.059886-0.059885-0.126029c0.0316467-0.0471296,0.104248-0.1197701,0.1291161-0.1095018
		C23.1935863,12.1636696,23.0795918,12.0693293,23.0740566,12.1978045z"/>
</g>
<g>
	<path class="st36" d="M8.7145643,20.7161102c-4.11762,4.9071884-3.1803823-4.7416754-3.1748991-6.6258774
		c2.9990768,1.7810345,0.8769331,2.712698,1.2480736,5.8969612c0.828547,1.4390259,2.4586439-2.133522,2.9606676,0.3874989
		C10.9200687,23.9594479,9.8900127,22.2512474,8.7145643,20.7161102z"/>
	<path class="st37" d="M7.0191064,15.4351101c-0.9687014,1.0215797-1.8747516-2.7319736-0.9682255,0.1276112
		c-0.203167,3.1112156-1.249361-1.0957489-1.2592802-2.293498c-1.0118229-5.5135727,5.2154956-0.9025097,1.7360334,1.0720415
		C5.500185,13.8186817,7.0114732,14.8469334,7.0191064,15.4351101z"/>
	<path class="st38" d="M19.1383286,27.7323761c-0.7688828-0.5622311-1.9095364,1.7024918-2.6835194-1.4963856
		C18.0718632,24.9389648,22.9525356,26.1091118,19.1383286,27.7323761z"/>
	<path class="st39" d="M18.2759171,28.2442055c0.0433254,1.8099709,0.3038235,7.9617081-2.180191,1.5156956
		C15.2613964,27.5591183,18.1518135,30.2298698,18.2759171,28.2442055z"/>
	<path class="st40" d="M18.1419048,31.36092c0.009943-0.5262108-0.15798-1.0665913,0.1250267-1.5709629
		C18.1802216,30.3052044,18.445116,30.9876232,18.1419048,31.36092z"/>
	<path class="st41" d="M31.7401199,32.8181458c-3.5081997,1.676384-8.8141289-1.2693253-2.4525127-3.3153992
		C34.1923714,28.3431683,39.5229073,31.9993706,31.7401199,32.8181458z"/>
	<path class="st42" d="M33.6582909,32.1708145c5.387043,0.2232475-1.0808487-3.7890453-3.1620007-2.636261
		c-1.6878147-0.5582809-6.2449379,4.5623169-4.9254704,0.4170074
		C30.2120628,24.2719917,43.6651573,32.2782478,33.6582909,32.1708145z"/>
	<path class="st43" d="M23.7621593,11.6877165c1.1287308,0.5835276,14.6874332-2.2191324,9.0368328,1.6906166
		c-1.8359318,1.6829758-1.911541-2.168705-5.0724812-0.0688581C24.4777317,13.1538715,19.2493649,15.974966,23.7621593,11.6877165z"
		/>
	<path class="st44" d="M26.5487461,12.5165014c-0.2452526-0.965724-2.3335266-1.0002785-1.9010811-1.4750452
		C26.6278534,9.3626366,27.5474644,10.1303282,26.5487461,12.5165014z"/>
	<path class="st45" d="M25.2906189,30.4626083c0.4546299,2.401226,3.6544895,2.2496147,3.3886642,5.1416855
		c-0.0987492,1.71455-1.2044029-0.889782-1.8433781-1.0520668C25.1050663,33.7792282,22.1199837,31.5403423,25.2906189,30.4626083z"
		/>
	<path class="st46" d="M1.0548377,6.2043843C0.3852519,1.0220659,2.040776,5.6313868,2.7975852,7.5555806
		C3.12097,9.4125462,1.0339302,7.1456122,1.0548377,6.2043843z"/>
	<path class="st47" d="M1.5562632,3.8183787C0.1500209,4.2276821,0.5579981,1.3549445,0.3000748,0.479652
		C1.6681587-1.4256425,1.9973521,2.8984351,1.5562632,3.8183787z"/>
	<path class="st48" d="M1.5562632,3.8183787c-0.0669512-1.1933868,0.2274716-1.1536071,0.128613,0.0023608
		C1.6539351,3.8214951,1.5871067,3.8207035,1.5562632,3.8183787z"/>
	<path class="st49" d="M31.4305515,24.4954987c2.3809948,1.816267-3.5126667,0.3791332-4.8096123,0.8322372
		C24.2267456,23.4776211,30.4456863,23.5587597,31.4305515,24.4954987z"/>
	<path class="st50" d="M28.5513935,23.7637234c-1.3798332,0.6680698-5.9886112,0.5700035-6.5372276-1.1853313
		C24.1144924,22.0326118,26.7407665,23.0923767,28.5513935,23.7637234z"/>
	<path class="st51" d="M34.1786499,12.3823481c-0.3222313-1.4076214-0.7552376-1.1789074-1.9515648-1.2373066
		C34.2197113,10.4473934,37.8167267,10.8692522,34.1786499,12.3823481z"/>
	<path class="st52" d="M31.6081676,25.3395157c1.0855274,0.8171806,12.4417133,4.7407551,7.4840031,5.9333458
		C37.9279709,29.8357754,31.0909386,27.5608406,31.6081676,25.3395157z"/>
	<path class="st53" d="M40.3298683,30.8449707c-1.3025932-2.5861931,0.5446968-1.6573372,2.5096474-1.3657265
		C43.1551094,30.6689587,41.2001915,30.6641998,40.3298683,30.8449707z"/>
	<path class="st54" d="M8.9200211,9.1470327c2.7895689-0.9353294,7.7969341,1.2772341,3.4520903,3.4999561
		c-2.9203157,1.1747198-2.5402508-3.2110624-4.7311702-3.0109053C6.7005167,9.0863066,8.6038923,9.4929142,8.9200211,9.1470327z"/>
	<path class="st55" d="M7.3313746,9.4457006c-2.1276965,3.1112423-2.5586209-0.0304146-2.3788691,5.4910669
		C3.2860677,11.8770237,2.5358574,8.5096941,7.3313746,9.4457006z"/>
	<path class="st56" d="M32.0801201,14.9689093c1.201725,1.2238569-2.0810509,1.5883207-2.7133083,2.3165693
		c-1.2797184,2.7859497-5.6622696,3.1248455-7.6190643,0.6409302C26.2214184,19.5783424,28.7734528,14.808485,32.0801201,14.9689093
		z"/>
	<path class="st57" d="M2.4511309,7.0513148c-0.2584362-0.094739-0.207516-0.3124104-0.2032192-0.5115457
		C2.4867115,6.5612392,2.3913195,6.8733115,2.4511309,7.0513148z"/>
	<path class="st57" d="M2.2521017,6.5502086C2.0783906,6.4633532,2.070117,6.3106279,2.0912449,6.1460781
		C2.2160599,6.2523928,2.2566113,6.3923349,2.2521017,6.5502086z"/>
	<path class="st58" d="M12.3126421,12.5322323c1.1103497-1.5792637,3.5838747-2.6004629,1.7151546-0.1547089
		c-1.6542492,1.4008512,4.1069269,1.7658787,4.9608984,0.00525C22.1059437,15.4376001,11.4828138,16.1410656,12.3126421,12.5322323z
		"/>
	<path class="st59" d="M22.2172604,18.5090351c1.9757252-0.0105934,4.6652298,2.3459206,6.0012188-0.1928253
		C35.5852661,19.5141773,16.195322,21.4696903,22.2172604,18.5090351z"/>
	<path class="st57" d="M4.2938814,9.2630415c-0.9315202,3.6203461-0.6759889,2.1797848-2.1799989-0.5271969
		C0.6656645,6.7520161,3.5266945,8.0590601,4.2938814,9.2630415z"/>
	<path class="st60" d="M14.8907166,11.188138c-0.5484381-1.3380337-6.804678-2.3959885-3.2753162-2.9114046
		C13.3387499,8.8658218,18.9332752,5.2297578,14.8907166,11.188138z"/>
	<path class="st61" d="M15.7277403,14.752552c2.6011419-0.3696547,4.6902857-0.5963659,6.8155565-2.0672436
		C22.6119671,16.0189438,17.7876816,18.2978306,15.7277403,14.752552z"/>
	<path class="st61" d="M19.3542652,14.0517778c-0.2115345-0.0733271-0.2239265-0.1810617-0.0552578-0.3200092
		C19.3174019,13.838438,19.3358307,13.9451084,19.3542652,14.0517778z"/>
	<path class="st54" d="M14.5305471,11.5006189c0.1002827-0.0895205,0.2298231-0.2281761,0.1649065-0.0008907
		C14.6559267,11.5010061,14.5701141,11.5015345,14.5305471,11.5006189z"/>
	<path class="st60" d="M14.7086258,11.3498468c0.0305729-0.0931768,0.0932474-0.1511631,0.1892996-0.1727171
		C14.8742046,11.2777987,14.8096848,11.3338671,14.7086258,11.3498468z"/>
	<path class="st62" d="M16.2569695,8.3048248c-1.6797285-0.9323807-0.722456-1.2941108,0.3629436-2.3870878
		C17.7973099,6.0783052,16.5113411,7.8450537,16.2569695,8.3048248z"/>
	<path class="st63" d="M13.5412607,28.7080269c-1.433176-2.0151081-5.2287083-5.0126534-0.0983391-3.6412582
		C16.2766647,24.3167343,15.3053312,27.6339455,13.5412607,28.7080269z"/>
	<path class="st40" d="M14.856699,27.2275047c0.4162426-3.9375038,2.4808598-0.4524765,2.5944023,1.2227573
		c-1.1516132-0.5149765-0.5622959-2.1704407-1.1267433-0.7256985C15.2458992,25.4675922,15.9653139,28.6226673,14.856699,27.2275047
		z"/>
	<path class="st64" d="M21.0213814,19.7025356c-0.4480743,1.7843647,3.3848324,1.7507305,5.6249619,2.578804
		C30.7583523,25.5229797,14.8751774,20.7382202,21.0213814,19.7025356z"/>
	<path class="st65" d="M31.6089497,26.5350056c1.9249058,0.8435535,9.0200329,3.6728458,5.7976475,5.2809029
		C37.7633171,28.6451969,25.0698013,26.68437,31.6089497,26.5350056z"/>
	<path class="st37" d="M4.4745164,13.7326565c0.1314554,0.0807838,0.1530132,0.2079067,0.1463337,0.3469601
		C4.4248476,14.0727911,4.4919543,13.87325,4.4745164,13.7326565z"/>
	<path class="st37" d="M4.6182976,14.0727997c0.1702623,0.090868,0.1753759,0.2450132,0.1563783,0.4085331
		C4.6421199,14.3760481,4.6107297,14.2318802,4.6182976,14.0727997z"/>
	<path class="st37" d="M4.8051429,14.5837059c0.140439,0.0824165,0.1633778,0.213872,0.1503816,0.3604183
		C4.7492194,14.9463387,4.823194,14.7280083,4.8051429,14.5837059z"/>
	<path class="st66" d="M6.6764779,16.803812c4.1921172-3.5344982,5.2991385,12.0406322,3.0314164,4.2910004
		C9.0080481,17.3725872,5.8611951,24.1482105,6.6764779,16.803812z"/>
	<path class="st55" d="M3.4441814,11.339797c0.1270163,0.0668993,0.1590812,0.1848965,0.1692054,0.3146477
		C3.424336,11.6688776,3.4708986,11.4727907,3.4441814,11.339797z"/>
	<path class="st55" d="M3.6227927,11.6729097c0.0436761,0.0697756,0.0873525,0.1395512,0.1309578,0.2095041
		C3.6566684,11.8460169,3.6210172,11.771163,3.6227927,11.6729097z"/>
	<path class="st66" d="M9.7082901,22.1084633c0.1085157,0.0182858,0.1814518,0.0497837,0.0575953,0.1546421
		C9.7466755,22.2115459,9.7274647,22.1600208,9.7082901,22.1084633z"/>
	<path class="st54" d="M14.0283051,12.3779087c0.0236492-0.2414618-0.1181393-0.5336676,0.2092552-0.6822023
		C14.0838919,11.9031658,14.3222179,12.3679886,14.0283051,12.3779087z"/>
	<path class="st54" d="M14.2164679,11.7283745c0.0301828-0.1749535,0.1589041-0.2139425,0.308753-0.2237434
		C14.5533295,11.6979332,14.3544054,11.6855497,14.2164679,11.7283745z"/>
	<path class="st57" d="M2.7988055,7.5553679C2.6159999,7.5261793,2.5840418,7.3919544,2.5786483,7.2392292
		C2.7757437,7.2111459,2.758388,7.4150491,2.7988055,7.5553679z"/>
	<path class="st57" d="M2.5780761,7.2385192C2.4882734,7.1975417,2.4377794,7.1292219,2.4328434,7.0291214
		C2.5310662,7.064311,2.5693765,7.1411886,2.5780761,7.2385192z"/>
	<path class="st67" d="M24.433857,32.8551483c0.2633324,0.0039406,0.4425468,0.1172867,0.5021667,0.3862343
		C24.7246761,33.1703873,24.4656811,33.0763206,24.433857,32.8551483z"/>
	<path class="st67" d="M23.9141388,32.5176659c0.1531525-0.0008163,0.2898979,0.0260315,0.3387947,0.2011261
		C24.110733,32.6821671,23.9072723,32.714325,23.9141388,32.5176659z"/>
	<path class="st67" d="M24.2334385,32.7003288c0.09655,0.0140953,0.1631641,0.0670052,0.2020836,0.1558495
		C24.335989,32.8459129,24.2635155,32.8006401,24.2334385,32.7003288z"/>
	<path class="st67" d="M24.7783279,30.6333714c-2.5094585,4.4726238-4.3411846-1.8739738-0.0045185-2.8374767
		C27.7201881,29.0390968,23.2201004,30.0825958,24.7783279,30.6333714z"/>
	<path class="st39" d="M23.9244728,28.7547569c-1.5224762-0.2618389-1.3619137,3.6120834-3.4042606,0.6723022
		C19.9869595,26.4372635,26.3947945,25.7152843,23.9244728,28.7547569z"/>
	<path class="st68" d="M21.7021332,27.2186279c-0.334734,1.943346-1.4663429,2.1724968-2.5521412,0.6760273
		C19.7253742,27.4362411,21.0440159,25.8632832,21.7021332,27.2186279z"/>
	<path class="st57" d="M2.9315348,7.7459812C2.8358376,7.7086968,2.7827513,7.640377,2.7786677,7.5361218
		C2.8825321,7.5674763,2.9262085,7.6427917,2.9315348,7.7459812z"/>
	<path class="st52" d="M32.2543297,25.1823883c-0.1371727-0.0205956-0.2542114-0.0681419-0.2934132-0.2196598
		C32.0884132,25.0108776,32.2904472,24.9985199,32.2543297,25.1823883z"/>
	<path class="st69" d="M10.2475328,23.4673634c1.0226774-0.5662746,3.3005838-0.7945938,3.2579231,1.701355
		C12.3198051,25.223772,10.1584854,25.0689926,10.2475328,23.4673634z"/>
	<path class="st43" d="M31.4435482,14.5793381c-0.3226109,0.1201639-0.6584835-0.2866812-0.1832199-0.3461285
		C31.3705711,14.3099518,31.380825,14.4655466,31.4435482,14.5793381z"/>
	<path class="st57" d="M1.3650461,6.902389c0.2206898,0.1087646,0.1871336,0.3134751,0.1902584,0.5043015
		C1.3197645,7.3868141,1.4210519,7.0783,1.3650461,6.902389z"/>
	<path class="st43" d="M22.5507641,12.6831465c-0.0090275,0.2507029-0.6079731,0.5505991-0.492754,0.2022467
		C22.236599,12.8452311,22.3463573,12.6834288,22.5507641,12.6831465z"/>
	<path class="st70" d="M15.3772993,27.9205379c0.1041937-2.5085564,0.3487377-1.0373363,1.4383821-0.5726604
		C19.4491348,28.244545,17.4430046,31.0274372,15.3772993,27.9205379z"/>
	<path class="st71" d="M10.604578,21.0712376c-0.4800224-3.2844734-3.3905158-4.8199921-4.7496076-7.4336128
		C8.9213438,16.95434,12.1959286,18.3480587,10.604578,21.0712376z"/>
	<path class="st72" d="M6.6764779,16.803812c0.1265731,1.0750217,0.3096838,2.1599598,0.0001574,3.2415009
		C6.2526202,19.4737053,6.4908252,17.6347809,6.6764779,16.803812z"/>
	<path class="st73" d="M9.2384319,17.1431732c-7.2846427-4.8659067,4.7386818-2.9668102,4.1178274,0.2417946
		C11.8823547,18.1468849,10.6642513,17.0481625,9.2384319,17.1431732z"/>
	<path class="st74" d="M6.6767664,10.4837055c2.0130043-2.7322311,2.9230928,0.8756371,3.9265652,1.8771858
		C8.5687313,14.8514614,6.0440087,12.3748913,6.6767664,10.4837055z"/>
	<path class="st75" d="M7.7018065,13.0447721c0.2788854,0.1730032,1.3543296,0.5292616,2.73558-0.6836996
		c-1.3577471,2.4578915-2.9892974,0.9871588,1.3625984,2.9046011C10.5289335,15.2845402,4.9445343,14.3608084,7.7018065,13.0447721z
		"/>
	<path class="st36" d="M6.8485556,15.2639561c0.0567436,0.0569563,0.1134877,0.1139488,0.1702666,0.1709414
		C6.9620786,15.3779049,6.9052992,15.3209124,6.8485556,15.2639561z"/>
	<path class="st36" d="M6.6781116,15.092659c0.0567794,0.0570631,0.1135583,0.1141272,0.1703377,0.1711903
		C6.7916698,15.2067862,6.7348909,15.1497221,6.6781116,15.092659z"/>
	<path class="st36" d="M6.1653233,14.4113798C6.2213564,14.4680519,6.27739,14.524725,6.3334236,14.581398
		C6.27739,14.524725,6.2213564,14.4680519,6.1653233,14.4113798z"/>
	<path class="st36" d="M5.9959087,14.2387333c0.0560689,0.0571699,0.1121025,0.1143045,0.1681714,0.1714392
		C6.1080112,14.3530378,6.0519423,14.2958679,5.9959087,14.2387333z"/>
	<path class="st76" d="M16.5807781,26.1950035c-2.5151234-2.5508976-0.2502193-0.9995861,1.1748924-2.4721775
		C20.8498974,24.3284283,18.8434887,26.9473343,16.5807781,26.1950035z"/>
	<path class="st77" d="M19.4854317,25.3396931c-0.7979622-1.8720493,2.1053486,0.655632,2.9285984-0.3535137
		C24.1734848,26.0814133,20.3139687,28.4250107,19.4854317,25.3396931z"/>
	<path class="st65" d="M24.7783279,30.6333714c-3.5380287-1.1759567,6.2968235-1.7240009,0.5513535-3.1605892
		C33.6874619,26.4863453,28.9633694,28.8883991,24.7783279,30.6333714z"/>
	<path class="st78" d="M30.4131775,27.5603333c-4.663723,0.0403824-3.4224014-0.0549126-4.7813606,0.8526688
		C18.5593109,24.7802486,27.4164047,27.1132126,30.4131775,27.5603333z"/>
	<path class="st65" d="M30.1367378,28.5041676c-0.0499992,0.0434494-0.0867004,0.0411606-0.1278305-0.0114861
		C30.0576591,28.4392567,30.100235,28.4430923,30.1367378,28.5041676z"/>
	<path class="st67" d="M27.1690197,29.6087894c0.0569572-0.0569229,0.113842-0.1138439,0.1707649-0.1707649
		C27.2828617,29.4949455,27.2259769,29.5518665,27.1690197,29.6087894z"/>
	<path class="st45" d="M25.4613819,30.2918434c0.0569267-0.056921,0.113842-0.113842,0.1707649-0.170763
		C25.5752239,30.1780014,25.5183086,30.2349224,25.4613819,30.2918434z"/>
	<path class="st79" d="M31.2603207,14.2333012c-2.1558895,3.0496292-5.9712105,5.1574402-9.5266552,3.4252796
		c8.5102825-3.8544693,5.7763023-1.1307163-1.3562508-0.2335377c2.517664-2.4836349-2.3782082,1.0300808,1.3270531-2.8446264
		C23.5025597,13.4610033,32.4032898,10.6920509,31.2603207,14.2333012z"/>
	<path class="st80" d="M26.3152008,27.0469761c-5.1463432-0.1827965,1.7048912-2.8257771,3.8454437-2.0088387
		C33.9158096,25.7126637,27.233881,25.9740295,26.3152008,27.0469761z"/>
	<path class="st81" d="M22.2176514,23.1196938c0.9443607,0.7002029,6.0124893,0.373764,3.7563381,1.5372753
		C24.5766773,25.7088299,18.2445679,24.1619396,22.2176514,23.1196938z"/>
	<path class="st82" d="M23.4121819,24.6565323c0.8059654,0.3863697,3.8834915-0.3683987,2.7769299,0.9554119
		C24.3555641,26.8004761,20.9175053,27.2030029,23.4121819,24.6565323z"/>
	<path class="st83" d="M12.6540318,17.4824295c3.2679243-0.0002327,6.5854931,4.1678429,9.9051189,5.1236706
		C19.9574471,23.015377,11.0240183,19.0726261,12.6540318,17.4824295z"/>
	<path class="st84" d="M17.4357681,21.0702438c0.9640217,0.8480587,7.0220051,1.6564579,3.490097,2.7536945
		C20.3030472,25.6024323,14.8944235,20.7447681,17.4357681,21.0702438z"/>
	<path class="st85" d="M26.3152008,27.0469761c0.7142181-1.2831612,3.5144768-1.2441006,4.9514771-1.3661671
		C32.0128899,27.2006512,27.8614788,27.449585,26.3152008,27.0469761z"/>
	<path class="st86" d="M11.7988949,15.2651634c-4.9194298-0.6360922-3.5374165-2.6090145,0.514163-2.7333145
		C13.2545233,14.754818,16.2938271,18.4440098,11.7988949,15.2651634z"/>
	<path class="st87" d="M16.2400322,15.435359c1.0351391,0.0811033,5.9505138,2.0209246,2.882822,1.9127626
		c0.4605122,0.003212,0.0916901,0.3439064,0.5579281,0.421133C26.3977356,18.9116573,14.4459791,19.9676151,16.2400322,15.435359z"
		/>
	<path class="st88" d="M21.7045441,17.9965305c-3.8771248-0.5491791-2.7753506,0.3514481-0.3650951-1.9428539
		c1.3591557-0.9873238-2.5436039,2.8120174,3.4621887,0.2506523C30.5199986,13.7945986,23.4392643,17.5667553,21.7045441,17.9965305
		z"/>
	<path class="st89" d="M16.2400322,15.435359c1.5240288,2.6738653-1.8775988,2.0152617-2.3849754,0.0083218
		C12.0216618,13.9114676,15.9027996,14.1946611,16.2400322,15.435359z"/>
	<path class="st89" d="M16.2412739,17.3137608c2.0232658-0.3038387,2.8731995,2.3998337,5.1214256,1.5362225
		C20.7807789,21.3537998,16.995409,18.3330574,16.2412739,17.3137608z"/>
	<path class="st90" d="M10.604578,21.0712376c0.9335546-2.5717621,4.5492344,2.0974674,4.6123676,4.2669716
		c-1.2688074,0.7772064-2.2455797-1.9006729-3.0056429-2.8190613C12.9785471,24.5826397,10.3282776,22.4775486,10.604578,21.0712376
		z"/>
	<path class="st91" d="M12.4850073,23.2900314c-1.4552107-2.744112,1.4537582,0.9914684,1.2867193,2.3140774
		C13.1445475,25.0718021,13.315444,23.8541374,12.4850073,23.2900314z"/>
	<path class="st92" d="M15.216691,25.3383083c-0.0295849-0.8991318-0.9089003-1.4889889-1.0262737-2.3904037
		C14.9909039,23.3920097,16.9242058,26.256197,15.216691,25.3383083z"/>
	<path class="st92" d="M16.0707951,25.6796227c0.0568142,0.0569229,0.1136284,0.1138077,0.1704788,0.1706944
		C15.9813108,25.9963303,16.1140099,25.7501087,16.0707951,25.6796227z"/>
	<path class="st93" d="M16.2412739,17.3137608c1.6084576,0.556942,6.7556076,5.9766655,3.3900013,3.8205032
		C16.0926571,20.09758,9.9317732,14.4220524,16.2412739,17.3137608z"/>
	<path class="st71" d="M10.6041164,21.0704575c0.2976904,0.6956501,1.1495771,2.3288918,0.389246,2.7839909
		C11.1346912,23.0790825,10.6737957,22.0491161,10.6041164,21.0704575z"/>
	<path class="st78" d="M25.8033352,28.5866909c-0.0570469-0.0577965-0.114172-0.11549-0.1711884-0.1733189
		C25.785574,28.3720932,25.8465366,28.4366341,25.8033352,28.5866909z"/>
	<path class="st67" d="M23.9244728,28.7547569c-0.0739651-0.0210571-0.1479664-0.042078-0.2219677-0.0631008
		C23.827631,28.5340824,23.8640175,28.6895676,23.9244728,28.7547569z"/>
	<path class="st77" d="M22.387207,26.5339756c0.0580235,0.0574188,0.1160145,0.1148014,0.1740322,0.1722183
		C22.503252,26.6488113,22.4452305,26.5913944,22.387207,26.5339756z"/>
	<path class="st67" d="M22.8983994,28.5853424c-0.0234718-0.0135288-0.068676-0.0317459-0.0669365-0.0398407
		C22.8405304,28.4845562,22.8818779,28.5080757,22.8983994,28.5853424z"/>
	<path class="st40" d="M17.6068878,28.4129448c0.1363201,0.0736237,0.1687527,0.2031307,0.1696281,0.3426285
		C17.640789,28.6823196,17.6059666,28.5515518,17.6068878,28.4129448z"/>
	<path class="st40" d="M17.7774734,28.7544727c0.0236187,0.0132809,0.0691013,0.0312843,0.0673962,0.0390949
		C17.833746,28.8522434,17.8014202,28.8346519,17.7774734,28.7544727z"/>
	<path class="st94" d="M11.7999239,20.219017c-2.9617815-0.2922745-0.2274809-1.2568951-2.5622435-3.0747871
		c2.2279701-0.4672832,4.630126,2.501461,7.0554314,3.6836739C14.7458,21.4578037,13.3959522,21.0380459,11.7999239,20.219017z"/>
	<path class="st95" d="M15.8987875,20.5606155c-1.4897633-0.7694836-7.5789843-4.0953312-3.9964905-3.0726948
		C11.2204313,17.4244881,19.3557148,22.3903446,15.8987875,20.5606155z"/>
	<path class="st95" d="M13.3370113,17.3141861c0.3243771,0.0023079,0.6635609-0.0508842,0.9670219,0.0299702
		C14.5106239,17.6492653,12.7871494,17.4323368,13.3370113,17.3141861z"/>
	<path class="st37" d="M7.8729253,13.5558205c-0.0486832,0.0227613-0.0963721,0.0482216-0.146369,0.0677166
		C7.061614,13.8674669,7.9547782,13.0313435,7.8729253,13.5558205z"/>
	<path class="st37" d="M7.87186,13.3850212c0.0570278-0.0567083,0.1140203-0.113452,0.1710477-0.1701956
		C7.9858804,13.2715693,7.9288878,13.3283129,7.87186,13.3850212z"/>
	<path class="st37" d="M8.0428057,13.2148972c0.0570593-0.0566025,0.1141224-0.113204,0.1711855-0.1698055
		C8.1569281,13.1016932,8.099865,13.1582947,8.0428057,13.2148972z"/>
	<path class="st54" d="M10.4367256,12.3618593c-0.057951,0.0566015-0.1159019,0.1132383-0.1738529,0.1698761
		C10.3208237,12.4750977,10.3787746,12.4184608,10.4367256,12.3618593z"/>
	<path class="st37" d="M6.8479209,11.8492126c0.0237908,0.0131025,0.0694518,0.0310707,0.0678225,0.038456
		C6.9029136,11.9451799,6.8761849,11.9303932,6.8479209,11.8492126z"/>
	<path class="st96" d="M16.238575,20.7312031c1.9509487,1.552227,3.8808308,4.5941849,0.1045055,1.7330227
		c1.406971,0.5390053,1.9672222,2.4889736-0.014349,2.2614288c-1.6115675-0.2534924-5.4664173-5.5987759-1.7781277-3.0635071
		C13.4994392,19.8280334,15.6017685,21.2521095,16.238575,20.7312031z"/>
	<path class="st97" d="M17.6066036,23.6311684c-3.9917526-2.846983,1.4374504-0.009306,2.9006577,1.3666363
		C19.3716946,25.2061977,18.7064056,24.1157379,17.6066036,23.6311684z"/>
	<path class="st38" d="M19.3138142,25.5104218c-0.0282593-0.0223866-0.1049194-0.0325871-0.0392246-0.0712872
		C19.2745781,25.4391193,19.3138142,25.5104218,19.3138142,25.5104218z"/>
	<path class="st38" d="M19.1430511,24.8281136C19.2551174,24.940464,19.1990891,24.8842888,19.1430511,24.8281136
		C19.2780285,24.8105507,19.3463764,24.8552074,19.1430511,24.8281136z"/>
	<path class="st98" d="M20.5073147,24.9982376c-3.0496273-1.6349716,1.9792271-0.4497623,2.9047642-0.3419495
		C22.7086391,25.3078022,21.4326,25.882103,20.5073147,24.9982376z"/>
	<path class="st67" d="M25.8053951,28.5852718c-1.45467-1.3744774,0.9165821-0.513958,1.7048054-0.3418655
		C27.3501129,29.0236664,26.5233574,29.1616497,25.8053951,28.5852718z"/>
	<path class="st78" d="M27.5101566,28.2436008c-0.4518261-0.0423603-0.3283787-0.2424164,0.0628376-0.167141
		C27.773386,28.077158,27.6683521,28.2603817,27.5101566,28.2436008z"/>
	<path class="st67" d="M25.9302807,29.1260052c-0.0677834,0.0353775-0.0748119,0.0029449-0.0860329-0.0556202
		C25.9120007,29.0350761,25.9194069,29.0671463,25.9302807,29.1260052z"/>
	<path class="st67" d="M27.7462578,28.6280594c-0.0288582-0.0524807-0.0129642-0.0976925,0.0404339-0.0895805
		C27.8336105,28.6033096,27.8179855,28.6347351,27.7462578,28.6280594z"/>
	<path class="st65" d="M24.9887905,27.3006554c-0.08815,0.0812931-0.1616116,0.0817776-0.2530384,0.0050125
		C24.8239422,27.2253895,24.8974743,27.223547,24.9887905,27.3006554z"/>
	<path class="st61" d="M20.3392506,16.9726582C20.2248383,16.8587456,20.2820454,16.9157028,20.3392506,16.9726582
		C20.1391068,17.2403164,20.1576691,17.0116158,20.3392506,16.9726582z"/>
	<path class="st99" d="M22.729126,24.6573143c-1.3590279-0.2749443-3.2664375-0.0256214-4.1005363-1.0220547
		C19.8993492,23.9366951,21.7424507,24.1874008,22.729126,24.6573143z"/>
	<path class="st95" d="M17.9460354,21.2418957c-0.0466595,0.0914707-0.0999584,0.1701946-0.2225361,0.1160088
		C17.7453365,21.2345963,17.8396759,21.2296638,17.9460354,21.2418957z"/>
	<path class="st61" d="M19.9960537,17.3134403c-0.0563889,0.1169682-0.1128845,0.1167545-0.1695175,0.0002136
		C19.883028,17.3136177,19.939558,17.3135471,19.9960537,17.3134403z"/>
	<path class="st61" d="M20.167244,17.1429615c-0.0568161,0.0566368-0.1135597,0.1132736-0.1703377,0.1699104
		C20.0536842,17.2562351,20.1104641,17.1995983,20.167244,17.1429615z"/>
	<path class="st92" d="M14.1903687,21.2425346c1.745945,1.3341789-1.8094854-0.4901562-2.3903503-1.0235634
		C12.1705856,19.7611713,13.5305443,21.1619205,14.1903687,21.2425346z"/>
	<path class="st92" d="M13.5069942,22.0939751c0.3212156,0.2108173,0.6379938,0.4252224,0.6846523,0.8557358
		C13.8685846,22.7403488,13.5541506,22.5240612,13.5069942,22.0939751z"/>
	<path class="st71" d="M10.9464245,20.5574913c0.3234377,0.1075287,0.4974499,0.3836823,0.4036036,0.7657681
		C11.081111,21.1219807,10.9912024,20.8529987,10.9464245,20.5574913z"/>
	<path class="st92" d="M12.8239031,21.2401562c0.2736692,0.151659,0.5001478,0.3387222,0.5140362,0.6852913
		C13.0632353,21.7745342,12.8381777,21.5864067,12.8239031,21.2401562z"/>
	<path class="st92" d="M13.3359814,21.9232101c0.0575962,0.0576324,0.1152315,0.115263,0.1728592,0.1728954
		C13.4512444,22.0384731,13.3936129,21.9808426,13.3359814,21.9232101z"/>
	<path class="st92" d="M12.6529264,21.0694637c0.0575962,0.0575943,0.1151915,0.1152267,0.172823,0.172823
		C12.7681541,21.1846905,12.7105227,21.127058,12.6529264,21.0694637z"/>
	<path class="st92" d="M12.6547422,20.898735c0.0000305,0.0575962,0.0000305,0.1152267,0.0000658,0.1728592
		C12.5380898,21.013998,12.5360298,20.9563656,12.6547422,20.898735z"/>
	<path class="st86" d="M13.8493023,16.4598351l-0.039237,0.0712662
		C13.7442417,16.4924698,13.8212414,16.4820976,13.8493023,16.4598351z"/>
	<path class="st86" d="M13.3371887,16.6303864c0.0130672-0.0237217,0.0310001-0.0693512,0.0384216-0.0677166
		C13.4329243,16.5752296,13.4187965,16.6023617,13.3371887,16.6303864z"/>
	<path class="st96" d="M14.0205994,21.2356815c-0.3562222-0.1004448-0.817524-0.498312-0.280839-0.8031406
		C13.7151842,20.7544613,13.9664516,20.9492989,14.0205994,21.2356815z"/>
	<path class="st96" d="M15.8987875,20.5605812c0.0569572,0.056139,0.1139135,0.1122437,0.170907,0.1683483
		C16.0127373,20.6728249,15.9557447,20.6167202,15.8987875,20.5605812z"/>
	<path class="st96" d="M14.3619843,19.7073288c0.0568151,0.0559273,0.1135941,0.1118908,0.1704092,0.1678524
		C14.4755783,19.8192196,14.4187994,19.7632561,14.3619843,19.7073288z"/>
	<path class="st76" d="M17.6066036,23.6311684c0.0578079,0.0564594,0.1156178,0.1129189,0.1734619,0.1693439
		C17.7222614,23.7440529,17.6644115,23.6876278,17.6066036,23.6311684z"/>
	<path class="st82" d="M22.7299786,24.6566391c0.0235825,0.0131741,0.0689945,0.0311775,0.0672894,0.0387402
		C22.7856674,24.7535591,22.7545109,24.7366581,22.7299786,24.6566391z"/>
</g>
</svg>
