<?xml version="1.0" encoding="utf-8"?>
<!-- Generator: Adobe Illustrator 27.8.0, SVG Export Plug-In . SVG Version: 6.00 Build 0)  -->
<svg version="1.1" id="Layer_1" xmlns="http://www.w3.org/2000/svg" xmlns:xlink="http://www.w3.org/1999/xlink" x="0px" y="0px"
	 viewBox="0 0 23.15275 42.4746323" style="enable-background:new 0 0 23.15275 42.4746323;" xml:space="preserve">
<style type="text/css">
	.st0{fill:#C85C29;}
	.st1{fill:#DD6C26;}
	.st2{fill:#EA7424;}
	.st3{fill:#F18821;}
	.st4{fill:#E97D24;}
	.st5{fill:#D36229;}
	.st6{fill:#ED8A22;}
	.st7{fill:#F08721;}
	.st8{fill:#F8991D;}
	.st9{fill:#F8961D;}
	.st10{fill:#F6921E;}
	.st11{fill:#F28B21;}
	.st12{fill:#DB7F27;}
	.st13{fill:#B06227;}
	.st14{fill:#BF6528;}
	.st15{fill:#F47B20;}
	.st16{fill:#E57C25;}
	.st17{fill:#D96E27;}
	.st18{fill:#A85425;}
	.st19{fill:#F58D1F;}
	.st20{fill:#F7901E;}
	.st21{fill:#DC7627;}
	.st22{fill:#F78E1E;}
	.st23{fill:#D16728;}
	.st24{fill:#EB9023;}
	.st25{fill:#DF7426;}
	.st26{fill:#E78025;}
	.st27{fill:#D35C2C;}
	.st28{fill:#D16930;}
	.st29{fill:#DB6327;}
	.st30{fill:#E07326;}
	.st31{fill:#D1683C;}
	.st32{fill:#F6851F;}
	.st33{fill:#D65B2C;}
	.st34{fill:#D36A38;}
</style>
<g>
	<path class="st0" d="M16.4930096,14.1407833c0.0195007,0.1052113,0.0814247,0.1708727,0.1846294,0.1979876
		c0.3519726,0.6513186,1.0193443,1.0294037,1.4197617,1.6387663c0.0430794,0.1035271,0.1044884,0.1884804,0.2206097,0.2181225
		L18.3090744,16.17729c0.0351677,0.086237,0.0544224,0.1760063,0.0598774,0.2689819
		c-0.0313663,0.0899696-0.0874825,0.1602421-0.1678638,0.2111034c-0.0899296,0.0234241-0.1810207,0.0265541-0.2726326,0.0116329
		c-0.8084335-0.2727947-1.4518108-0.8175793-2.0831957-1.3520956c-0.6401281-0.5418568-0.8016939-1.5287027-0.4475164-2.2936563
		c0.1738806-0.3755569,0.3246574-0.7654343,0.552928-1.1074991c-1.0759726-0.2973413-1.9443312-0.9643841-2.8337479-1.5921583
		c-0.1069355-0.117404-0.1261883-0.2794914-0.2057686-0.410574c-0.0419559-0.0559549-0.0818663-0.114316-0.1239824-0.170311
		c-0.0468893-0.0507393-0.0913725-0.1040068-0.1371794-0.1559906c-0.0245876-0.0243473-0.0472898-0.050499-0.0718784-0.0750074
		c-0.0514622-0.0475712-0.0997152-0.09799-0.1484823-0.1484499c-0.0256386-0.0247879-0.0492239-0.0508604-0.0748539-0.0757694
		c-0.0515432-0.0506592-0.0979509-0.1052103-0.1425943-0.1619272c-0.0457258-0.0570774-0.0861902-0.117404-0.1254663-0.1786938
		c-0.0997152-0.1545467-0.2148333-0.2955761-0.3562641-0.4146652c-0.0638571-0.0425978-0.1271915-0.0839119-0.194891-0.1188478
		c-0.1196184-0.0384665-0.2417955-0.0526257-0.3671818-0.0581207c-0.4163504-0.0487747-0.9133234,0.0991135-1.1180487-0.4601111
		c0.1577158-0.7373972,0.6218777-0.9424834,1.3115034-0.7556877c0.0546703,0.0038509,0.1094217,0.0071402,0.1642132,0.0098677
		c0.6009398,0.7454591,1.3001518,1.3973804,1.9771013,2.0701184c0.2009153,0.1996717,0.3881521,0.4312716,0.7029896,0.462678
		c0.0879955,0.1449203,0.2262573,0.1901255,0.3852968,0.1939754c0.0946617,0.1425543,0.2360201,0.1824646,0.3964624,0.1803389
		c0.2668495,0.2386589,0.5874157,0.3589115,0.9331303,0.4239311c0.0975103,0.1346111,0.2383795,0.1750031,0.3947306,0.1817818
		c0.0938587,0.1386232,0.2340069,0.1801777,0.3910007,0.1863546c0.0815849,0.1340504,0.2141914,0.183547,0.3572731,0.2156763
		c0.0595169,0.345273,0.0475235,0.7256041,0.4443398,0.9053001c0.0662708,0.1678238,0.2056885,0.2105818,0.3675365,0.2148342
		c0.0896473,0.1393843,0.2238979,0.1918898,0.3827362,0.196703c0.2097397,0.1980267,0.3769627,0.4060822,0.1658192,0.7033834
		c-0.1993103,0.0329704-0.4079666,0.0406322-0.5581818,0.2064495c-0.2128696,0.0045328-0.416111,0.0345755-0.5634365,0.2127075
		c-0.1605644-0.0039701-0.3035183,0.0330114-0.4025936,0.1725569c-0.1592388,0.003931-0.3037186,0.0397902-0.3979778,0.1841087
		C16.3035336,13.9472494,16.3234215,14.0415497,16.4930096,14.1407833z"/>
	<path class="st1" d="M18.6477222,24.5219402c0.0080605,0.1142349,0.0161228,0.2285118,0.0241451,0.3427467
		c0.0553131,0.06534,0.0996838,0.1374607,0.1331291,0.2162781c0.0587616,0.0363407,0.0828285,0.088644,0.0721188,0.1569138
		c0.0807419,0.4737072-0.1350536,0.8252792-0.5939217,0.7501106c-0.9290848-0.1521797-1.5878258,0.3457966-2.2930136,0.7747002
		c-0.7650328,0.1203728-1.3009539-0.1685448-1.6377239-0.8729305c-0.3030767-0.6338711-0.8728914-1.0138817-1.4315948-1.3932495
		c-0.2924471-0.1985474-0.6535654-0.3457947-0.4505243-0.8132458c-0.0584412-0.1498947-0.0606871-0.3003502-0.0042515-0.4513664
		c-0.068429-0.1682243-0.0623322-0.3559437-0.136898-0.5224838c-0.1888018-0.9613762-0.5675278-1.8817577-0.5550938-2.8886604
		c0.0066185-0.5393696-0.1649351-1.0369034-0.4663601-1.5222034c-0.486392-0.7828827-0.6155882-1.7184277-0.9181366-2.581131
		c-0.2363806-0.2657337-0.3843489-0.5929976-0.6135025-0.8636656c-0.8787069-1.0379066-0.824069-1.6984119,0.2174807-2.6786795
		c0.1039677-0.0763712,0.2067719-0.1537447,0.3121424-0.2267466c0.3278255-0.2272272,0.5716991-0.742651,1.0409555-0.5436621
		c0.5483952,0.232563,0.3929653,0.8151722,0.4245329,1.2815008c0.0258312,0.3824959-0.0421162,0.7720118,0.0914526,1.1446018
		c0.1204128,0.2547035,0.1118288,0.4963703-0.0778551,0.7162981c-0.0874414,0.1401873-0.0725603,0.2814178,0.0040112,0.4237709
		c0.6574965,0.9652662,0.6635132,2.1266747,0.9764576,3.1949863c0.4585543,1.5656033,0.74578,3.1616135,0.9857225,4.7750301
		c0.1335688,0.8980007,0.527297,1.3275471,1.7592602,1.3857079c0.3885126,0.0183296,0.7501917,0.0187321,1.0772638,0.2433529
		c0.0843048,0.0001602,0.1682568,0.0049324,0.2520485,0.0078602c0.2987041,0.0227032,0.5732231-0.0506592,0.8263626-0.2087364
		c0.2300358-0.1178055,0.3854237-0.3384552,0.619751-0.4492397c0.0512218,0.0150414,0.1028442,0.0283165,0.1549568,0.0398693
		C18.4553089,24.16712,18.4710732,24.3741722,18.6477222,24.5219402z"/>
	<path class="st2" d="M12.4703369,23.6832638c0.0164862,0.2470818,0.1450806,0.4060822,0.3670139,0.5144615
		c0.8151321,0.3983002,1.5043631,0.9379101,1.8424492,1.8128071c0.2415476,0.6250477,0.8091955,0.5103703,1.2817812,0.6225605
		c0.1592798,0.1208134,0.2852678,0.2655334,0.3362494,0.465004c0.0693913,0.5273361-0.1348534,0.9490623-0.5063591,1.3053665
		c-0.8349867-0.1763287-1.2952585-0.8487053-1.8561678-1.3931293c-0.1692677-0.1643333-0.303278-0.4925594-0.6012611-0.3670139
		c-0.2990255,0.1260281-0.3144283,0.4582272-0.3010311,0.7450581c0.0221415,0.474432,0.1172438,0.9458141,0.0604868,1.4235325
		c-0.0343342,0.2894001-0.0784159,0.6118107-0.3988218,0.6979675c-0.4957695,0.1332893-0.1421928-0.4822121-0.4396944-0.5504799
		c-0.2579126-0.1197701-0.0869198-0.4734268-0.3284273-0.6021423c-0.1565523-0.5704575,0.0400705-1.14007,0.0042124-1.7102051
		c0.2144318-0.4238911,0.1910477-0.8846836,0.2075729-1.33922C12.4193964,24.8011513,12.2171173,24.1956787,12.4703369,23.6832638z"
		/>
	<path class="st3" d="M8.6327763,17.5775166c0.0291204-0.0677471,0.0582008-0.1354542,0.0873213-0.2031612
		c0.0954237-0.0157623,0.1817017,0.0067787,0.2608404,0.0607681c1.424736,1.1093044,2.1455269,2.6265755,2.5291462,4.3447227
		c0.1090212,0.488308-0.0031281,0.944849-0.1257868,1.4062443c-0.0254707,0.1463242-0.1083393,0.3054428,0.0896473,0.4019508
		c0.0137577,0.188961-0.0050535,0.370863-0.163331,0.4997406c-0.3159132,0.2572708-0.3806515,0.6092014-0.3858261,0.986124
		c-0.1651764,0.1620464-0.1845894,0.3703823-0.1855927,0.5845737c-0.2847061,0.351532-0.0219803,0.8229141-0.2593164,1.1848335
		c-0.0111904,0.0760098-0.0465603,0.1373787-0.1099033,0.1818619c-0.0075808,0.1162815-0.0651798,0.1976261-0.1712332,0.2451973
		c-0.3163939-0.2742767-0.2387791-0.6299-0.2128277-0.9815502c0.1034861-1.4017525,0.2673388-2.7988129,0.3263016-4.2014065
		c0.0046129-0.0954247,0.0213385-0.1915703,0.0447636-0.2841454c0.039629-0.1647758,0.0990734-0.3295898,0.0478115-0.5052357
		c-0.0368538-0.0762501-0.0714769-0.1522598-0.1109858-0.2270679c-0.4777927-1.1483307-1.0678225-2.2268715-1.9189014-3.146492
		c0.0448046-0.059885,0.0896082-0.1197701,0.1344118-0.1796551C8.5242767,17.6697311,8.564187,17.6130562,8.6327763,17.5775166z"/>
	<path class="st4" d="M11.3842974,23.1860905c-0.2243404-0.1479282-0.0626535-0.3395386-0.0616903-0.5151825
		c0.0054951-0.9872074-0.2990665-1.8785896-0.7058306-2.7777538c-0.4098921-0.9061031-1.0193357-1.6024265-1.7323446-2.2483311
		c-0.0590439-0.0535069-0.0528259-0.1790142-0.0769329-0.2710686c-0.0477715-0.0480537-0.0623322-0.0946617-0.0438013-0.1399059
		c0.0182104-0.0444832,0.0357389-0.0667458,0.0526657-0.0667458c0.0095863-0.3106976,0.0192137-0.6213951,0.0288-0.9320946
		c0.0460873-0.0169659,0.0926962-0.0320473,0.139986-0.0452042c0.0425978,0.0143585,0.0851154,0.0287189,0.1279135,0.0424366
		c0.6965322,0.4023514,1.2084589,0.9412804,1.3279085,1.7771893c0.0180168,0.1260681,0.0591631,0.2798538,0.1573143,0.3441105
		c1.2387018,0.8110409,1.0231466,2.221899,1.381938,3.3871574c0.1070957,0.3478012,0.1313629,0.6822033,0.5073614,0.8420448
		c-0.0071402,0.2161579-0.0142794,0.4322758-0.021452,0.6487923C12.1409874,22.6458378,12.1409874,22.6458378,11.3842974,23.1860905
		z"/>
	<path class="st5" d="M18.2856808,23.9197979c-0.0268745,0.3659306-0.2098198,0.5766315-0.5889874,0.5921955
		c-0.5966873,0.1005974-1.0091476-0.2592773-1.4391747-0.5750294c-0.0003204-0.0908909,0.0535889-0.157074,0.1060123-0.2238979
		c-0.0515747,0.0081024-0.0640564,0.0751266-0.1192493,0.0788975c-0.1887608-0.0315266-0.3146286-0.1327667-0.3619995-0.3230114
		c-0.002367-0.2810574,0.0678272-0.534317,0.2808628-0.7328644c1.2352448-0.1511383,1.591629-0.8310165,1.0532627-2.0076656
		c-0.1067352-0.233326-0.2309914-0.4610748-0.3076019-0.7052288c-0.0935459-0.2981434-0.1661873-0.6270924,0.3473587-0.5038719
		c0.6810818,0.1634121,0.7260056-0.1562309,0.3900299-0.5811653c-0.423048-0.5349979-0.4583855-0.7905846,0.2705078-1.0806656
		c0.4628792-0.1842289,0.7390404-0.7086773,0.4854279-1.298708c-0.0101547-0.0992737,0.0286312-0.1688251,0.1232128-0.2046051
		c0.0954647,0.0345764,0.1909676,0.069191,0.2864323,0.1037674c0.0274754,0.1044083,0.095583,0.16325,0.2015553,0.1795349
		c0.0300045,0.1035671,0.0998363,0.1621284,0.2047672,0.1809406c0.027195,0.1046486,0.0951424,0.1651363,0.2005138,0.1850719
		c0.0249081,0.1050091,0.0909786,0.1674213,0.1960201,0.1894417c0.0206985,0.1037273,0.0797806,0.1727982,0.1827049,0.2023201
		c0.0125542,0.1030445,0.0623322,0.178854,0.1603241,0.2194462c0.0127544,0.2368946,0.0255089,0.4737892,0.0382652,0.7106419
		c-0.119009,0.0691109-0.136898,0.1458836-0.0176888,0.2330437c-0.0114727,0.1646156,0.0367489,0.3025169,0.1782513,0.3986626
		c0.0590839,0.2468014,0.1925316,0.4357224,0.4258175,0.5468712c0.0183296,0.1044884,0.0766106,0.1739597,0.1792545,0.204525
		c0.0602875,0.3037586,0.0734425,0.5820465-0.3534565,0.5913525c-0.2198067,0.0048141-0.4398956,0.0002003-0.6597824-0.0042515
		c-0.4173927-0.0083828-0.3214474,0.2797318-0.3047218,0.5228443c0.1163216,0.1090603,0.0383129,0.3297901,0.2279491,0.3966961
		l-0.0109901-0.0209789c0.3013935,0.4499226-0.3504066,0.432476-0.3515224,0.7087193
		c-0.0014515,0.3617992-0.3928127,0.6145363-0.1958694,1.0562363c0.1201725,0.2695847-0.0470905,0.587183-0.4805679,0.4202023
		l0.0202961,0.0107079c-0.1759663-0.1698284-0.356945-0.241066-0.5523643-0.0280361
		c0.0181694,0.0538673,0.0158825,0.1068153-0.0068188,0.1588783c0.1003571,0.1190491,0.0523434,0.3092136,0.1954193,0.4078064
		L18.2856808,23.9197979z"/>
	<path class="st5" d="M18.3180103,16.1956596c-0.1207333-0.0249481-0.1930122-0.0988731-0.2206097-0.2180824
		C18.2120781,16.0086632,18.2908554,16.0760498,18.3180103,16.1956596z"/>
	<path class="st5" d="M18.2763348,16.4096508c0.0108299-0.0773335,0.0216599-0.154707,0.0326099-0.2322006
		c0.1075382,0.0156422,0.1782932,0.07621,0.2163582,0.1767673c0.0000401-0.0000401-0.0640965,0.0663834-0.0640965,0.0663834
		C18.3950233,16.4934425,18.3336143,16.4862232,18.2763348,16.4096508z"/>
	<path class="st6" d="M13.5992632,41.2505913c-0.0998755,0.0395889-0.1497412,0.115921-0.1617346,0.2200089
		c-0.2740364,0.1867943-0.4591808,0.4483986-0.6170244,0.7329826c-0.2738361,0.1338921-0.5182714,0.3917236-0.8679972,0.206131
		c0.0014439-0.2320404,0.0028076-0.4640427,0.0042515-0.6960449c0.161767-0.1687431,0.1786938-0.3788834,0.1703901-0.5962067
		c0.2436733-0.4165077,0.364768-0.8683586,0.3887215-1.3482437c0.2251749-0.3575478,0.210454-0.7562065,0.1977787-1.1545067
		c0.2064505-1.1099892,0.3175573-2.220295,0.0118732-3.3321266c-0.0025673-0.2724304-0.0057354-0.5446625-0.2003536-0.7668762
		c-0.0013237-0.2142754-0.0181227-0.4237709-0.18118-0.5882263c-0.0108299-0.210701-0.0322819-0.4178734-0.1927252-0.5787201
		c-0.0208578-0.2335625-0.0417147-0.4670906-0.0625725-0.7006149c-0.1611729-0.2451172-0.0156107-0.5366402-0.1195784-0.7903824
		c0.0016527-0.1404686,0.0032892-0.2809372,0.0049334-0.4214039c0.0673466-0.1886024-0.0026464-0.4032345,0.1105461-0.5831318
		l-0.0118732,0.0036907c0.2895603-0.1689072,0.5048351-0.0458469,0.6955614,0.1754436
		c0.2929296,0.693758,0.5616713,1.3960991,0.6659594,2.1489372c0.2976227,1.3717079,0.8964367,2.6696548,0.9578466,4.1040573
		c0.0192928,0.4517288,0.3407412,0.6756248,0.8265228,0.4326363c0.3468857-0.1735611,0.7106905-0.3918457,0.978302,0.1202087
		c-0.0229836,0.1153603-0.0459671,0.2307587-0.0689507,0.3461189c-0.3068867,0.2781677-0.5901899,0.5763893-0.7988062,0.9381905
		c-0.1024427,0.0272369-0.1630507,0.0936584-0.184309,0.1968651c-0.1014004,0.0316849-0.1615257,0.1001549-0.1817417,0.2041245
		c-0.1028843,0.0324898-0.1601152,0.1035233-0.1766081,0.2089767c-0.1042404,0.0311241-0.1621675,0.1016006-0.1772099,0.2084961
		c-0.219326,0.1192894-0.352293,0.3073273-0.4297066,0.539608c-0.1006384,0.0377045-0.1523333,0.1125526-0.1647673,0.2171211
		C13.7976837,40.8229713,13.6706123,41.0158615,13.5992632,41.2505913z"/>
	<path class="st7" d="M20.9302273,31.419714c-0.1456833,0.1523418-0.1417923,0.3042011,0.0014839,0.4555798
		c-0.0004826,0.2146339,0.0215797,0.4218063,0.191288,0.5802841c0.0074196,0.1574745,0.0513821,0.2968979,0.1916885,0.3888321
		c0.0190926,0.1538239,0.0693932,0.2890396,0.2182426,0.3653297c0.0609703,0.1780128,0.1219387,0.3560219,0.1829071,0.5340347
		c-0.1747227,0.0001602-0.3493652,0.0003204-0.5240879,0.0004807c-0.6303024-0.343708-1.1950226-0.7665977-1.6795597-1.3036385
		c-0.1374207-0.1523018-0.2821407-0.0663452-0.2892799,0.1556282c-0.0465279,0.0114708-0.0934582,0.0210991-0.140749,0.0288811
		c-0.2435932,0.1746407-0.4497223,0.0743256-0.5438614-0.1504974c-0.3053246-0.7291336-0.952713-0.9852409-1.6182308-1.2090588
		c-0.4139023-0.139185-0.7480984-0.3387356-0.8946304-0.7735367c-0.0940609-0.3535767-0.0088654-0.6676044,0.2092171-0.9517899
		c0.0662231-0.0666237,0.1458435-0.1137142,0.2342873-0.1448402c0.7682018,0.0201759,1.5757999,0.2861099,2.2429161-0.3524132
		c0.0745659-0.0593643,0.1532631-0.1099434,0.2359314-0.1567135c0.4739571-0.1829453,0.9450912-0.3009109,1.3944111,0.0608883
		c0.1491737,0.4551373,0.1229,0.9618568,0.405241,1.3778458C20.8083782,30.6898994,20.8692989,31.0548267,20.9302273,31.419714z"/>
	<path class="st8" d="M7.2624712,28.1561394c-0.1034861,0.0158443-0.1762471,0.0701141-0.2123866,0.1700706
		c-0.3069606,0.2104607-0.6138558,0.4209213-0.9207835,0.6313839c-0.6000576,0.0938587-1.1767235-0.0371037-1.7518797-0.1826248
		c-0.0630064-0.0041714-0.1240225-0.0176086-0.1829853-0.0402718c-0.6694493-0.5804825-0.7040248-1.2255058-0.2583137-1.9703617
		c0.5585027-0.9334202,1.0613317-1.877306,1.3048043-2.9755802c0.2312388-1.042841,0.9607339-1.7253265,2.1159654-1.7918701
		c0.0963459-0.0055351,0.2039633-0.0012035,0.2834225-0.0470905c0.8200259-0.4736671,1.4211659-0.193655,1.8988853,0.5354385
		c0.0795403,0.0527058,0.1321259,0.1258678,0.1634922,0.2149944c-0.1002369,0.6228409-0.0608482,1.2282734-0.0012836,1.8651123
		c0.089447,0.9560814-0.26056,1.9025364-1.0656643,2.5588284c-0.272913,0.2224541-0.5362406,0.4507256-0.7856898,0.6972065
		C7.569479,27.7842731,7.3911467,27.9266262,7.2624712,28.1561394z"/>
	<path class="st9" d="M7.8500543,27.8213749c-0.114356-0.2682209-0.1095428-0.4891911,0.2105813-0.6154594
		c1.1335316-0.4470348,1.2113867-1.5326748,1.4956121-2.4916039c0.0172071-0.0582409,0.0311337-0.1510563-0.0000401-0.185112
		c-0.6079597-0.6644344-0.1487312-1.3015137,0.0420761-1.9451332l-0.0039711-0.0040112
		c-0.6144571,0.1285553-0.6144571,0.1285553-0.788538-0.7718506c-0.6523552,0.2044449-1.3020773,0.3878708-1.9813938,0.4975739
		c-0.7199488,0.1163216-1.3055663,0.7944336-1.3898392,1.5556564c-0.1212549,1.0950661-0.6601434,1.9744949-1.207335,2.8496323
		c-0.3787262,0.6057129-0.5400119,1.1329708-0.0938191,1.745863c0.0511012,0.0702343,0.0421562,0.1841087,0.0610485,0.2777672
		c-0.1374598,0.1245842-0.2748795,0.2492085-0.412339,0.3737926c-0.2421088,0.0523853-0.4381704,0.1770096-0.587543,0.3747959
		c-0.1021223,0.0202961-0.2041967,0.0406322-0.3062861,0.0609684c-0.8217099,0.1820221-0.8051844-0.4415398-0.7935121-0.9162121
		c0.0175285-0.710001,0.348563-1.3422661,0.7792802-1.8945122c0.2165983-0.2776871,0.3717394-0.5808849,0.5480263-0.8767815
		c0.0015643-0.0616112,0.0034094-0.1231804,0.0055027-0.1847515c0.2827811-0.1807785,0.4843705-0.4299068,0.619544-0.7350712
		c0.1161609-0.0775738,0.2322817-0.1551476,0.3484025-0.2327213c-0.6886625-1.1622505-0.6911819-1.4770412-0.0173683-2.1551132
		c0.0058565-0.0496578,0.0127954-0.0991554,0.0207376-0.1484909c0.2490077-0.0363407,0.4467139-0.1601219,0.6033063-0.3539772
		c0.1525016-0.0204163,0.2856693-0.0734444,0.3657703-0.2162781c0.2483664-0.0414753,0.4425025-0.170311,0.5938082-0.3682575
		c0.1546998-0.0198956,0.2850599-0.0780144,0.3570986-0.2275887c0.1058526-0.0074196,0.1836677-0.0555534,0.2256637-0.1555901
		c0.2403436-0.0630131,0.4340463-0.1892414,0.5571866-0.4110947c0.1067271-0.017889,0.1759987-0.0774536,0.2039557-0.1830654
		c0.110064-0.0908108,0.2201281-0.1815815,0.330152-0.2723923c0.1601224,0.0048122,0.3332405,0.0444813,0.4782887-0.0028095
		c0.838028-0.2733135,1.492877-0.0790176,1.979661,0.6811218c0.0957451,0.1495342,0.3233337,0.1997929,0.4613943,0.3366508
		l0.0096674,0.0116711c0.1054916,0.1270714,0.1019287,0.2530193-0.0037308,0.377964l-0.001524,0.0019264
		c-0.2062902,1.2160797-0.4103336,2.431076-0.5186729,3.6627178c-0.0955038,1.0853977-0.2391405,2.173605-1.361681,2.7721367
		c-0.36553,0.1948986-0.3321981,0.6816044-0.6376419,0.9279251C7.6995583,28.6408386,7.861526,28.2167873,7.8500543,27.8213749z"/>
	<path class="st10" d="M8.0415831,28.9816608c-0.024066-0.5990562,0.0583611-1.022625,0.7501125-1.3403435
		c0.9125204-0.419157,0.8888149-1.4616375,0.9858427-2.3266678c0.1414309-1.2607212,0.2660151-2.5174732,0.7820406-3.6958084
		c0.0184107,1.6731815-0.1560707,3.3316021-0.3709049,4.9876175c-0.0281973,0.2171593,0.0051823,0.4423027,0.0100679,0.6638336
		c-0.0265455,0.0926971-0.0531464,0.1853123-0.0797405,0.2779675c-0.1005974,0.0312462-0.1579561,0.1002369-0.1768484,0.2027206
		c-0.1007977,0.0288391-0.1640129,0.094099-0.189764,0.1956596c-0.101841,0.0261936-0.1670132,0.0895271-0.1942568,0.1914101
		c-0.1022825,0.027916-0.1650953,0.0937786-0.1894827,0.1966629c-0.1021223,0.0287991-0.1636524,0.0957451-0.1869164,0.1987095
		c-0.1030045,0.0265121-0.1660185,0.0920143-0.1904469,0.195179c-0.10497,0.0200958-0.1715536,0.0809822-0.1972246,0.1853523
		C8.5425673,28.9291954,8.3251266,29.3228016,8.0415831,28.9816608z"/>
	<path class="st11" d="M5.1718159,13.3368425c0.1043682-0.0128355,0.1793356-0.0644579,0.2175684-0.1646147
		c0.2352424-0.0687094,0.4302611-0.1929731,0.5609822-0.4060812c0.1041279-0.0128355,0.1775303-0.0655012,0.2143121-0.1655378
		c0.0537963,0.0000801,0.1075773,0.0001602,0.1613255,0.0002813c0.8428884,0.6169844,1.0078239,1.659584,1.5483575,2.4664125
		c-0.0152822,0.0525856-0.0283184,0.105732-0.0390682,0.159441c-0.1542659,0.0110302-0.2904019,0.0570374-0.3780441,0.1963024
		c-0.1567531,0.0040512-0.299427,0.041193-0.4027524,0.1709518c-0.6230812,0.1399469-1.247807,0.0189323-1.8717709,0.0115919
		c-0.1743617-0.1529427-0.4093709-0.0804224-0.6028652-0.1622076c-0.2668171-0.2864714-0.2772861-0.6350346-0.2411461-0.9949083
		C4.8086128,14.2219276,4.792809,13.6314564,5.1718159,13.3368425z"/>
	<path class="st12" d="M4.3387146,14.4484739c0.3775229,0.2595968,0.1977863,0.6542873,0.2411461,0.9949083
		C4.1319108,15.461071,3.684026,15.4821692,3.2359083,15.495285c-0.2907631,0.008544-0.4949272-0.1103048-0.5550132-0.4156275
		c0.059171-0.0657825,0.1182868-0.1316042,0.1774502-0.1973858c0.1515386-0.016325,0.2937715-0.0522242,0.3901978-0.1848707
		c0.2120259-0.0060968,0.4186366-0.0277166,0.5730231-0.1994705C3.9939623,14.4814444,4.1663585,14.4649591,4.3387146,14.4484739z"
		/>
	<path class="st13" d="M7.8162808,3.148258c0.0344553,0.1024029,0.1076574,0.1559508,0.2130284,0.168746
		c0.0302515,0.1058526,0.1016483,0.1622484,0.2095795,0.1750035c0.0045319,0.0529864,0.0102282,0.1058524,0.017087,0.1585982
		C8.3094034,3.7401328,8.367403,3.8243656,8.4797935,3.8465068L8.4623451,3.8294597
		c0.030364,0.1129119,0.0973969,0.1867561,0.2175617,0.203723l-0.01793-0.0173683
		c0.0168066,0.1195703,0.0914526,0.1859536,0.2019176,0.2193661L8.8474092,4.2183337
		C8.8721581,4.3244672,8.948328,4.3876014,9.034606,4.4422727L9.028429,4.4329267
		C9.1662903,4.8428593,9.382247,5.2932234,8.6137238,5.2339392l0.0052147,0.0070195
		C8.5111609,5.1327,8.5775032,4.918869,8.3879404,4.8601871L8.408637,4.8814459
		C8.3957615,4.7683334,8.3152189,4.7076454,8.2298231,4.6507282l0.0081425,0.0084634
		C8.1888704,4.5749187,8.1213636,4.5088162,8.0390558,4.4572339l0.0068998,0.0068989
		C7.9948945,4.3821464,7.9283504,4.3155622,7.846324,4.2644615l0.0068188,0.0066981
		C7.8009987,4.1871276,7.7268739,4.126039,7.6454492,4.0726514c-0.236486-0.146966-0.4729867-0.293932-0.7094798-0.440938
		c-0.3925648-0.3749156-0.8840022-0.5625539-1.3853068-0.731581c-0.0833502-0.147006-0.2175212-0.1993906-0.377924-0.2028
		c-0.0899687-0.1425941-0.2267065-0.190727-0.386869-0.1915693C4.6946177,2.3665786,4.5593238,2.3156378,4.3998837,2.3131511
		c-0.0918541-0.1434362-0.230958-0.1873176-0.391602-0.186034C3.746278,1.8872546,3.4253113,1.7739415,3.0870972,1.6976908
		C3.0786338,1.6478733,3.0655177,1.5992991,3.0477886,1.5519683c0.2403438-0.2232968-0.0053749-0.5891876,0.2380576-0.8116019
		c0.2346079,0.084353,0.4692161,0.168706,0.7038243,0.2530991C4.0746651,1.1379447,4.2097583,1.1885645,4.368196,1.195263
		c0.0881634,0.1446395,0.2261925,0.1901251,0.3852644,0.1937351c0.0894871,0.1398664,0.2261043,0.1876384,0.3828573,0.1961017
		c0.087482,0.1450408,0.2287521,0.1839081,0.3841815,0.194738c0.0805826,0.1464044,0.2176814,0.1928126,0.3713856,0.2096591
		C6.0518069,2.1749694,6.2317839,2.327631,6.488493,2.3552272c0.2268667,0.1865153,0.492641,0.2962584,0.7673197,0.388473
		C7.392518,2.9479446,7.5869675,3.072288,7.8162808,3.148258z"/>
	<path class="st14" d="M8.3879404,4.8601871c0.20998,0.0462074,0.2400227,0.2015967,0.2310381,0.3807316
		C8.5621014,5.2340198,8.5057859,5.2239919,8.4500313,5.2108755C8.4293346,5.0939527,8.408637,4.9771099,8.3879404,4.8601871z"/>
	<path class="st14" d="M8.2298231,4.6507282c0.1103449,0.0373836,0.1720352,0.1125512,0.178854,0.2305169
		C8.2946424,4.8467097,8.2466297,4.7607923,8.2298231,4.6507282z"/>
	<path class="st14" d="M8.0390558,4.4572339C8.1431837,4.487277,8.2096071,4.5544224,8.2379656,4.6591516
		C8.1275806,4.6352859,8.0607634,4.568501,8.0390558,4.4572339z"/>
	<path class="st14" d="M7.846324,4.2644615C7.9498901,4.293983,8.0165539,4.3604465,8.0459557,4.4641328
		C7.9346881,4.4423127,7.8685856,4.3752875,7.846324,4.2644615z"/>
	<path class="st14" d="M7.6454492,4.0726514C7.7517829,4.1000071,7.821094,4.1660695,7.8531828,4.2711196
		C7.741715,4.2491388,7.6738071,4.1815925,7.6454492,4.0726514z"/>
	<path class="st15" d="M16.5402603,29.5260429c-0.0646191,0.0003223-0.1291981,0.0006027-0.1938076,0.0009232
		c-0.2591648,0.0955448-0.4055691-0.1352139-0.6067247-0.2080956c-0.6185083-0.2241783-1.1623306-0.1594391-1.6629534,0.3272247
		c-0.4768772,0.4636002-0.738801,1.1375828-1.394043,1.4235725c-0.203289-0.0708752-0.4065704-0.1417522-0.6099329-0.2126675
		c0.0181704-0.3092136,0.0364609-0.6183891,0.0547514-0.9275627c0.2104616-0.3012714,0.2080545-0.6305408,0.1274319-0.9700794
		c0.2316799,0.0393085,0.1805792,0.3247375,0.4115372,0.4434242c0.3782444-0.549757,0.2639294-1.1619282,0.1211748-1.7080784
		c-0.1312828-0.5021858,0.0483732-0.8794689,0.2379847-1.2716312c0.1261406-0.2608414,0.4330292-0.3957748,0.6268044-0.1324463
		c0.5961266,0.8101978,1.3964977,1.3999462,2.115283,2.0776196C16.2440014,28.6082287,16.7662029,28.8175259,16.5402603,29.5260429z
		"/>
	<path class="st15" d="M11.9691124,31.8577652c0.2113438,0.2374573,0.1139145,0.5216789,0.1196108,0.7903442
		c-0.0482941-0.0231857-0.0976295-0.0438423-0.1480093-0.0619736
		C11.9501801,32.3433456,11.9596462,32.1005554,11.9691124,31.8577652z"/>
	<path class="st15" d="M12.0845919,30.8532295c0.0142393,0.2040844,0.0592833,0.4140244-0.1105862,0.5831318
		C11.9306536,31.2267418,11.9147625,31.0224171,12.0845919,30.8532295z"/>
	<path class="st16" d="M16.5402603,29.5260429c-0.0105896-0.5506802-0.598526-0.7160969-0.7724943-1.1577568
		c0.0265532-0.4779606,0.4644823-0.8377151,0.3867083-1.3456783c0.3166351-0.0768929,0.3332806,0.2157974,0.4551373,0.3741131
		c0.1503353,0.1953411,0.4285831,0.3638458,0.5490837,0.1660995c0.5118866-0.8401203,1.412735-0.5264149,2.1115856-0.7906246
		c0.1176853-0.0445232,0.2296829-0.1041279,0.3537369-0.1316032c0.052145,0.0122337,0.1047306,0.0223026,0.1577568,0.0301228
		c0.0165253,0.1522617,0.066864,0.2850285,0.2098198,0.3644466c0.0085506,0.1561928,0.0552711,0.2934914,0.1911678,0.3866692
		c0.0102272,0.2110634,0.0290394,0.4196396,0.1737194,0.5911922c-0.0047741,0.3114204-0.0095062,0.6228008-0.0142803,0.9341412
		c-0.5005817,0.0275555-1.021019-0.0971489-1.4871864,0.1940155v-0.0008411
		c-0.4637146,0.4635601-0.9525127,0.8066273-1.6588631,0.4875469
		C17.0018139,29.5400829,16.7601871,29.5570889,16.5402603,29.5260429z"/>
	<path class="st17" d="M19.6715488,21.215086c-0.2057686-0.0576-0.2320805-0.2183628-0.2279491-0.396656
		c0.0550728,0.0152416,0.1102638,0.0300026,0.1655369,0.044363C19.6299229,20.9802361,19.650732,21.097641,19.6715488,21.215086z"/>
	<path class="st18" d="M3.2858462,0.7403664C3.3123996,0.826404,3.3166914,0.9303312,3.369076,0.9956716
		c0.3773224,0.4710612,0.1224585,0.5657629-0.3212874,0.5562967L3.0401275,1.5489601
		C2.9575794,1.4692198,2.8740361,1.3912444,2.7486022,1.3903219L2.6879547,1.3991061L2.6491272,1.3517352
		C2.568625,1.2737197,2.4869192,1.1979905,2.3642278,1.1985521c-0.2786171-0.0870405-0.5572267-0.174121-0.8358363-0.2612016
		C1.3987935,0.7894219,1.2601304,0.645023,1.3267144,0.4205229c0.3305129-0.8036199,0.8354677-0.2191253,1.2744004-0.1601624
		c0.0096667,0.0503792,0.0262725,0.0983918,0.0497775,0.1439978c0.1004775,0.1159603,0.2864714,0.0621717,0.3801301,0.1916093
		l0.0044122,0.0019654c0.074245,0.062613,0.1302798,0.1544667,0.2448764,0.1521804L3.2858462,0.7403664z"/>
	<path class="st13" d="M2.7486022,1.3903219c0.1242306,0.0031687,0.2233043,0.052505,0.2915254,0.1586382
		C2.9124548,1.5521288,2.8153064,1.4992226,2.7486022,1.3903219z"/>
	<path class="st13" d="M2.3642278,1.1985521c0.1213679,0.0019252,0.2186766,0.0486945,0.2848995,0.1532232
		C2.5248239,1.3552248,2.4295609,1.3046852,2.3642278,1.1985521z"/>
	<path class="st19" d="M3.4220624,25.8567486c0.0004013,0.2228947,0.0217803,0.4617538-0.1596811,0.6264896
		c-0.5789592,0.5256119-0.6881809,1.2725964-0.9161305,1.9557228c-0.1846702,0.5535698-0.0612493,0.739603,0.5419769,1.1052933
		c-0.0915728,0.1076565-0.1831858,0.2153549-0.2747588,0.3229713c-0.151659,0.0261936-0.2808559,0.0857182-0.3500068,0.2348099
		c-0.1056118,0.009346-0.1816144,0.059845-0.2220936,0.1597214c-0.2383384,0.0639763-0.431512,0.1910477-0.5637975,0.4032726
		c-0.1040072,0.0126762-0.1790873,0.0643787-0.2198472,0.162529c-0.0587149,0.022583-0.1198913,0.0403919-0.1756854,0.0687103
		c-0.2181626,0.1108665-0.4421413,0.3378525-0.6858946,0.1481285c-0.2527382-0.196703-0.0170872-0.467411-0.009065-0.7056694
		c0.1340904-0.0904484,0.1786936-0.22855,0.2013562-0.3782845c0.1859537-0.1662598,0.3122225-0.3650475,0.3375725-0.6188698
		c0.1439577-0.0840721,0.194738-0.2188835,0.2049661-0.3758373c0.1413907-0.0835915,0.1924517-0.2180023,0.2092254-0.3717079
		c0.1916821-0.1574345,0.3161861-0.3549004,0.358904-0.6011791c0.1440854-0.0709572,0.2047657-0.199152,0.2377769-0.3463573
		c0.0518231-0.074646,0.1036062-0.1493721,0.1554294-0.2240601c0.2144723-0.1300392,0.3411021-0.3235722,0.4060416-0.5617104
		c0.0998759-0.0389881,0.1511374-0.1142769,0.163291-0.2187653c0.214994-0.1252651,0.3458354-0.3151093,0.4206018-0.5479927
		c0.102443-0.0339737,0.1547475-0.107338,0.1667407-0.212347C3.3067839,25.8737545,3.3644633,25.8654518,3.4220624,25.8567486z"/>
	<path class="st20" d="M10.5551662,21.2273197c-0.3985405,0.0345745-0.7408857-0.0105095-0.9111166-0.4610348
		c-0.1984682-0.5254097-0.5777559-0.5667248-1.0703564-0.3873501c-0.3148298,0.1146374-0.7188659,0.3971386-0.937871-0.1665382
		c0.0200958-0.1022434,0.0401912-0.2044449,0.0603342-0.3066483c0.2051992-0.1642132,0.1777234-0.2923279-0.0620589-0.3828163
		c-0.330513-0.1247063-0.7501121-0.1106663-0.8685117-0.5624752c0.05691-0.0634556,0.1138272-0.1269093,0.1707444-0.1903248
		c0.1492925-0.0253506,0.2821794-0.0774136,0.3595529-0.2201691c0.2509332-0.0354576,0.4540944-0.1513786,0.6033869-0.3581085
		c0.1585979-0.0890865,0.3171558-0.1782131,0.4756737-0.2673798c0.7627954,0.5393314,1.4997435,1.0974331,1.6307926,2.1232662
		C10.0632477,20.4981461,10.5308599,20.7599487,10.5551662,21.2273197z"/>
	<path class="st21" d="M9.9827852,12.3602648c-0.1443586,0.3891153-0.5697737,0.5687313-0.5594254,1.1358576
		c0.009346,0.5150633,0.0179701,0.8634253,0.468976,1.1392279c0.3707438,0.2267056,0.3790064,0.7117653,0.6682053,1.0027294
		c-0.4459915,0.3547401-0.7725735,1.0138407-1.5213223,0.5967283c0,0-0.0540295-0.0449638-0.0540695-0.0450039
		c0.0179701-0.2409859,0.0358992-0.4819717,0.0538692-0.7229176c0.0858374-0.244154,0.1713934-0.4881477-0.2505322-0.448719
		c-0.17027,0.0644579-0.3405809,0.1289558-0.5108509,0.1934137c-0.0072603-0.0499372-0.0183706-0.0989933-0.0332518-0.1472063
		c-0.7830834-0.417634-0.4573836-0.944088-0.1455622-1.4692183c0.0568771-0.0506201,0.1232204-0.0577202,0.1948576-0.0358992
		c-0.0824671-0.1085005-0.2074528,0.0245876-0.29702-0.0517035c-0.6332293-0.4309101-1.2099824-0.9219065-1.6733022-1.5363235
		c-0.0522246-0.0133171-0.1046896-0.0257511-0.1573148-0.0372629c0.0235853-0.0420361,0.0227027-0.0835104-0.0026875-0.124464
		c0.2481256-0.2625656,0.4962506-0.5251303,0.7443762-0.7876959c0.1065421-0.0188923,0.1738405-0.0803423,0.2009554-0.1853123
		c0.1048093-0.0207767,0.1727972-0.0813046,0.200273-0.1855516c0.1051302-0.0237055,0.1695085-0.0880432,0.1929331-0.1932945
		c0.1051302-0.0290403,0.1639328-0.0988731,0.1810598-0.2054071c0.1150379-0.0845137,0.2300358-0.1690273,0.3450332-0.253541
		c0.2736359,0.1225786,0.4569826,0.3966961,0.8408432,0.3402205c0.3540173-0.0520239,0.5398512,0.1580763,0.3312349,0.5336742
		c-0.0292006,0.0759296-0.1551085,0.0370626-0.1678162,0.136858c0.0785694,0.0072203,0.0854359-0.1117086,0.1709843-0.0965071
		c0.6021032,0.1835871,0.6524906,0.7671995,0.8878126,1.2162399C10.0848274,12.2197571,10.0470829,12.2962484,9.9827852,12.3602648z
		"/>
	<path class="st14" d="M8.6137238,5.2339392C9.1398973,5.1677566,8.9802961,4.7466331,9.028389,4.4329667
		c0.0592842,0.0057759,0.1182871,0.0132365,0.1771374,0.0223017c0.014472,0.1063337,0.0705948,0.1779718,0.1746349,0.2097392
		c0.0135574,0.1055317,0.0681477,0.1779718,0.1706314,0.2117853c0.134057,0.3065667,0.3400593,0.5518847,0.6230078,0.7317014
		c0.0153151,0.1084595,0.0743179,0.1778913,0.1820555,0.2038431c0.1949387,0.1904459,0.3899574,0.3808918,0.5848961,0.5713782
		c0.0033693,0.1079783,0.0501385,0.1870365,0.1525011,0.2291527c0.0894871,0.1755252,0.1790543,0.3510499,0.2685823,0.5265746
		c-0.4662886,0.1537046-1.0162477,0.1804185-1.1870794,0.7823615C9.9641743,8.2163782,9.7144442,8.5012045,9.3203554,8.3521929
		C9.0162354,8.237196,9.0842638,7.9541335,9.2026711,7.7086153C9.1897545,7.2539997,9.4301786,6.7697821,9.0449553,6.3586864
		c-0.000843-0.1590395-0.0378647-0.3020344-0.1772099-0.3996639C8.858119,5.8028712,8.8171654,5.6624031,8.674612,5.5727153
		C8.6543159,5.4598031,8.6340199,5.3468513,8.6137238,5.2339392z"/>
	<path class="st14" d="M9.034606,4.4422727C8.9253445,4.4069748,8.8615685,4.3335323,8.8473692,4.2184944
		C8.9634895,4.248096,9.0209284,4.3269138,9.034606,4.4422727z"/>
	<path class="st14" d="M8.8638945,4.2351804c-0.1208134-0.0236654-0.1887608-0.096025-0.2019577-0.2191653
		C8.7801037,4.0421672,8.8462858,4.1163321,8.8638945,4.2351804z"/>
	<path class="st14" d="M8.6799068,4.0331826c-0.123374-0.0133972-0.1953402-0.0818262-0.2176018-0.2035625
		C8.5799503,3.8491943,8.6542358,3.9152167,8.6799068,4.0331826z"/>
	<path class="st14" d="M8.4797935,3.8465068C8.3622694,3.8302219,8.288866,3.7635176,8.2559757,3.6506057
		C8.370492,3.6703401,8.4501114,3.7299047,8.4797935,3.8465068z"/>
	<path class="st22" d="M16.1544743,30.4905071c0.2279892,0.241869,0.4230156,0.4650059,0.8100853,0.5462704
		c0.376873,0.0791378,0.7801876,0.2217712,1.119524,0.4811287c0.279974,0.2140312,0.5869427,0.3650475,0.596817,0.7840462
		c0.0054874,0.2341652,0.2020702,0.2955742,0.4012604,0.3231735c-0.0180492,0.2483635-0.0360985,0.4967308-0.0541897,0.7450562
		c-0.2086163,0.2863121-0.1888409,0.6230011-0.2098198,0.9507065c-0.1580753,0.3489227-0.369091,0.6457024-0.7565289,0.769043
		c-0.169508-0.0206947-0.316555,0.0135574-0.4138641,0.1693497c-0.1037655,0.0341339-0.1623688,0.1061325-0.1789341,0.2133904
		c-0.2484055,0.1947365-0.3547001,0.4638786-0.4002247,0.7647514c-0.134613,0.1004791-0.1713543,0.2434311-0.1741219,0.4011078
		c-0.1371384,0.0947838-0.1818619,0.2334442-0.1861935,0.3913612c-0.1704712,0.2694244-0.3409424,0.5388489-0.5114136,0.8082733
		c-0.3078499-0.185955-0.5449848-0.1491737-0.852314,0.0905685c-0.6212759,0.4846992-0.8851652,0.3478813-1.1785278-0.3819733
		c-0.2464085-0.6127739-0.0652275-1.2625694-0.2711163-1.8887367c-0.1370993-0.4169121-0.1868763-0.8688812-0.4200811-1.2565918
		c-0.2281418-0.3793297-0.2254229-0.7921104-0.2137899-1.2099419
		C13.7030621,31.6708488,14.8301754,30.6187019,16.1544743,30.4905071z"/>
	<path class="st23" d="M9.2026711,7.7086153c0.0202551,0.3648882,0.0089045,0.76371,0.5498381,0.3666935
		c0.11588-0.0850353,0.2802143-0.1040478,0.4222469-0.1535044c0.4068842,0.3653288,0.9015703,0.1208935,1.3504906,0.1944571
		c0.0578394,0.069993,0.1284342,0.1271915,0.1917295,0.1917295l0.0009222,0.0010033
		c0.1699896,0.2740765,0.4003859,0.5028286,0.5786791,0.770648v0.0004816
		c0.0627327,0.0657015,0.1268702,0.1300392,0.1928921,0.1924114v0.0004816
		c0.0627337,0.0657415,0.1268711,0.1300392,0.192893,0.1924515V9.46591c0.0647392,0.063736,0.1219769,0.1350126,0.1929007,0.1925716
		V9.658803c0.0506525,0.0503788,0.0690231,0.1022024,0.0551853,0.1554289
		c-0.013999,0.0539093-0.0289202,0.080863-0.0441628,0.0807428c-0.080863,0.0436811-0.1676626,0.0657816-0.2559061,0.0641775
		c-0.5775557,0.0835104-0.9345016,0.4683342-1.2346907,0.9269609c-0.3596745,0.5494375-0.713973,1.1036081-1.4119406,1.2790527
		c-0.1224585-0.3327589-0.542058-0.482172-0.5197563-0.9262381c0.0092659-0.1839085-0.2592678-0.2187643-0.4466333-0.2307978
		v0.000802c0.0538683-0.2252216,0.4368868-0.6185484-0.2349691-0.4792843
		c-0.4513264,0.0935392-0.6163826-0.1930933-0.7544041-0.5309467c0.0129156-0.1100235,0.0258713-0.220047,0.0387945-0.3300714
		c0.1403408-0.2465611,0.2806482-0.4931622,0.4209156-0.7397232C8.8243456,8.6113491,8.9890804,8.210803,9.0515728,7.76092
		C9.1031961,7.7472019,9.1535749,7.729754,9.2026711,7.7086153z"/>
	<path class="st9" d="M4.3774214,28.7749691c0.0721669-0.059885,0.1661391-0.1853123,0.2131491-0.1696682
		c0.5024276,0.167181,1.0768948,0.0199337,1.5387306,0.352293c-0.0059767,0.0572376-0.0119534,0.1145153-0.0179224,0.1717548
		c-0.1045761,0.0180492-0.1743288,0.0759697-0.2050138,0.1787739c-0.1034856,0.0190125-0.1741209,0.0766506-0.2083755,0.1771278
		c-0.103807,0.0189323-0.1717143,0.0782967-0.2023592,0.1796169c-0.2787223,0.1123505-0.5194349,0.3887138-0.8677168,0.2010746
		c-0.0520239-0.2522564-0.0247884-0.5286598-0.2242994-0.7359924C4.3949099,29.0116234,4.3861656,28.8932953,4.3774214,28.7749691z"
		/>
	<path class="st17" d="M18.6325989,23.3792648c0.395092-0.0071011,0.3726292-0.3440723,0.3042812-0.5315895
		c-0.1279125-0.350769-0.2081356-0.6230011,0.2200069-0.7919884c-0.2778072-0.4369659,0.1245842-0.4102535,0.3433895-0.5366821
		c0.0868397-0.0501385,0.1085796-0.213068,0.1601295-0.3247375c0.1143494,0.0795803,0.2285843,0.1593208,0.3427792,0.2391014
		c0.0166149,0.105732,0.0732021,0.17729,0.1776104,0.2080555c0.018652,0.1061325,0.0791397,0.1743202,0.183588,0.2026787
		c0.0237045,0.1039677,0.0867996,0.169548,0.1904049,0.1956615c0.0265942,0.1037254,0.0934982,0.1653366,0.1971054,0.1886005
		c0.0237446,0.1027241,0.0853157,0.169548,0.1876774,0.1977463c0.0162849,0.1043282,0.0732441,0.1740398,0.1751251,0.2054482
		c0.0323696,0.1480885,0.0934982,0.2757607,0.2419071,0.3416634c0.0090256,0.1074562,0.0602074,0.1838264,0.1636524,0.2216511
		c0.0166054,0.104208,0.0742455,0.1740017,0.1745224,0.2079353c0.123621,0.2665367,0.3152313,0.4640007,0.5879841,0.5791187
		c0.0351772,0.1005592,0.1071835,0.1553097,0.2113838,0.1700306c0.0338535,0.1039276,0.1070957,0.1587582,0.2139912,0.1715946
		c0.0801411,0.1657372,0.2136784,0.316433,0.147007,0.523365c-0.1651363,0.002367-0.3302326,0.004734-0.4953289,0.0070992
		c-0.1581173-0.165617-0.3654499-0.1857529-0.5764332-0.1950188c-0.2948933-0.208456-0.6201916-0.3349247-0.9816704-0.3635635
		c-0.150095-0.1764069-0.3490047-0.2201691-0.5680904-0.2090969c-0.3850231-0.128355-0.7700863-0.2567101-1.1551094-0.385025
		C18.9298611,23.5939369,18.7812099,23.4866009,18.6325989,23.3792648z"/>
	<path class="st17" d="M18.1005306,23.3619366c0.0957432-0.2799339,0.2198467-0.2736759,0.5523643,0.0278759
		C18.4687862,23.3806286,18.2846775,23.3712826,18.1005306,23.3619366z"/>
	<path class="st1" d="M18.2891312,23.9286213c-0.1784935-0.081625-0.2020378-0.2374554-0.1954193-0.4078064
		C18.2311707,23.6220551,18.2875271,23.7622414,18.2891312,23.9286213z"/>
	<path class="st13" d="M3.0310223,0.5959675C2.8741488,0.5918762,2.7334001,0.5559369,2.6508923,0.4043582
		c0.1139948,0.014119,0.2279897,0.028238,0.3419847,0.042357C3.0010595,0.4976158,3.0137746,0.5473532,3.0310223,0.5959675z"/>
	<path class="st13" d="M3.2803109,0.7501133C3.1671984,0.7500331,3.087378,0.6964852,3.0354345,0.5979329
		C3.1497903,0.5959675,3.2375126,0.6369206,3.2803109,0.7501133z"/>
	<path class="st10" d="M10.3699751,27.0251751c0.0366611-0.060648,0.0733223-0.121294,0.1099434-0.1819019
		c0.0212994,0.0470905,0.037303,0.0959053,0.0479727,0.1464443C10.4747849,26.9996643,10.4221592,27.0114574,10.3699751,27.0251751z
		"/>
	<path class="st24" d="M4.3781433,22.5490913c-0.4293058,0.5970879-0.3071685,1.1941376,0.0323696,1.7686043
		c0.0956316,0.161768,0.130641,0.2618446-0.0150414,0.3865089c-0.2498903-0.3664131-0.6209154-0.209259-0.9530327-0.2204895
		c-0.2257035-0.1581974-0.5015857-0.1340504-0.7508342-0.2067318c-0.1249852-0.2360516-0.1172438-0.4779606-0.0320485-0.7233181
		c0.103205-0.0230236,0.1702704-0.083952,0.1968312-0.1874371c0.1021547-0.0148811,0.1783652-0.0646191,0.2186766-0.1626492
		c0.1486506-0.0291615,0.2763634-0.0901299,0.3520124-0.2306366c0.2488475-0.0386677,0.4487596-0.15872,0.6000175-0.3599949
		C4.1440969,22.5916481,4.2611403,22.5703487,4.3781433,22.5490913z"/>
	<path class="st20" d="M8.6327763,17.5775166c-0.041234,0.0557957-0.082468,0.1116295-0.1235733,0.1673832
		c-0.0111189-0.0462475-0.0208578-0.0927372-0.029088-0.1395454C8.5315371,17.598896,8.5823975,17.5895901,8.6327763,17.5775166z"/>
	<path class="st20" d="M8.8163633,17.1671028c-0.0027676,0.0689106-0.0055752,0.1377811-0.0086241,0.2066517
		c-0.0002403,0-0.0877619,0.0006409-0.0877218,0.0006008c-0.0167665-0.0530663-0.0330915-0.1062527-0.0488148-0.1595993
		C8.7205868,17.2016792,8.7689123,17.1857948,8.8163633,17.1671028z"/>
	<path class="st25" d="M19.6240177,26.6405926c-0.0036488,0.2683811-0.1820621,0.465847-0.4023914,0.4400558
		c-0.3893948-0.0455265-0.74189,0.2025604-1.1108685,0.1046486c-0.2894001-0.0768108-0.3777637,0.0251102-0.4635124,0.2781296
		c-0.151186,0.4459915-0.5680962,0.4804058-0.9370766,0.4498024c-0.3734722-0.0309658-0.3290291-0.3994236-0.3913212-0.6698513
		c-0.0188522-0.0819054-0.1076164-0.1476879-0.1643734-0.2208099c-0.1537457-0.085516-0.189724-0.229393-0.192893-0.3894749
		c0.3962946-0.5845757,1.3978605-1.0993176,2.0092707-0.8862896c0.5880241,0.2049274,0.7291336-0.120573,0.9062634-0.5088844
		c0.1165218,0.1470051,0.2330437,0.2940922,0.3495655,0.4411373c-0.0010033,0.1613655,0.044651,0.2994671,0.1929722,0.3862267
		C19.4877625,26.2570534,19.5559101,26.4488239,19.6240177,26.6405926z"/>
	<path class="st25" d="M18.8049965,25.080965c-0.044363-0.0720787-0.0887661-0.1441593-0.1331291-0.216238
		c0.0538692,0.019455,0.1086216,0.0359402,0.1642952,0.0494976C18.8270969,24.9700584,18.8167076,25.0256519,18.8049965,25.080965z"
		/>
	<path class="st26" d="M6.3233571,11.9712305c0.6840496,0.461154,1.3528571,0.9413605,1.9224305,1.5449877
		c-0.0889664,0.1656179-0.0320892,0.4289856-0.1135941,0.5134182c-0.4023914,0.4169922-0.0843935,0.7103624,0.1121902,1.0347385
		c-0.1233006,0.0009623-0.2466416,0.0019255-0.3699822,0.0028877c-0.3780446,0.0228233-0.5457878-0.1335688-0.6272125-0.528861
		c-0.1169634-0.5675678-0.1700296-1.2044468-0.9063439-1.4265404c-0.2287116-0.0690308,0.0037303-0.3356476-0.014801-0.5110111
		C6.5028601,12.3902683,6.4511499,12.1806087,6.3233571,11.9712305z"/>
	<path class="st27" d="M12.6823626,9.8512144c0.0642977-0.0001612,0.1285954-0.0003214,0.1929007-0.0004816
		c0.1034861,0.025631,0.1680641,0.0899687,0.1928854,0.1938553c0.8799505,0.5017462,1.6454248,1.1881628,2.6060467,1.5684528
		c0.2248135,0.0890055,0.4905558,0.0957842,0.6066675,0.1917295c-0.3110189,0.8805923-1.1681461,1.5085678-0.737196,2.6171494
		c0.1498537,0.3854656,0.3262691,0.6952009,0.6379623,0.9160109c0.620882,0.4398146,1.2664585,0.8447742,1.9018135,1.2641315
		l0.0003605,0.0009632c0.0641785-0.0644588,0.128355-0.1289158,0.1925316-0.1933746
		c0.0618114,0.000803,0.1234608,0.0044518,0.1848717,0.01091c0.1561108,0.2006741,0.3121815,0.40135,0.531147,0.682766
		c-0.6969662,0.1786938-0.4452705,1.4865074-1.5873451,1.0818291c0.1157608,0.3427868,0.3310738,0.5012245,0.5214806,0.6611462
		c0.3650894,0.3066864,0.2616425,0.6503162,0.0496178,0.9312534c-0.274519,0.3636837-0.5534821,0.1335678-0.8000908-0.1017227
		c-0.0301552-0.0287991-0.1056919-0.010067-0.2635994-0.0195332c0.4024239,0.4846592,0.4368057,1.0874443,0.8196964,1.5259762
		c0.020937,0.0239849,0.0450039,0.0494957,0.0543175,0.078537c0.0286713,0.0894871,0.0839443,0.2551842,0.0707874,0.2610798
		c-0.5656033,0.2523384-0.0871601,0.8359089-0.3745556,1.1667442c-0.3056431,0.3518505-0.6638737,0.3230915-1.0470524,0.1404266
		c-0.0834694-0.0397892-0.1875172-0.0364208-0.2820587-0.0529461c-0.0486946-0.0111504-0.0973892-0.0223007-0.1460838-0.0327301
		c-0.0900478-0.0446033-0.1670208-0.1061726-0.2320004-0.1827049c-0.3833389-0.8947906-0.3305931-1.898283-0.6947193-2.7983303
		c-0.0167656-0.0926552-0.0196142-0.1867962-0.0145998-0.2805347c0.0403509-1.1414318,0.3303528-2.2914085-0.1089411-3.4165974
		c-0.038065-0.066103-0.0804148-0.1319647-0.1239424-0.1939764c-0.1050501,0.0044527,0.0206165-0.1881189-0.1270313-0.1505356
		c0.0751677,0.0745258,0.133256,0.1612453,0.1896439,0.2500105c0.0713978,0.1281548,0.1628504,0.2474842,0.1650963,0.4033546
		c-0.1013994,0.1581173,0.0208178,0.2850266,0.0600939,0.4246922c0.1020746,0.2559471,0.0977421,0.5027905-0.0543175,0.7391224
		c-1.1802206-0.3832989-1.4092932-1.0067406-0.8394794-2.2764883c0.2013569-0.3286676,0.0220613-0.6211958-0.0911312-0.920784
		c-0.0216599-0.0856361-0.0261126-0.1712732-0.0133972-0.2585535c0.3705435-0.445631,0.4895926,0.0076208,0.7181034,0.1701097
		c-1.4779224-0.8357487-1.5090885-2.4918842-2.1806231-3.7852564C12.5603056,10.2744236,12.4827318,10.0490007,12.6823626,9.8512144
		z"/>
	<path class="st28" d="M12.2965775,9.0796423c-0.3089666-0.1697483-0.5637579-0.3801298-0.5786791-0.770648
		C12.0274734,8.4782619,12.281455,8.6892443,12.2965775,9.0796423z"/>
	<path class="st28" d="M13.0681486,10.0445881C13.003891,9.97997,12.9395933,9.9153509,12.8752632,9.8507328
		c0-0.0639763,0-0.1279535,0-0.1919298C12.9959965,9.75916,13.3046017,9.7656174,13.0681486,10.0445881z"/>
	<path class="st28" d="M12.8752632,9.6584816c-0.0643053-0.0642176-0.128603-0.1283941-0.1929007-0.1925716
		C12.7466602,9.5300875,12.8109579,9.5943041,12.8752632,9.6584816z"/>
	<path class="st28" d="M12.6823626,9.4654684c-0.0642977-0.0641375-0.1285954-0.128314-0.192893-0.1924515
		C12.5537672,9.3371544,12.6180649,9.4013309,12.6823626,9.4654684z"/>
	<path class="st28" d="M12.4894695,9.2725353c-0.0643377-0.0641365-0.1285944-0.128274-0.1928921-0.1924114
		C12.3608751,9.1442614,12.4251728,9.2083988,12.4894695,9.2725353z"/>
	<path class="st28" d="M11.7169762,8.307991c-0.0639372-0.0639362-0.1278334-0.1278334-0.1917295-0.1917295
		C11.5891829,8.1801577,11.653039,8.2440948,11.7169762,8.307991z"/>
	<path class="st29" d="M16.3483295,23.740181c0.0132771,0.0615292,0.0281582,0.1771297,0.039629,0.1768074
		c0.5353584-0.0157623,0.8574486,0.4329567,1.3087349,0.595005c-0.2699852,0.3197632-0.5794392,0.4411373-0.9625778,0.1912079
		l-0.0018864,0.0014038c-0.0751266,0.0542698-0.1440773,0.1415901-0.2264252,0.1568737
		c-0.3155117,0.0585213-0.433157-0.5767136-0.9185371-0.2038441c-0.2118969,0.1627693-0.640008-0.2442341-1.0590849-0.185873
		c-0.3718672,0.0517426-1.0193357-1.0317307-1.0799036-1.5051975c-0.1583576-1.2378197-0.1489716-2.5088902-0.6730995-3.6814499
		c-0.2154751-0.4820919-0.302227-1.0229053-0.3658905-1.5196781c-0.132165-1.0309677-0.4478369-1.9766197-0.8842831-2.8998909
		c-0.1126709-0.1283941-0.1067743-0.2565079,0.0009308-0.3843813c0.119442-0.1014004,0.428977-0.1084194,0.1919622-0.3867083
		c-0.136096-1.0379877-0.0071392-2.0704393,0.0887251-3.1007252c0.0249891-0.2686224,0.1274719-0.5915146,0.4809284-0.6282959
		c0.3539782-0.0368614,0.4798861,0.2601986,0.6040688,0.5149822c0.2921276,0.5993357,0.4851408,1.2385817,0.7285004,1.8564482
		c0.107008,0.5165071-0.2239065,0.9103956-0.3799372,1.3524561c-0.0243073,0.3341236,0.0987606,0.6743031-0.0312862,1.0006046
		c-0.2607603,0.2725525,0.1985884,0.0994349,0.157074,0.2406645c0.4745903,1.4109373,0.6434975,2.8620653,0.5938883,4.3429976
		c-0.0009308,0.0284786-0.0263605,0.0553932-0.0036106,0.0801411c0.3860588-0.2411461,0.4097242,0.1160412,0.4679651,0.3117409
		c0.2516232,0.8456955,0.8096771,1.5760345,0.9230299,2.4728317c0.0115118,0.0911312,0.0756092,0.1704292,0.1875181,0.1825829
		c0.3544588,0.149334,0.413703,0.420723,0.3360882,0.7641125c-0.0277166,0.1226578-0.0334044-0.0383072-0.0032492,0.083992
		c0.0239067,0.0967865,0.0826683,0.0827484,0.0977507-0.0227032c0.1270304,0.0641365,0.2540617,0.1282749,0.3811007,0.1924114
		L16.3483295,23.740181z"/>
	<path class="st30" d="M9.0392189,16.234808c0.3147898-0.0250282,0.6422949,0.0136375,0.8365107-0.3440704
		c0.1414709-0.2606001,0.4233294-0.2559872,0.6848116-0.2526579c0.1509771,0.0648994,0.3231335,0.1571541,0.2871208,0.3329201
		c-0.1672297,0.8168154,0.4497147,1.4149084,0.5756226,2.1471701c0.0102282,0.0596046,0.0436411,0.1367378,0.0907707,0.1652164
		c0.7109241,0.429306,0.4079275,1.1924152,0.5204382,1.7872581c0.0695114,0.3674145-0.0230637,0.8039799,0.1740007,1.1594028
		c0.2391005,0.4312305,0.1017609,0.920784,0.2791309,1.3526955c-0.4726257-0.0028076-0.7377586-0.0983906-0.7402773-0.7129288
		c-0.0022945-0.5655613-0.0869684-1.1752052-0.3710251-1.7141743c-0.10217-0.1938553-0.2406321-0.4287052-0.2098274-0.6203537
		c0.0685892-0.4273014-0.0055676-0.6262512-0.4801664-0.6934757c-0.2982235-0.0422363-0.4343996-0.4068451-0.4651251-0.6754265
		c-0.0823469-0.7205505-0.3818941-1.2625675-1.0375051-1.5976124C9.0613604,16.506237,9.0412645,16.3665314,9.0392189,16.234808z"/>
	<path class="st28" d="M13.4539337,12.9370584c-0.1115875-0.8019753-0.4615145-1.5148649-0.833662-2.218689
		c-0.0612497-0.1157198-0.1632509-0.2074127-0.2998285-0.1989899c-0.1550684,0.0095463-0.1829052,0.1440783-0.2136707,0.2712297
		c-0.0523844,0.2164373-0.173399,0.4333572-0.1628819,0.6449814c0.0446358,0.8987226-0.2073002,1.768405-0.2259922,2.658865
		c-0.2113438-0.1579161-0.1922512-0.3885536-0.1926117-0.6125326c-0.0006418-0.3849831,0.0073805-0.7701674-0.0028877-1.1549101
		c-0.0074606-0.2790909,0.1004772-0.644701-0.2175217-0.7789516c-0.2806549-0.1184874-0.417593,0.2256231-0.6009798,0.384181
		c-0.2168312,0.187438-0.3926449,0.4325552-0.7211123,0.4279823c0.0002813-0.0649796,0.0006018-0.1300392,0.0009232-0.1950588
		c0.4255753-0.2366934,0.8703718-0.5797215,1.0115614-0.9717236c0.2171926-0.6031065,0.4996128-0.9776611,1.0967026-1.2105045
		c0.2640085-0.1029243-0.2476044-0.3247766-0.0773745-0.5705357c0.2940121,0.0251894,0.3983402,0.3674545,0.6677647,0.4388123
		c0.6906757,1.7079582,1.0793495,3.5751152,2.6724224,4.7934809c-0.332037,0.2619638-0.4352427,0.0336933-0.5424585-0.0775738
		c-0.1293974-0.1343718-0.1895638-0.341423-0.3287878-0.4589481c-0.2236185-0.1888018-0.2306776,0.0320082-0.2579927,0.1800976
		C13.4081678,14.1577501,13.7270489,13.3783979,13.4539337,12.9370584z"/>
	<path class="st28" d="M11.5259361,14.481164c-0.000289,0.1281137-0.0006094,0.2562675-0.0009308,0.3843813
		C11.3268185,14.7369509,11.328022,14.6087961,11.5259361,14.481164z"/>
	<path class="st20" d="M10.5611029,21.6169548c0.0012035-0.1260281,0.0024471-0.2520561,0.0037308-0.3780441
		C10.7655878,21.3669853,10.7522717,21.4928532,10.5611029,21.6169548z"/>
	<path class="st31" d="M15.9653521,23.5462856c-0.0111513,0.1215763-0.0223017,0.2431507-0.033493,0.364687
		c-0.2372074-0.3633633-0.0067387-0.9276829-0.5489559-1.1357765c-0.1202126-1.0260754-0.7374372-2.0210648-0.1932144-3.0886936
		c0.409852,0.5954056,0.494647,1.2900047,0.5691404,1.9777431c0.0345678,0.3190022,0.0372553,0.6339512,0.2051182,0.9186993
		c0.0677471,0.0600452,0.1183681,0.1369781,0.1901264,0.1930923c0,0-0.0005226,0.0000401-0.0005226,0.0000801
		C16.184597,23.0557709,16.0919018,23.3051796,15.9653521,23.5462856z"/>
	<path class="st29" d="M16.3464527,23.7386971c0.0150738-0.0266743,0.03545-0.0779762,0.0444336-0.0760498
		c0.0648594,0.013958,0.0496578,0.0445232-0.0425568,0.0775337L16.3464527,23.7386971z"/>
	<path class="st32" d="M16.1544743,30.4905071c-0.4151468,0.476717-1.1285982,0.4190788-1.5605106,0.9273624
		c-0.3877115,0.4562607-0.8820372,0.8120041-1.001687,1.4522133c-0.0300436,0.1607628-0.1835394,0.2518539-0.3312349,0.3214073
		c-0.1693478-0.7136536-0.6186295-1.3510132-0.5783577-2.1218224c0.345314-0.7276096,1.0222635-1.2008781,1.4384212-1.8750191
		c0.1084919-0.175766,0.2821712-0.2501316,0.4897852-0.218605c0.0934582,0.0142002,0.2112236,0.0935383,0.2725525,0.0601273
		c0.6715355-0.366293,1.0377064,0.1455612,1.4630098,0.4907951C16.3293972,29.8574791,16.0964336,30.1449928,16.1544743,30.4905071z
		"/>
	<path class="st8" d="M9.5943127,22.5800552c0.0154829-0.026432,0.0362196-0.0773335,0.0456133-0.0753269
		c0.0648117,0.0139179,0.0498905,0.0452042-0.0416422,0.079298C9.5982838,22.5840664,9.5943127,22.5800552,9.5943127,22.5800552z"/>
	<path class="st7" d="M18.8550148,29.1403389c-0.0268745-0.0147209-0.0786171-0.0352573-0.0767326-0.0433197
		c0.0149288-0.0643387,0.0449238-0.0486145,0.0767326,0.0441608V29.1403389z"/>
	<path class="st23" d="M9.0173588,11.0081301c-0.0146408,0.0269146-0.0346155,0.0786171-0.0431995,0.0767717
		c-0.0650196-0.0137978-0.0496168-0.0437202,0.0431995-0.0759697V11.0081301z"/>
	<polygon class="st26" points="8.2457876,13.5162182 8.2901096,13.4356356 8.3264103,13.4718962 	"/>
	<path class="st33" d="M15.1896887,19.6865025c-0.014472,1.0344982,0.3147097,2.0474968,0.1932144,3.0886936
		c-0.3392496,0.0235043-0.4068441-0.3891964-0.4043169-0.4682941c0.0321283-1.0075436-0.8573284-1.6698933-0.9450111-2.6185131
		c-0.2371349-1.6916332-0.4851398-3.382103-0.7043858-5.0755816c-0.0467691-0.3612375-0.3065262-0.346838-0.453124-0.51791
		c0.214345-0.3750763,0.5571394-0.6860952,0.5778685-1.1578388c0.4642429,0.3321972,0.3069763,1.0192556,0.7716122,1.3512125
		v-0.0008821c0.0713167,0.3202448,0.3858652,0.591835,0.192893,0.9649048
		c-0.0709963,0.4032745-0.4267797,0.748107-0.4294262,1.1005201c-0.0028887,0.3914013,0.6553698,0.471262,0.777668,0.91926
		c0.030323,0.1109867,0.1511774,0.1973057,0.230444,0.2949352c0.4637136,0.6025829,0.3096075,1.2670193,0.1928854,1.9276848
		C15.1900902,19.55863,15.1900101,19.6225662,15.1896887,19.6865025z"/>
	<path class="st31" d="M15.1900101,19.4946938c0.0020056-0.6491947,0.0451241-1.3025188-0.1928854-1.9276848
		c-0.0006495-0.3216896-0.0012913-0.6433773-0.001893-0.965107c-0.0466089-0.0422764-0.062252-0.084713-0.0470095-0.1272717
		c0.0152092-0.0426769,0.0305643-0.0639763,0.0460472-0.0639763c-0.0633278-0.1932545-0.1267023-0.386467-0.1900454-0.5796814
		c0.4288645,0.4599915,0.7147751,0.9539547,0.6043491,1.6339531c-0.0703535,0.433157-0.018651,0.8857269-0.027235,1.3294735
		C15.3765726,19.0425644,15.4313564,19.3099823,15.1900101,19.4946938z"/>
	<path class="st28" d="M14.4184389,15.2522936c-0.01793-0.3309135-0.2512941-0.6187487-0.192893-0.9649048
		C14.4338808,14.5801973,14.8258514,14.8363447,14.4184389,15.2522936z"/>
	<path class="st28" d="M14.611331,15.637598c0.0646191-0.1317635,0.1289167-0.1312017,0.192893,0.0004816
		C14.7397661,15.6975641,14.6754684,15.697444,14.611331,15.637598z"/>
	<path class="st33" d="M14.611331,15.637598c0.0642977,0.0001612,0.1285954,0.0003214,0.192893,0.0004816
		c0,0.0642977,0,0.1285954,0,0.192893C14.7399263,15.7665148,14.6756287,15.7020569,14.611331,15.637598z"/>
	<path class="st33" d="M14.9942694,16.4106541c0.0014839,0.063736,0.0018444,0.127512,0.0010023,0.191288
		c-0.0756083-0.0265522-0.1052103-0.0742455-0.0742044-0.1356945
		C14.9335012,16.4416599,14.9692001,16.4288235,14.9942694,16.4106541z"/>
	<path class="st5" d="M18.0838032,16.6030254c-0.0149612,0.0267944-0.0355778,0.0784168-0.0440006,0.0764904
		c-0.064579-0.014719-0.049015-0.045084,0.0436401-0.0774536L18.0838032,16.6030254z"/>
	<path class="st29" d="M16.1540737,22.7760372c-0.0634155-0.0643768-0.126791-0.1287556-0.1901665-0.1931324
		C16.0273228,22.6472816,16.0906982,22.7116604,16.1540737,22.7760372z"/>
	<path class="st34" d="M12.8760653,14.0948973c0.2397346-0.0379047,0.4843702,0.2636881,0.7527924-0.0836716
		c-0.3658104,0.8913822,0.0122337,1.6837311,0.0962658,2.4764013c0.1130323,1.0660648,0.3658504,2.1172886,0.3084517,3.2007618
		c0,0.309494,0,0.6189899,0,0.928524c-0.0678673,0.0032902-0.1357746,0.0066185-0.2036419,0.0099487
		c0.0849142-0.9280853-0.0410337-1.8349895-0.1967039-2.7321472c-0.1537046-0.8858471-0.0149612-1.8406448-0.5650806-2.6424208
		C13.0725603,14.8551168,13.1045694,14.4534073,12.8760653,14.0948973z"/>
	<path class="st1" d="M16.7322292,24.7046051c-0.0830688-0.0431595-0.1822224-0.172718-0.1382942-0.1910477
		c0.2194786-0.0916538,0.0887184,0.1243038,0.1401806,0.1896439L16.7322292,24.7046051z"/>
	<path class="st34" d="M13.0635757,15.3420219c-0.0222216,0.0537481-0.0411539,0.1508169-0.0675468,0.1528625
		c-0.0745258,0.0058956-0.1043682-0.059886-0.059885-0.1260281c0.0316477-0.0471306,0.104248-0.119771,0.129117-0.1095028
		C13.1831064,15.307888,13.0691109,15.2135468,13.0635757,15.3420219z"/>
</g>
</svg>
